{"glyphs":{"0":{"ha":875,"x_min":0,"x_max":0,"o":"m 401 -14 b 835 475 624 -14 794 196 b 524 986 875 763 757 986 b 85 501 303 986 124 781 b 401 -14 43 214 167 -14 z m 421 75 b 306 614 282 81 264 394 b 496 896 336 771 394 900 b 608 360 636 890 651 579 b 421 75 581 203 519 71 z "},"1":{"ha":524,"x_min":0,"x_max":0,"o":"m 463 944 b 435 986 465 974 457 986 b 210 911 413 986 290 946 b 143 865 157 890 144 883 b 179 825 140 847 149 836 b 235 721 239 804 243 782 l 156 167 b 61 32 143 79 61 85 b 128 1 61 10 82 1 l 356 1 b 419 32 399 1 419 8 b 351 167 419 76 339 79 z "},"2":{"ha":819,"x_min":0,"x_max":0,"o":"m 760 731 b 508 986 783 888 668 986 b 154 771 332 986 200 861 b 193 736 135 729 163 706 b 417 844 268 811 340 844 b 547 697 508 844 560 786 b 40 93 526 539 344 357 b 7 31 21 76 7 51 b 50 -10 7 10 21 -10 b 210 75 103 -8 135 75 b 540 -4 315 75 396 -4 b 749 226 660 -4 744 96 b 726 268 749 250 743 268 b 568 181 692 268 685 181 b 318 229 469 181 411 221 b 760 731 597 417 740 592 z "},"3":{"ha":824,"x_min":0,"x_max":0,"o":"m 806 903 b 783 964 826 928 822 964 b 686 914 749 964 719 914 b 338 981 572 914 456 981 b 165 807 235 981 193 914 b 175 703 151 756 146 703 b 242 756 197 703 210 725 b 350 793 272 783 311 793 b 558 760 436 793 494 765 b 313 554 486 686 406 624 b 318 483 285 533 275 488 b 547 283 483 461 563 399 b 335 113 531 171 433 113 b 94 222 228 113 150 157 b 36 188 69 250 29 228 b 371 -24 58 94 174 -24 b 760 278 607 -24 739 125 b 478 583 788 474 639 564 b 806 903 590 675 707 789 z "},"4":{"ha":839,"x_min":0,"x_max":0,"o":"m 486 -37 b 610 -6 510 -37 571 -26 b 653 53 638 8 649 29 l 668 158 l 701 158 b 779 236 732 158 763 171 b 776 338 799 306 801 338 b 690 322 756 338 736 322 l 778 942 b 732 990 782 978 765 990 b 571 893 669 990 640 961 b 294 599 517 842 393 708 b 28 238 157 447 39 318 b 81 168 19 181 38 168 l 468 169 l 444 4 b 486 -37 440 -25 454 -37 z m 218 322 b 211 379 182 321 182 343 b 556 763 299 483 401 603 l 494 325 z "},"5":{"ha":821,"x_min":0,"x_max":0,"o":"m 365 -14 b 756 300 613 -14 733 139 b 307 672 783 493 642 629 l 371 817 b 668 815 469 810 574 810 b 782 878 742 818 761 835 b 815 967 800 915 810 940 b 797 1014 821 994 818 1014 b 626 972 757 1014 746 979 b 388 972 533 967 460 967 b 332 935 358 975 344 963 l 185 592 b 211 536 169 556 175 542 b 540 288 426 508 561 443 b 329 121 525 186 443 121 b 78 232 213 121 133 165 b 19 196 53 260 11 236 b 365 -14 42 103 157 -14 z "},"6":{"ha":824,"x_min":0,"x_max":0,"o":"m 390 -15 b 776 351 604 -15 747 144 b 539 682 803 535 704 682 b 315 586 449 682 361 639 b 571 881 347 794 468 881 b 724 843 632 881 667 872 b 765 896 750 829 783 858 b 564 986 743 940 669 988 b 76 439 322 986 115 732 b 390 -15 40 151 171 -15 z m 413 79 b 274 315 303 82 264 200 b 451 563 282 438 347 564 b 585 331 556 561 596 444 b 413 79 576 206 519 78 z "},"7":{"ha":743,"x_min":0,"x_max":0,"o":"m 769 981 b 657 926 729 981 715 926 b 292 985 531 926 422 985 b 114 744 154 985 114 846 b 139 703 114 721 119 703 b 294 801 176 703 189 801 b 589 764 383 801 481 751 b 119 79 410 551 149 292 b 144 21 117 56 121 35 b 276 -15 181 -3 243 -14 b 314 24 301 -15 311 -3 b 794 913 357 321 604 646 b 769 981 824 957 807 981 z "},"8":{"ha":826,"x_min":0,"x_max":0,"o":"m 796 767 b 528 983 818 921 663 983 b 151 732 351 983 175 899 b 260 510 138 635 189 567 b 47 257 174 464 65 382 b 361 -15 19 63 196 -15 b 758 265 551 -15 732 76 b 600 535 776 390 704 464 b 796 767 692 582 781 656 z m 625 746 b 533 578 617 685 585 628 l 525 583 b 356 781 431 642 344 700 b 500 896 367 854 431 896 b 625 746 589 896 638 838 z m 558 214 b 394 72 549 149 494 72 b 226 282 276 72 208 160 b 321 465 238 367 279 424 b 378 428 339 453 358 440 b 558 214 499 353 569 293 z "},"9":{"ha":831,"x_min":0,"x_max":0,"o":"m 318 -15 b 796 533 569 -15 757 240 b 501 986 832 821 714 986 b 96 615 308 986 125 826 b 335 290 69 436 168 290 b 558 385 425 290 511 332 b 300 90 525 178 403 90 b 150 128 240 90 204 100 b 107 76 122 143 90 113 b 318 -15 129 32 201 -15 z m 436 408 b 293 711 319 408 272 565 b 449 892 306 799 350 892 b 596 596 568 892 617 739 b 436 408 583 503 535 408 z "},"A":{"ha":994,"x_min":0,"x_max":0,"o":"m 160 0 b 228 36 196 0 224 7 b 213 176 235 86 154 69 l 244 238 b 447 276 265 276 265 276 b 635 233 625 276 625 276 l 649 183 b 579 39 675 74 586 93 b 640 0 574 10 596 0 l 864 0 b 943 40 918 0 938 10 b 861 182 950 92 890 69 l 668 938 b 621 972 661 961 646 972 l 464 972 b 414 935 435 972 418 960 b 442 800 407 882 489 888 l 106 176 b -33 36 49 72 -25 88 b 35 0 -36 7 -10 0 z m 460 364 b 335 406 313 364 313 364 l 510 733 l 593 401 b 460 364 603 364 601 364 z "},"Á":{"ha":994,"x_min":0,"x_max":0,"o":"m 531 1051 b 751 1183 608 1044 746 1104 b 690 1261 756 1224 724 1257 b 572 1193 656 1265 619 1235 b 479 1079 536 1158 481 1103 b 531 1051 478 1061 506 1053 z m 160 0 b 228 36 196 0 224 7 b 213 176 235 86 154 69 l 244 238 b 447 276 265 276 265 276 b 635 233 625 276 625 276 l 649 183 b 579 39 675 74 586 93 b 640 0 574 10 596 0 l 864 0 b 943 40 918 0 938 10 b 861 182 950 92 890 69 l 668 938 b 621 972 661 961 646 972 l 464 972 b 414 935 435 972 418 960 b 442 800 407 882 489 888 l 106 176 b -33 36 49 72 -25 88 b 35 0 -36 7 -10 0 z m 460 364 b 335 406 313 364 313 364 l 510 733 l 593 401 b 460 364 603 364 601 364 z "},"Ă":{"ha":994,"x_min":0,"x_max":0,"o":"m 561 1049 b 782 1228 676 1049 767 1125 b 765 1268 786 1253 779 1268 b 735 1249 756 1268 749 1263 b 579 1175 688 1197 644 1175 b 444 1249 514 1175 476 1197 b 418 1268 435 1263 428 1268 b 390 1228 404 1268 393 1253 b 561 1049 378 1129 440 1049 z m 160 0 b 228 36 196 0 224 7 b 213 176 235 86 154 69 l 244 238 b 447 276 265 276 265 276 b 635 233 625 276 625 276 l 649 183 b 579 39 675 74 586 93 b 640 0 574 10 596 0 l 864 0 b 943 40 918 0 938 10 b 861 182 950 92 890 69 l 668 938 b 621 972 661 961 646 972 l 464 972 b 414 935 435 972 418 960 b 442 800 407 882 489 888 l 106 176 b -33 36 49 72 -25 88 b 35 0 -36 7 -10 0 z m 460 364 b 335 406 313 364 313 364 l 510 733 l 593 401 b 460 364 603 364 601 364 z "},"Â":{"ha":994,"x_min":0,"x_max":0,"o":"m 388 1042 b 575 1110 429 1040 522 1076 b 744 1042 619 1076 701 1040 b 769 1064 761 1043 768 1051 b 704 1154 772 1079 743 1108 b 593 1236 649 1217 647 1236 b 456 1151 540 1236 526 1211 b 367 1064 401 1104 371 1078 b 388 1042 367 1051 371 1043 z m 160 0 b 228 36 196 0 224 7 b 213 176 235 86 154 69 l 244 238 b 447 276 265 276 265 276 b 635 233 625 276 625 276 l 649 183 b 579 39 675 74 586 93 b 640 0 574 10 596 0 l 864 0 b 943 40 918 0 938 10 b 861 182 950 92 890 69 l 668 938 b 621 972 661 961 646 972 l 464 972 b 414 935 435 972 418 960 b 442 800 407 882 489 888 l 106 176 b -33 36 49 72 -25 88 b 35 0 -36 7 -10 0 z m 460 364 b 335 406 313 364 313 364 l 510 733 l 593 401 b 460 364 603 364 601 364 z "},"Ä":{"ha":994,"x_min":0,"x_max":0,"o":"m 453 1064 b 558 1158 508 1064 558 1103 b 481 1235 558 1204 526 1235 b 382 1132 424 1235 382 1183 b 453 1064 382 1090 414 1064 z m 682 1064 b 786 1158 736 1064 786 1103 b 707 1235 786 1204 754 1235 b 608 1132 653 1235 608 1183 b 682 1064 608 1090 640 1064 z m 160 0 b 228 36 196 0 224 7 b 213 176 235 86 154 69 l 244 238 b 447 276 265 276 265 276 b 635 233 625 276 625 276 l 649 183 b 579 39 675 74 586 93 b 640 0 574 10 596 0 l 864 0 b 943 40 918 0 938 10 b 861 182 950 92 890 69 l 668 938 b 621 972 661 961 646 972 l 464 972 b 414 935 435 972 418 960 b 442 800 407 882 489 888 l 106 176 b -33 36 49 72 -25 88 b 35 0 -36 7 -10 0 z m 460 364 b 335 406 313 364 313 364 l 510 733 l 593 401 b 460 364 603 364 601 364 z "},"À":{"ha":994,"x_min":0,"x_max":0,"o":"m 601 1051 b 654 1079 628 1053 654 1061 b 560 1193 653 1103 597 1158 b 442 1261 514 1235 478 1265 b 381 1183 408 1257 376 1224 b 601 1051 388 1104 525 1044 z m 160 0 b 228 36 196 0 224 7 b 213 176 235 86 154 69 l 244 238 b 447 276 265 276 265 276 b 635 233 625 276 625 276 l 649 183 b 579 39 675 74 586 93 b 640 0 574 10 596 0 l 864 0 b 943 40 918 0 938 10 b 861 182 950 92 890 69 l 668 938 b 621 972 661 961 646 972 l 464 972 b 414 935 435 972 418 960 b 442 800 407 882 489 888 l 106 176 b -33 36 49 72 -25 88 b 35 0 -36 7 -10 0 z m 460 364 b 335 406 313 364 313 364 l 510 733 l 593 401 b 460 364 603 364 601 364 z "},"Ā":{"ha":994,"x_min":0,"x_max":0,"o":"m 697 1072 b 767 1121 757 1072 763 1079 b 711 1163 772 1154 765 1163 l 397 1163 b 332 1114 344 1163 339 1154 b 383 1072 328 1079 333 1072 z m 160 0 b 228 36 196 0 224 7 b 213 176 235 86 154 69 l 244 238 b 447 276 265 276 265 276 b 635 233 625 276 625 276 l 649 183 b 579 39 675 74 586 93 b 640 0 574 10 596 0 l 864 0 b 943 40 918 0 938 10 b 861 182 950 92 890 69 l 668 938 b 621 972 661 961 646 972 l 464 972 b 414 935 435 972 418 960 b 442 800 407 882 489 888 l 106 176 b -33 36 49 72 -25 88 b 35 0 -36 7 -10 0 z m 460 364 b 335 406 313 364 313 364 l 510 733 l 593 401 b 460 364 603 364 601 364 z "},"Ą":{"ha":994,"x_min":0,"x_max":0,"o":"m 929 -176 b 878 -189 911 -185 893 -189 b 807 -119 831 -189 807 -158 b 863 0 807 -87 822 -49 l 864 0 b 943 40 918 0 938 10 b 861 182 950 92 890 69 l 668 938 b 621 972 661 961 646 972 l 464 972 b 414 935 435 972 418 960 b 442 800 407 882 489 888 l 106 176 b -33 36 49 72 -25 88 b 35 0 -36 7 -10 0 l 160 0 b 228 36 196 0 224 7 b 213 176 235 86 154 69 l 244 238 b 447 276 265 276 265 276 b 635 233 625 276 625 276 l 649 183 b 579 39 675 74 586 93 b 640 0 574 10 596 0 l 792 0 b 693 -143 728 -40 693 -90 b 832 -261 693 -214 751 -261 b 953 -212 878 -261 925 -242 b 929 -176 974 -192 964 -160 z m 460 364 b 335 406 313 364 313 364 l 510 733 l 593 401 b 460 364 603 364 601 364 z "},"Å":{"ha":994,"x_min":0,"x_max":0,"o":"m 560 1031 b 731 1174 643 1031 718 1086 b 604 1313 743 1258 686 1313 b 433 1169 519 1313 444 1256 b 560 1031 421 1086 476 1031 z m 576 1106 b 518 1172 540 1106 518 1133 b 589 1240 521 1213 549 1240 b 646 1176 625 1240 646 1214 b 576 1106 643 1138 617 1106 z m 160 0 b 228 36 196 0 224 7 b 213 176 235 86 154 69 l 244 238 b 447 276 265 276 265 276 b 635 233 625 276 625 276 l 649 183 b 579 39 675 74 586 93 b 640 0 574 10 596 0 l 864 0 b 943 40 918 0 938 10 b 861 182 950 92 890 69 l 668 938 b 621 972 661 961 646 972 l 464 972 b 414 935 435 972 418 960 b 442 800 407 882 489 888 l 106 176 b -33 36 49 72 -25 88 b 35 0 -36 7 -10 0 z m 460 364 b 335 406 313 364 313 364 l 510 733 l 593 401 b 460 364 603 364 601 364 z "},"Ã":{"ha":994,"x_min":0,"x_max":0,"o":"m 674 1047 b 794 1144 749 1047 788 1097 b 750 1192 803 1207 756 1226 b 696 1150 746 1160 725 1150 b 469 1208 651 1150 549 1208 b 347 1111 394 1208 354 1160 b 393 1065 339 1050 388 1029 b 447 1106 396 1096 418 1106 b 674 1047 525 1106 603 1047 z m 160 0 b 228 36 196 0 224 7 b 213 176 235 86 154 69 l 244 238 b 447 276 265 276 265 276 b 635 233 625 276 625 276 l 649 183 b 579 39 675 74 586 93 b 640 0 574 10 596 0 l 864 0 b 943 40 918 0 938 10 b 861 182 950 92 890 69 l 668 938 b 621 972 661 961 646 972 l 464 972 b 414 935 435 972 418 960 b 442 800 407 882 489 888 l 106 176 b -33 36 49 72 -25 88 b 35 0 -36 7 -10 0 z m 460 364 b 335 406 313 364 313 364 l 510 733 l 593 401 b 460 364 603 364 601 364 z "},"Æ":{"ha":1331,"x_min":0,"x_max":0,"o":"m 188 0 b 228 29 218 0 225 10 b 206 61 229 47 219 54 b 194 151 153 90 172 124 l 249 219 b 415 260 274 253 288 260 l 593 260 l 581 192 b 474 39 558 83 481 96 b 542 0 471 11 488 0 l 1096 0 b 1219 58 1181 0 1203 17 b 1265 226 1236 97 1251 150 b 1246 290 1272 264 1274 285 b 1175 238 1224 296 1204 285 b 964 89 1115 140 1079 89 l 889 88 b 767 153 776 88 761 107 l 810 456 b 925 524 818 515 851 524 b 1115 390 1058 522 1046 375 b 1147 458 1142 396 1150 408 l 1136 617 b 1100 658 1135 642 1126 658 b 938 611 1053 658 1056 611 b 842 679 864 611 833 621 l 861 821 b 994 885 867 865 890 885 l 1054 885 b 1244 753 1151 885 1203 840 b 1306 713 1263 717 1278 704 b 1335 781 1331 719 1336 743 b 1319 924 1333 839 1328 886 b 1211 972 1311 965 1292 972 l 619 972 b 581 943 589 972 582 963 b 600 903 578 926 588 914 b 597 817 619 882 628 854 l 75 151 b -37 61 46 115 17 90 b -68 29 -53 54 -67 47 b -36 0 -71 10 -67 0 z m 461 349 b 379 393 371 349 361 369 l 661 758 l 604 349 z "},"B":{"ha":951,"x_min":0,"x_max":0,"o":"m 422 0 b 892 317 693 0 864 124 b 679 582 910 450 832 551 b 843 761 778 611 833 678 b 517 972 864 915 725 972 l 233 972 b 150 933 178 972 154 963 b 219 801 142 875 218 892 b 214 736 219 785 218 768 l 143 236 b 131 171 139 204 136 188 b 25 39 104 82 33 97 b 97 0 21 10 42 0 z m 465 617 b 397 647 435 617 392 614 l 425 840 b 490 885 429 876 454 885 b 646 735 599 885 658 818 b 465 617 635 656 578 617 z m 431 88 b 332 185 335 88 322 117 l 375 479 b 439 525 379 513 389 525 b 672 281 611 525 692 417 b 431 88 653 147 575 88 z "},"":{"ha":951,"x_min":0,"x_max":0,"o":"m 422 0 b 892 317 693 0 864 124 b 679 582 910 450 832 551 b 843 761 778 611 833 678 b 517 972 864 915 725 972 l 233 972 b 150 933 178 972 154 963 b 219 801 142 875 218 892 b 214 736 219 785 218 768 l 143 236 b 131 171 139 204 136 188 b 25 39 104 82 33 97 b 97 0 21 10 42 0 z m 465 617 b 397 647 435 617 392 614 l 425 840 b 490 885 429 876 454 885 b 646 735 599 885 658 818 b 465 617 635 656 578 617 z m 431 88 b 332 185 335 88 322 117 l 375 479 b 439 525 379 513 389 525 b 672 281 611 525 692 417 b 431 88 653 147 575 88 z "},"C":{"ha":974,"x_min":0,"x_max":0,"o":"m 497 -14 b 900 192 678 -14 835 86 b 860 239 931 236 899 275 b 575 108 774 160 688 108 b 289 554 358 108 256 314 b 621 893 315 744 443 893 b 861 717 758 893 810 806 b 926 656 885 675 897 656 b 965 718 957 657 965 681 b 957 911 965 803 961 863 b 910 985 953 971 935 985 b 838 963 882 985 872 963 b 664 986 804 963 754 986 b 75 496 369 986 115 783 b 497 -14 35 201 214 -14 z "},"Ć":{"ha":974,"x_min":0,"x_max":0,"o":"m 574 1051 b 794 1183 651 1044 789 1104 b 733 1261 799 1224 767 1257 b 615 1193 699 1265 663 1235 b 522 1079 579 1158 524 1103 b 574 1051 521 1061 549 1053 z m 497 -14 b 900 192 678 -14 835 86 b 860 239 931 236 899 275 b 575 108 774 160 688 108 b 289 554 358 108 256 314 b 621 893 315 744 443 893 b 861 717 758 893 810 806 b 926 656 885 675 897 656 b 965 718 957 657 965 681 b 957 911 965 803 961 863 b 910 985 953 971 935 985 b 838 963 882 985 872 963 b 664 986 804 963 754 986 b 75 496 369 986 115 783 b 497 -14 35 201 214 -14 z "},"Č":{"ha":974,"x_min":0,"x_max":0,"o":"m 610 1049 b 743 1131 664 1049 669 1067 b 835 1221 796 1176 833 1206 b 815 1242 836 1233 832 1242 b 628 1175 774 1243 681 1208 b 460 1242 583 1208 501 1243 b 433 1221 442 1242 435 1233 b 496 1133 431 1206 454 1179 b 610 1049 549 1072 557 1049 z m 497 -14 b 900 192 678 -14 835 86 b 860 239 931 236 899 275 b 575 108 774 160 688 108 b 289 554 358 108 256 314 b 621 893 315 744 443 893 b 861 717 758 893 810 806 b 926 656 885 675 897 656 b 965 718 957 657 965 681 b 957 911 965 803 961 863 b 910 985 953 971 935 985 b 838 963 882 985 872 963 b 664 986 804 963 754 986 b 75 496 369 986 115 783 b 497 -14 35 201 214 -14 z "},"Ç":{"ha":974,"x_min":0,"x_max":0,"o":"m 957 911 b 910 985 953 971 935 985 b 838 963 882 985 872 963 b 664 986 804 963 754 986 b 75 496 369 986 115 783 b 429 -10 38 225 186 22 l 385 -93 b 401 -119 378 -107 388 -117 b 493 -189 442 -129 493 -143 b 433 -242 493 -217 472 -242 b 372 -222 408 -242 389 -233 b 342 -250 344 -206 325 -231 b 460 -297 361 -275 400 -297 b 596 -182 536 -297 596 -250 b 465 -71 596 -112 536 -82 l 497 -14 b 900 192 678 -14 835 86 b 860 239 931 236 899 275 b 575 108 774 160 688 108 b 289 554 358 108 256 314 b 621 893 315 744 443 893 b 861 717 758 893 810 806 b 926 656 885 675 897 656 b 965 718 957 657 965 681 b 957 911 965 803 961 863 z "},"Ċ":{"ha":974,"x_min":0,"x_max":0,"o":"m 571 1063 b 721 1192 643 1061 718 1124 b 633 1279 721 1239 683 1278 b 488 1147 563 1282 489 1211 b 571 1063 486 1101 518 1064 z m 497 -14 b 900 192 678 -14 835 86 b 860 239 931 236 899 275 b 575 108 774 160 688 108 b 289 554 358 108 256 314 b 621 893 315 744 443 893 b 861 717 758 893 810 806 b 926 656 885 675 897 656 b 965 718 957 657 965 681 b 957 911 965 803 961 863 b 910 985 953 971 935 985 b 838 963 882 985 872 963 b 664 986 804 963 754 986 b 75 496 369 986 115 783 b 497 -14 35 201 214 -14 z "},"D":{"ha":1067,"x_min":0,"x_max":0,"o":"m 463 0 b 1043 503 797 0 1004 229 b 565 972 1075 733 950 972 l 233 972 b 150 933 178 972 154 963 b 219 801 142 875 218 892 b 214 736 219 785 218 768 l 143 236 b 131 171 139 204 136 188 b 25 39 104 82 33 97 b 97 0 21 10 42 0 z m 458 82 b 331 167 336 82 322 114 l 424 831 b 513 892 431 882 451 892 b 826 424 740 892 864 689 b 458 82 799 228 690 82 z "},"Ď":{"ha":1067,"x_min":0,"x_max":0,"o":"m 528 1049 b 661 1131 582 1049 588 1067 b 753 1221 714 1176 751 1206 b 733 1242 754 1233 750 1242 b 546 1175 692 1243 599 1208 b 378 1242 501 1208 419 1243 b 351 1221 360 1242 353 1233 b 414 1133 349 1206 372 1179 b 528 1049 467 1072 475 1049 z m 463 0 b 1043 503 797 0 1004 229 b 565 972 1075 733 950 972 l 233 972 b 150 933 178 972 154 963 b 219 801 142 875 218 892 b 214 736 219 785 218 768 l 143 236 b 131 171 139 204 136 188 b 25 39 104 82 33 97 b 97 0 21 10 42 0 z m 458 82 b 331 167 336 82 322 114 l 424 831 b 513 892 431 882 451 892 b 826 424 740 892 864 689 b 458 82 799 228 690 82 z "},"Đ":{"ha":1067,"x_min":0,"x_max":0,"o":"m 233 972 b 150 933 178 972 154 963 b 219 801 142 875 218 892 b 214 736 219 785 218 768 l 185 529 l 144 529 b 100 492 117 529 103 515 b 131 440 94 458 96 440 l 172 440 l 143 236 b 131 171 139 204 136 188 b 25 39 104 82 33 97 b 97 0 21 10 42 0 l 463 0 b 1043 503 797 0 1004 229 b 565 972 1075 733 950 972 z m 826 424 b 458 82 799 228 690 82 b 331 167 336 82 322 114 l 369 440 l 467 440 b 513 492 500 440 507 456 b 479 529 515 515 507 529 l 382 529 l 424 831 b 513 892 431 882 451 892 b 826 424 740 892 864 689 z "},"Ð":{"ha":1067,"x_min":0,"x_max":0,"o":"m 233 972 b 150 933 178 972 154 963 b 219 801 142 875 218 892 b 214 736 219 785 218 768 l 185 529 l 144 529 b 100 492 117 529 103 515 b 131 440 94 458 96 440 l 172 440 l 143 236 b 131 171 139 204 136 188 b 25 39 104 82 33 97 b 97 0 21 10 42 0 l 463 0 b 1043 503 797 0 1004 229 b 565 972 1075 733 950 972 z m 826 424 b 458 82 799 228 690 82 b 331 167 336 82 322 114 l 369 440 l 467 440 b 513 492 500 440 507 456 b 479 529 515 515 507 529 l 382 529 l 424 831 b 513 892 431 882 451 892 b 826 424 740 892 864 689 z "},"E":{"ha":892,"x_min":0,"x_max":0,"o":"m 656 0 b 781 58 740 0 764 17 b 826 226 797 97 811 150 b 806 290 832 264 833 285 b 735 238 783 296 764 285 b 542 89 676 140 639 89 l 450 88 b 328 153 338 88 321 107 l 371 456 b 486 524 378 515 413 524 b 675 390 619 522 607 375 b 707 458 701 396 713 408 l 697 617 b 661 658 694 642 688 658 b 499 611 613 658 615 611 b 403 679 425 611 393 621 l 422 821 b 554 885 428 865 451 885 l 615 885 b 804 753 713 885 764 840 b 865 713 824 717 839 704 b 896 781 892 719 897 743 b 879 924 894 839 888 886 b 772 972 871 965 853 972 l 233 972 b 151 933 179 972 154 964 b 214 736 140 861 239 917 l 143 236 b 24 39 118 56 35 111 b 96 0 21 8 40 0 z "},"":{"ha":892,"x_min":0,"x_max":0,"o":"m 656 0 b 781 58 740 0 764 17 b 826 226 797 97 811 150 b 806 290 832 264 833 285 b 735 238 783 296 764 285 b 542 89 676 140 639 89 l 450 88 b 328 153 338 88 321 107 l 371 456 b 486 524 378 515 413 524 b 675 390 619 522 607 375 b 707 458 701 396 713 408 l 697 617 b 661 658 694 642 688 658 b 499 611 613 658 615 611 b 403 679 425 611 393 621 l 422 821 b 554 885 428 865 451 885 l 615 885 b 804 753 713 885 764 840 b 865 713 824 717 839 704 b 896 781 892 719 897 743 b 879 924 894 839 888 886 b 772 972 871 965 853 972 l 233 972 b 151 933 179 972 154 964 b 214 736 140 861 239 917 l 143 236 b 24 39 118 56 35 111 b 96 0 21 8 40 0 z "},"É":{"ha":892,"x_min":0,"x_max":0,"o":"m 467 1051 b 688 1183 544 1044 682 1104 b 626 1261 692 1224 660 1257 b 508 1193 592 1265 556 1235 b 415 1079 472 1158 417 1103 b 467 1051 414 1061 442 1053 z m 656 0 b 781 58 740 0 764 17 b 826 226 797 97 811 150 b 806 290 832 264 833 285 b 735 238 783 296 764 285 b 542 89 676 140 639 89 l 450 88 b 328 153 338 88 321 107 l 371 456 b 486 524 378 515 413 524 b 675 390 619 522 607 375 b 707 458 701 396 713 408 l 697 617 b 661 658 694 642 688 658 b 499 611 613 658 615 611 b 403 679 425 611 393 621 l 422 821 b 554 885 428 865 451 885 l 615 885 b 804 753 713 885 764 840 b 865 713 824 717 839 704 b 896 781 892 719 897 743 b 879 924 894 839 888 886 b 772 972 871 965 853 972 l 233 972 b 151 933 179 972 154 964 b 214 736 140 861 239 917 l 143 236 b 24 39 118 56 35 111 b 96 0 21 8 40 0 z "},"Ě":{"ha":892,"x_min":0,"x_max":0,"o":"m 540 1049 b 674 1131 594 1049 600 1067 b 765 1221 726 1176 764 1206 b 746 1242 767 1233 763 1242 b 558 1175 704 1243 611 1208 b 390 1242 514 1208 432 1243 b 364 1221 372 1242 365 1233 b 426 1133 361 1206 385 1179 b 540 1049 479 1072 488 1049 z m 656 0 b 781 58 740 0 764 17 b 826 226 797 97 811 150 b 806 290 832 264 833 285 b 735 238 783 296 764 285 b 542 89 676 140 639 89 l 450 88 b 328 153 338 88 321 107 l 371 456 b 486 524 378 515 413 524 b 675 390 619 522 607 375 b 707 458 701 396 713 408 l 697 617 b 661 658 694 642 688 658 b 499 611 613 658 615 611 b 403 679 425 611 393 621 l 422 821 b 554 885 428 865 451 885 l 615 885 b 804 753 713 885 764 840 b 865 713 824 717 839 704 b 896 781 892 719 897 743 b 879 924 894 839 888 886 b 772 972 871 965 853 972 l 233 972 b 151 933 179 972 154 964 b 214 736 140 861 239 917 l 143 236 b 24 39 118 56 35 111 b 96 0 21 8 40 0 z "},"Ê":{"ha":892,"x_min":0,"x_max":0,"o":"m 360 1042 b 547 1110 401 1040 494 1076 b 717 1042 592 1076 674 1040 b 742 1064 733 1043 740 1051 b 676 1154 744 1079 715 1108 b 565 1236 621 1217 619 1236 b 428 1151 513 1236 499 1211 b 339 1064 374 1104 343 1078 b 360 1042 339 1051 343 1043 z m 656 0 b 781 58 740 0 764 17 b 826 226 797 97 811 150 b 806 290 832 264 833 285 b 735 238 783 296 764 285 b 542 89 676 140 639 89 l 450 88 b 328 153 338 88 321 107 l 371 456 b 486 524 378 515 413 524 b 675 390 619 522 607 375 b 707 458 701 396 713 408 l 697 617 b 661 658 694 642 688 658 b 499 611 613 658 615 611 b 403 679 425 611 393 621 l 422 821 b 554 885 428 865 451 885 l 615 885 b 804 753 713 885 764 840 b 865 713 824 717 839 704 b 896 781 892 719 897 743 b 879 924 894 839 888 886 b 772 972 871 965 853 972 l 233 972 b 151 933 179 972 154 964 b 214 736 140 861 239 917 l 143 236 b 24 39 118 56 35 111 b 96 0 21 8 40 0 z "},"Ë":{"ha":892,"x_min":0,"x_max":0,"o":"m 425 1064 b 531 1158 481 1064 531 1103 b 453 1235 531 1204 499 1235 b 354 1132 396 1235 354 1183 b 425 1064 354 1090 386 1064 z m 654 1064 b 758 1158 708 1064 758 1103 b 679 1235 758 1204 726 1235 b 581 1132 625 1235 581 1183 b 654 1064 581 1090 613 1064 z m 656 0 b 781 58 740 0 764 17 b 826 226 797 97 811 150 b 806 290 832 264 833 285 b 735 238 783 296 764 285 b 542 89 676 140 639 89 l 450 88 b 328 153 338 88 321 107 l 371 456 b 486 524 378 515 413 524 b 675 390 619 522 607 375 b 707 458 701 396 713 408 l 697 617 b 661 658 694 642 688 658 b 499 611 613 658 615 611 b 403 679 425 611 393 621 l 422 821 b 554 885 428 865 451 885 l 615 885 b 804 753 713 885 764 840 b 865 713 824 717 839 704 b 896 781 892 719 897 743 b 879 924 894 839 888 886 b 772 972 871 965 853 972 l 233 972 b 151 933 179 972 154 964 b 214 736 140 861 239 917 l 143 236 b 24 39 118 56 35 111 b 96 0 21 8 40 0 z "},"Ė":{"ha":892,"x_min":0,"x_max":0,"o":"m 529 1063 b 679 1192 601 1061 676 1124 b 592 1279 679 1239 642 1278 b 446 1147 521 1282 447 1211 b 529 1063 444 1101 476 1064 z m 656 0 b 781 58 740 0 764 17 b 826 226 797 97 811 150 b 806 290 832 264 833 285 b 735 238 783 296 764 285 b 542 89 676 140 639 89 l 450 88 b 328 153 338 88 321 107 l 371 456 b 486 524 378 515 413 524 b 675 390 619 522 607 375 b 707 458 701 396 713 408 l 697 617 b 661 658 694 642 688 658 b 499 611 613 658 615 611 b 403 679 425 611 393 621 l 422 821 b 554 885 428 865 451 885 l 615 885 b 804 753 713 885 764 840 b 865 713 824 717 839 704 b 896 781 892 719 897 743 b 879 924 894 839 888 886 b 772 972 871 965 853 972 l 233 972 b 151 933 179 972 154 964 b 214 736 140 861 239 917 l 143 236 b 24 39 118 56 35 111 b 96 0 21 8 40 0 z "},"È":{"ha":892,"x_min":0,"x_max":0,"o":"m 588 1051 b 640 1079 614 1053 640 1061 b 546 1193 639 1103 583 1158 b 428 1261 500 1235 464 1265 b 367 1183 394 1257 363 1224 b 588 1051 374 1104 511 1044 z m 656 0 b 781 58 740 0 764 17 b 826 226 797 97 811 150 b 806 290 832 264 833 285 b 735 238 783 296 764 285 b 542 89 676 140 639 89 l 450 88 b 328 153 338 88 321 107 l 371 456 b 486 524 378 515 413 524 b 675 390 619 522 607 375 b 707 458 701 396 713 408 l 697 617 b 661 658 694 642 688 658 b 499 611 613 658 615 611 b 403 679 425 611 393 621 l 422 821 b 554 885 428 865 451 885 l 615 885 b 804 753 713 885 764 840 b 865 713 824 717 839 704 b 896 781 892 719 897 743 b 879 924 894 839 888 886 b 772 972 871 965 853 972 l 233 972 b 151 933 179 972 154 964 b 214 736 140 861 239 917 l 143 236 b 24 39 118 56 35 111 b 96 0 21 8 40 0 z "},"Ē":{"ha":892,"x_min":0,"x_max":0,"o":"m 683 1072 b 753 1121 743 1072 749 1079 b 697 1163 758 1154 751 1163 l 383 1163 b 318 1114 331 1163 325 1154 b 369 1072 314 1079 319 1072 z m 656 0 b 781 58 740 0 764 17 b 826 226 797 97 811 150 b 806 290 832 264 833 285 b 735 238 783 296 764 285 b 542 89 676 140 639 89 l 450 88 b 328 153 338 88 321 107 l 371 456 b 486 524 378 515 413 524 b 675 390 619 522 607 375 b 707 458 701 396 713 408 l 697 617 b 661 658 694 642 688 658 b 499 611 613 658 615 611 b 403 679 425 611 393 621 l 422 821 b 554 885 428 865 451 885 l 615 885 b 804 753 713 885 764 840 b 865 713 824 717 839 704 b 896 781 892 719 897 743 b 879 924 894 839 888 886 b 772 972 871 965 853 972 l 233 972 b 151 933 179 972 154 964 b 214 736 140 861 239 917 l 143 236 b 24 39 118 56 35 111 b 96 0 21 8 40 0 z "},"Ę":{"ha":892,"x_min":0,"x_max":0,"o":"m 896 781 b 879 924 894 839 888 886 b 772 972 871 965 853 972 l 233 972 b 151 933 179 972 154 964 b 214 736 140 861 239 917 l 143 236 b 24 39 118 56 35 111 b 96 0 21 8 40 0 l 586 0 b 488 -143 522 -40 488 -90 b 626 -261 488 -214 546 -261 b 747 -212 672 -261 719 -242 b 724 -176 768 -192 758 -160 b 672 -189 706 -185 688 -189 b 601 -119 625 -189 601 -158 b 657 0 601 -87 617 -49 b 781 58 740 0 764 17 b 826 226 797 97 811 150 b 806 290 832 264 833 285 b 735 238 783 296 764 285 b 542 89 676 140 639 89 l 450 88 b 328 153 338 88 321 107 l 371 456 b 486 524 378 515 413 524 b 675 390 619 522 607 375 b 707 458 701 396 713 408 l 697 617 b 661 658 694 642 688 658 b 499 611 613 658 615 611 b 403 679 425 611 393 621 l 422 821 b 554 885 428 865 451 885 l 615 885 b 804 753 713 885 764 840 b 865 713 824 717 839 704 b 896 781 892 719 897 743 z "},"F":{"ha":883,"x_min":0,"x_max":0,"o":"m 894 781 b 878 924 892 839 886 886 b 769 972 869 965 850 972 l 233 972 b 151 933 179 972 154 964 b 214 736 140 861 239 917 l 143 232 b 24 39 119 67 33 106 b 96 0 21 10 40 0 l 317 0 b 400 39 374 0 396 10 b 339 232 408 106 315 67 l 369 443 b 472 511 376 503 411 511 l 499 511 b 686 376 631 511 618 361 b 718 446 714 383 722 396 l 707 603 b 671 644 706 628 697 644 b 510 597 624 644 626 597 l 483 597 b 400 665 424 597 392 607 l 422 822 b 556 885 429 865 451 885 l 619 885 b 803 753 710 885 761 840 b 864 713 822 717 838 704 b 894 781 889 719 896 743 z "},"G":{"ha":1051,"x_min":0,"x_max":0,"o":"m 493 -14 b 931 193 722 -14 918 96 l 946 313 b 1022 469 963 439 1015 415 b 964 508 1025 499 1006 508 l 713 507 b 631 467 656 507 635 496 b 750 311 622 401 769 440 l 732 185 b 553 89 722 119 624 89 b 285 557 343 89 246 288 b 607 894 311 740 429 894 b 857 718 753 893 813 806 b 917 657 878 675 890 656 b 954 718 944 658 951 681 b 951 911 958 803 956 863 b 904 985 947 971 929 985 b 832 963 876 985 867 963 b 644 986 799 963 749 986 b 71 467 357 986 111 754 b 493 -14 32 182 200 -14 z "},"Ğ":{"ha":1051,"x_min":0,"x_max":0,"o":"m 646 1049 b 867 1228 761 1049 851 1125 b 850 1268 871 1253 864 1268 b 819 1249 840 1268 833 1263 b 664 1175 772 1197 729 1175 b 529 1249 599 1175 561 1197 b 503 1268 519 1263 513 1268 b 475 1228 489 1268 478 1253 b 646 1049 463 1129 525 1049 z m 493 -14 b 931 193 722 -14 918 96 l 946 313 b 1022 469 963 439 1015 415 b 964 508 1025 499 1006 508 l 713 507 b 631 467 656 507 635 496 b 750 311 622 401 769 440 l 732 185 b 553 89 722 119 624 89 b 285 557 343 89 246 288 b 607 894 311 740 429 894 b 857 718 753 893 813 806 b 917 657 878 675 890 656 b 954 718 944 658 951 681 b 951 911 958 803 956 863 b 904 985 947 971 929 985 b 832 963 876 985 867 963 b 644 986 799 963 749 986 b 71 467 357 986 111 754 b 493 -14 32 182 200 -14 z "},"Ġ":{"ha":1051,"x_min":0,"x_max":0,"o":"m 613 1063 b 763 1192 685 1061 760 1124 b 675 1279 763 1239 725 1278 b 529 1147 604 1282 531 1211 b 613 1063 528 1101 560 1064 z m 493 -14 b 931 193 722 -14 918 96 l 946 313 b 1022 469 963 439 1015 415 b 964 508 1025 499 1006 508 l 713 507 b 631 467 656 507 635 496 b 750 311 622 401 769 440 l 732 185 b 553 89 722 119 624 89 b 285 557 343 89 246 288 b 607 894 311 740 429 894 b 857 718 753 893 813 806 b 917 657 878 675 890 656 b 954 718 944 658 951 681 b 951 911 958 803 956 863 b 904 985 947 971 929 985 b 832 963 876 985 867 963 b 644 986 799 963 749 986 b 71 467 357 986 111 754 b 493 -14 32 182 200 -14 z "},"H":{"ha":1160,"x_min":0,"x_max":0,"o":"m 317 0 b 400 39 375 0 396 10 b 333 171 407 101 335 75 b 338 222 333 188 335 204 l 363 404 b 600 472 371 472 371 472 b 815 404 825 472 825 472 l 790 222 b 778 171 788 204 783 188 b 674 39 753 82 682 97 b 744 0 669 10 690 0 l 967 0 b 1049 39 1024 0 1044 10 b 983 171 1057 101 983 75 b 986 222 983 188 985 204 l 1060 750 b 1072 801 1063 768 1067 785 b 1176 933 1097 892 1168 875 b 1106 972 1181 963 1160 972 l 883 972 b 801 933 826 972 806 963 b 867 801 793 871 867 897 b 864 750 867 785 865 768 l 847 628 b 614 560 838 560 838 560 b 393 628 383 560 383 560 l 411 750 b 422 801 413 768 417 785 b 528 933 447 892 519 875 b 456 972 532 963 511 972 l 235 972 b 153 933 176 972 156 963 b 218 801 144 871 217 897 b 214 750 218 785 217 768 l 142 222 b 129 171 139 204 135 188 b 24 39 104 82 32 97 b 96 0 19 10 40 0 z "},"Ħ":{"ha":1160,"x_min":0,"x_max":0,"o":"m 883 972 b 801 933 826 972 806 963 b 867 801 793 871 867 897 b 865 765 867 789 865 778 l 413 765 b 422 801 415 778 418 789 b 528 933 447 892 519 875 b 456 972 532 963 511 972 l 235 972 b 153 933 176 972 156 963 b 218 801 144 871 217 897 b 215 765 218 789 217 778 l 169 765 b 135 729 146 765 135 753 l 135 714 b 169 678 135 690 146 678 l 204 678 l 142 222 b 129 171 139 204 135 188 b 24 39 104 82 32 97 b 96 0 19 10 40 0 l 317 0 b 400 39 375 0 396 10 b 333 171 407 101 335 75 b 338 222 333 188 335 204 l 363 404 b 600 472 371 472 371 472 b 815 404 825 472 825 472 l 790 222 b 778 171 788 204 783 188 b 674 39 753 82 682 97 b 744 0 669 10 690 0 l 967 0 b 1049 39 1024 0 1044 10 b 983 171 1057 101 983 75 b 986 222 983 188 985 204 l 1050 678 l 1121 678 b 1156 714 1144 678 1156 690 l 1156 729 b 1121 765 1156 753 1144 765 l 1063 765 b 1072 801 1065 778 1068 789 b 1176 933 1097 892 1168 875 b 1106 972 1181 963 1160 972 z m 847 628 b 614 560 838 560 838 560 b 393 628 383 560 383 560 l 400 678 l 854 678 z "},"I":{"ha":510,"x_min":0,"x_max":0,"o":"m 317 0 b 400 39 375 0 396 10 b 333 171 407 101 335 75 b 338 222 333 188 335 204 l 411 750 b 422 801 413 768 417 785 b 528 933 447 892 519 875 b 456 972 532 963 511 972 l 235 972 b 153 933 176 972 156 963 b 218 801 144 871 217 897 b 214 750 218 785 217 768 l 142 222 b 129 171 139 204 135 188 b 24 39 104 82 32 97 b 96 0 19 10 40 0 z "},"Í":{"ha":510,"x_min":0,"x_max":0,"o":"m 326 1051 b 547 1183 404 1044 542 1104 b 486 1261 551 1224 519 1257 b 368 1193 451 1265 415 1235 b 275 1079 332 1158 276 1103 b 326 1051 274 1061 301 1053 z m 317 0 b 400 39 375 0 396 10 b 333 171 407 101 335 75 b 338 222 333 188 335 204 l 411 750 b 422 801 413 768 417 785 b 528 933 447 892 519 875 b 456 972 532 963 511 972 l 235 972 b 153 933 176 972 156 963 b 218 801 144 871 217 897 b 214 750 218 785 217 768 l 142 222 b 129 171 139 204 135 188 b 24 39 104 82 32 97 b 96 0 19 10 40 0 z "},"Î":{"ha":510,"x_min":0,"x_max":0,"o":"m 183 1042 b 371 1110 225 1040 318 1076 b 540 1042 415 1076 497 1040 b 565 1064 557 1043 564 1051 b 500 1154 568 1079 539 1108 b 389 1236 444 1217 443 1236 b 251 1151 336 1236 322 1211 b 163 1064 197 1104 167 1078 b 183 1042 163 1051 167 1043 z m 317 0 b 400 39 375 0 396 10 b 333 171 407 101 335 75 b 338 222 333 188 335 204 l 411 750 b 422 801 413 768 417 785 b 528 933 447 892 519 875 b 456 972 532 963 511 972 l 235 972 b 153 933 176 972 156 963 b 218 801 144 871 217 897 b 214 750 218 785 217 768 l 142 222 b 129 171 139 204 135 188 b 24 39 104 82 32 97 b 96 0 19 10 40 0 z "},"Ï":{"ha":510,"x_min":0,"x_max":0,"o":"m 249 1064 b 354 1158 304 1064 354 1103 b 276 1235 354 1204 322 1235 b 178 1132 219 1235 178 1183 b 249 1064 178 1090 210 1064 z m 478 1064 b 582 1158 532 1064 582 1103 b 503 1235 582 1204 550 1235 b 404 1132 449 1235 404 1183 b 478 1064 404 1090 436 1064 z m 317 0 b 400 39 375 0 396 10 b 333 171 407 101 335 75 b 338 222 333 188 335 204 l 411 750 b 422 801 413 768 417 785 b 528 933 447 892 519 875 b 456 972 532 963 511 972 l 235 972 b 153 933 176 972 156 963 b 218 801 144 871 217 897 b 214 750 218 785 217 768 l 142 222 b 129 171 139 204 135 188 b 24 39 104 82 32 97 b 96 0 19 10 40 0 z "},"İ":{"ha":510,"x_min":0,"x_max":0,"o":"m 346 1063 b 496 1192 418 1061 493 1124 b 408 1279 496 1239 458 1278 b 263 1147 338 1282 264 1211 b 346 1063 261 1101 293 1064 z m 317 0 b 400 39 375 0 396 10 b 333 171 407 101 335 75 b 338 222 333 188 335 204 l 411 750 b 422 801 413 768 417 785 b 528 933 447 892 519 875 b 456 972 532 963 511 972 l 235 972 b 153 933 176 972 156 963 b 218 801 144 871 217 897 b 214 750 218 785 217 768 l 142 222 b 129 171 139 204 135 188 b 24 39 104 82 32 97 b 96 0 19 10 40 0 z "},"Ì":{"ha":510,"x_min":0,"x_max":0,"o":"m 397 1051 b 450 1079 424 1053 450 1061 b 356 1193 449 1103 393 1158 b 238 1261 310 1235 274 1265 b 176 1183 204 1257 172 1224 b 397 1051 183 1104 321 1044 z m 317 0 b 400 39 375 0 396 10 b 333 171 407 101 335 75 b 338 222 333 188 335 204 l 411 750 b 422 801 413 768 417 785 b 528 933 447 892 519 875 b 456 972 532 963 511 972 l 235 972 b 153 933 176 972 156 963 b 218 801 144 871 217 897 b 214 750 218 785 217 768 l 142 222 b 129 171 139 204 135 188 b 24 39 104 82 32 97 b 96 0 19 10 40 0 z "},"Ī":{"ha":510,"x_min":0,"x_max":0,"o":"m 493 1072 b 563 1121 553 1072 558 1079 b 507 1163 568 1154 561 1163 l 193 1163 b 128 1114 140 1163 135 1154 b 179 1072 124 1079 129 1072 z m 317 0 b 400 39 375 0 396 10 b 333 171 407 101 335 75 b 338 222 333 188 335 204 l 411 750 b 422 801 413 768 417 785 b 528 933 447 892 519 875 b 456 972 532 963 511 972 l 235 972 b 153 933 176 972 156 963 b 218 801 144 871 217 897 b 214 750 218 785 217 768 l 142 222 b 129 171 139 204 135 188 b 24 39 104 82 32 97 b 96 0 19 10 40 0 z "},"Į":{"ha":510,"x_min":0,"x_max":0,"o":"m 235 972 b 153 933 176 972 156 963 b 218 801 144 871 217 897 b 214 750 218 785 217 768 l 142 222 b 129 171 139 204 135 188 b 24 39 104 82 32 97 b 96 0 19 10 40 0 l 279 0 b 181 -143 215 -40 181 -90 b 319 -261 181 -214 239 -261 b 440 -212 365 -261 413 -242 b 417 -176 461 -192 451 -160 b 365 -189 399 -185 381 -189 b 294 -119 318 -189 294 -158 b 351 1 294 -87 310 -47 b 400 39 383 6 397 17 b 333 171 407 101 335 75 b 338 222 333 188 335 204 l 411 750 b 422 801 413 768 417 785 b 528 933 447 892 519 875 b 456 972 532 963 511 972 z "},"J":{"ha":768,"x_min":0,"x_max":0,"o":"m 253 -12 b 639 410 525 -12 607 161 l 685 750 b 697 801 688 768 692 785 b 801 933 722 892 793 875 b 731 972 806 963 785 972 l 508 972 b 426 933 451 972 431 963 b 492 801 417 871 492 897 b 489 750 492 785 490 768 l 429 328 b 282 85 408 174 360 85 b 196 229 215 85 196 142 b 115 318 196 278 172 318 b 13 221 68 318 22 286 b 253 -12 -4 103 71 -12 z "},"K":{"ha":1032,"x_min":0,"x_max":0,"o":"m 796 972 b 733 933 758 972 738 963 b 738 807 726 882 828 883 l 378 513 l 411 750 b 528 933 429 888 518 864 b 456 972 532 963 510 972 l 235 972 b 153 933 176 972 156 963 b 215 750 142 858 236 906 l 140 222 b 24 39 121 85 33 108 b 96 0 19 11 40 0 l 317 0 b 400 39 374 0 394 11 b 336 222 410 114 315 67 l 360 389 l 590 579 l 711 182 b 656 40 738 94 661 89 b 726 0 650 10 672 0 l 939 0 b 1015 39 990 0 1011 10 b 918 192 1024 100 956 75 l 753 713 l 869 807 b 1046 933 985 901 1038 874 b 974 972 1050 963 1025 972 z "},"L":{"ha":819,"x_min":0,"x_max":0,"o":"m 601 0 b 725 58 688 0 710 17 b 769 222 742 97 758 150 b 747 283 776 258 774 283 b 688 232 726 283 710 267 b 497 89 628 142 594 89 l 425 88 b 326 151 338 88 321 107 l 411 750 b 422 801 413 768 417 783 b 526 933 447 890 519 875 b 456 972 532 963 511 972 l 235 972 b 151 933 176 972 156 963 b 218 801 143 871 217 897 b 214 750 218 783 217 768 l 143 236 b 129 171 139 204 135 188 b 24 39 104 82 32 97 b 96 0 19 10 40 0 z "},"Ĺ":{"ha":819,"x_min":0,"x_max":0,"o":"m 326 1051 b 547 1183 404 1044 542 1104 b 486 1261 551 1224 519 1257 b 368 1193 451 1265 415 1235 b 275 1079 332 1158 276 1103 b 326 1051 274 1061 301 1053 z m 601 0 b 725 58 688 0 710 17 b 769 222 742 97 758 150 b 747 283 776 258 774 283 b 688 232 726 283 710 267 b 497 89 628 142 594 89 l 425 88 b 326 151 338 88 321 107 l 411 750 b 422 801 413 768 417 783 b 526 933 447 890 519 875 b 456 972 532 963 511 972 l 235 972 b 151 933 176 972 156 963 b 218 801 143 871 217 897 b 214 750 218 783 217 768 l 143 236 b 129 171 139 204 135 188 b 24 39 104 82 32 97 b 96 0 19 10 40 0 z "},"Ľ":{"ha":819,"x_min":0,"x_max":0,"o":"m 565 654 b 733 906 613 654 724 836 b 676 981 740 951 717 981 b 596 904 640 981 610 957 b 544 685 590 883 560 744 b 565 654 540 665 549 654 z m 601 0 b 725 58 688 0 710 17 b 769 222 742 97 758 150 b 747 283 776 258 774 283 b 688 232 726 283 710 267 b 497 89 628 142 594 89 l 425 88 b 326 151 338 88 321 107 l 411 750 b 422 801 413 768 417 783 b 526 933 447 890 519 875 b 456 972 532 963 511 972 l 235 972 b 151 933 176 972 156 963 b 218 801 143 871 217 897 b 214 750 218 783 217 768 l 143 236 b 129 171 139 204 135 188 b 24 39 104 82 32 97 b 96 0 19 10 40 0 z "},"Ł":{"ha":819,"x_min":0,"x_max":0,"o":"m 747 283 b 688 232 726 283 710 267 b 497 89 628 142 594 89 l 425 88 b 326 151 338 88 321 107 l 375 499 l 469 553 b 479 606 494 567 493 583 b 426 626 464 633 447 638 l 390 606 l 411 750 b 422 801 413 768 417 783 b 526 933 447 890 519 875 b 456 972 532 963 511 972 l 235 972 b 151 933 176 972 156 963 b 218 801 143 871 217 897 b 214 750 218 783 217 768 l 176 482 l 82 426 b 74 372 60 414 57 399 b 124 353 88 346 104 342 l 163 375 l 143 236 b 129 171 139 204 135 188 b 24 39 104 82 32 97 b 96 0 19 10 40 0 l 601 0 b 725 58 688 0 710 17 b 769 222 742 97 758 150 b 747 283 776 258 774 283 z "},"M":{"ha":1294,"x_min":0,"x_max":0,"o":"m 206 0 b 275 36 250 0 271 7 b 225 174 282 85 208 78 l 319 721 l 499 81 b 550 57 504 61 519 51 b 606 97 578 64 592 74 l 988 729 l 925 206 b 822 40 911 83 832 108 b 894 0 818 10 839 0 l 1107 0 b 1188 40 1163 0 1182 10 b 1117 206 1197 113 1104 79 l 1179 790 b 1276 933 1190 893 1268 876 b 1215 972 1281 963 1264 972 l 1063 972 b 1006 936 1038 972 1019 961 l 636 326 l 463 938 b 414 972 454 961 439 972 l 253 972 b 181 933 204 972 185 963 b 239 790 172 878 257 889 l 125 174 b 22 36 107 78 29 83 b 83 0 18 8 36 0 z "},"N":{"ha":1061,"x_min":0,"x_max":0,"o":"m 174 0 b 243 36 218 0 239 7 b 186 174 250 85 174 78 l 261 725 l 754 133 b 786 43 782 101 792 76 b 819 0 782 8 796 0 l 847 0 b 886 46 869 0 882 13 l 992 799 b 1088 936 1006 894 1081 890 b 1026 972 1092 964 1074 972 l 904 972 b 835 936 860 972 839 965 b 890 799 828 888 903 894 l 831 365 l 357 939 b 294 972 340 960 324 972 l 183 972 b 100 933 128 972 106 963 b 165 746 90 867 185 910 l 85 174 b -10 36 72 78 -3 83 b 51 0 -14 8 4 0 z "},"Ń":{"ha":1061,"x_min":0,"x_max":0,"o":"m 576 1051 b 797 1183 654 1044 792 1104 b 736 1261 801 1224 769 1257 b 618 1193 701 1265 665 1235 b 525 1079 582 1158 526 1103 b 576 1051 524 1061 551 1053 z m 174 0 b 243 36 218 0 239 7 b 186 174 250 85 174 78 l 261 725 l 754 133 b 786 43 782 101 792 76 b 819 0 782 8 796 0 l 847 0 b 886 46 869 0 882 13 l 992 799 b 1088 936 1006 894 1081 890 b 1026 972 1092 964 1074 972 l 904 972 b 835 936 860 972 839 965 b 890 799 828 888 903 894 l 831 365 l 357 939 b 294 972 340 960 324 972 l 183 972 b 100 933 128 972 106 963 b 165 746 90 867 185 910 l 85 174 b -10 36 72 78 -3 83 b 51 0 -14 8 4 0 z "},"Ň":{"ha":1061,"x_min":0,"x_max":0,"o":"m 613 1049 b 746 1131 667 1049 672 1067 b 838 1221 799 1176 836 1206 b 818 1242 839 1233 835 1242 b 631 1175 776 1243 683 1208 b 463 1242 586 1208 504 1243 b 436 1221 444 1242 438 1233 b 499 1133 433 1206 457 1179 b 613 1049 551 1072 560 1049 z m 174 0 b 243 36 218 0 239 7 b 186 174 250 85 174 78 l 261 725 l 754 133 b 786 43 782 101 792 76 b 819 0 782 8 796 0 l 847 0 b 886 46 869 0 882 13 l 992 799 b 1088 936 1006 894 1081 890 b 1026 972 1092 964 1074 972 l 904 972 b 835 936 860 972 839 965 b 890 799 828 888 903 894 l 831 365 l 357 939 b 294 972 340 960 324 972 l 183 972 b 100 933 128 972 106 963 b 165 746 90 867 185 910 l 85 174 b -10 36 72 78 -3 83 b 51 0 -14 8 4 0 z "},"Ñ":{"ha":1061,"x_min":0,"x_max":0,"o":"m 719 1047 b 840 1144 794 1047 833 1097 b 796 1192 849 1207 801 1226 b 742 1150 792 1160 771 1150 b 515 1208 697 1150 594 1208 b 393 1111 440 1208 400 1160 b 439 1065 385 1050 433 1029 b 493 1106 442 1096 464 1106 b 719 1047 571 1106 649 1047 z m 174 0 b 243 36 218 0 239 7 b 186 174 250 85 174 78 l 261 725 l 754 133 b 786 43 782 101 792 76 b 819 0 782 8 796 0 l 847 0 b 886 46 869 0 882 13 l 992 799 b 1088 936 1006 894 1081 890 b 1026 972 1092 964 1074 972 l 904 972 b 835 936 860 972 839 965 b 890 799 828 888 903 894 l 831 365 l 357 939 b 294 972 340 960 324 972 l 183 972 b 100 933 128 972 106 963 b 165 746 90 867 185 910 l 85 174 b -10 36 72 78 -3 83 b 51 0 -14 8 4 0 z "},"O":{"ha":1076,"x_min":0,"x_max":0,"o":"m 497 -10 b 1056 563 817 -14 1056 244 b 633 983 1056 794 901 983 b 68 413 317 983 68 721 b 497 -10 68 163 258 -7 z m 543 96 b 278 426 378 96 278 231 b 600 886 278 653 403 886 b 844 551 761 886 844 746 b 543 96 844 332 742 96 z "},"Ó":{"ha":1076,"x_min":0,"x_max":0,"o":"m 611 1051 b 832 1183 689 1044 826 1104 b 771 1261 836 1224 804 1257 b 653 1193 736 1265 700 1235 b 560 1079 617 1158 561 1103 b 611 1051 558 1061 586 1053 z m 497 -10 b 1056 563 817 -14 1056 244 b 633 983 1056 794 901 983 b 68 413 317 983 68 721 b 497 -10 68 163 258 -7 z m 543 96 b 278 426 378 96 278 231 b 600 886 278 653 403 886 b 844 551 761 886 844 746 b 543 96 844 332 742 96 z "},"Ô":{"ha":1076,"x_min":0,"x_max":0,"o":"m 468 1042 b 656 1110 510 1040 603 1076 b 825 1042 700 1076 782 1040 b 850 1064 842 1043 849 1051 b 785 1154 853 1079 824 1108 b 674 1236 729 1217 728 1236 b 536 1151 621 1236 607 1211 b 447 1064 482 1104 451 1078 b 468 1042 447 1051 451 1043 z m 497 -10 b 1056 563 817 -14 1056 244 b 633 983 1056 794 901 983 b 68 413 317 983 68 721 b 497 -10 68 163 258 -7 z m 543 96 b 278 426 378 96 278 231 b 600 886 278 653 403 886 b 844 551 761 886 844 746 b 543 96 844 332 742 96 z "},"Ö":{"ha":1076,"x_min":0,"x_max":0,"o":"m 533 1064 b 639 1158 589 1064 639 1103 b 561 1235 639 1204 607 1235 b 463 1132 504 1235 463 1183 b 533 1064 463 1090 494 1064 z m 763 1064 b 867 1158 817 1064 867 1103 b 788 1235 867 1204 835 1235 b 689 1132 733 1235 689 1183 b 763 1064 689 1090 721 1064 z m 497 -10 b 1056 563 817 -14 1056 244 b 633 983 1056 794 901 983 b 68 413 317 983 68 721 b 497 -10 68 163 258 -7 z m 543 96 b 278 426 378 96 278 231 b 600 886 278 653 403 886 b 844 551 761 886 844 746 b 543 96 844 332 742 96 z "},"Ò":{"ha":1076,"x_min":0,"x_max":0,"o":"m 682 1051 b 735 1079 708 1053 735 1061 b 640 1193 733 1103 678 1158 b 522 1261 594 1235 558 1265 b 461 1183 489 1257 457 1224 b 682 1051 468 1104 606 1044 z m 497 -10 b 1056 563 817 -14 1056 244 b 633 983 1056 794 901 983 b 68 413 317 983 68 721 b 497 -10 68 163 258 -7 z m 543 96 b 278 426 378 96 278 231 b 600 886 278 653 403 886 b 844 551 761 886 844 746 b 543 96 844 332 742 96 z "},"Ő":{"ha":1076,"x_min":0,"x_max":0,"o":"m 449 1056 b 678 1193 529 1056 678 1124 b 607 1254 678 1221 647 1254 b 494 1188 575 1254 539 1225 b 397 1078 460 1158 397 1101 b 449 1056 397 1063 418 1056 z m 722 1053 b 956 1178 801 1049 953 1108 b 890 1243 957 1207 929 1240 b 774 1182 858 1244 819 1217 b 671 1078 738 1156 672 1101 b 722 1053 669 1063 692 1054 z m 497 -10 b 1056 563 817 -14 1056 244 b 633 983 1056 794 901 983 b 68 413 317 983 68 721 b 497 -10 68 163 258 -7 z m 543 96 b 278 426 378 96 278 231 b 600 886 278 653 403 886 b 844 551 761 886 844 746 b 543 96 844 332 742 96 z "},"Ō":{"ha":1076,"x_min":0,"x_max":0,"o":"m 778 1072 b 847 1121 838 1072 843 1079 b 792 1163 853 1154 846 1163 l 478 1163 b 413 1114 425 1163 419 1154 b 464 1072 408 1079 414 1072 z m 497 -10 b 1056 563 817 -14 1056 244 b 633 983 1056 794 901 983 b 68 413 317 983 68 721 b 497 -10 68 163 258 -7 z m 543 96 b 278 426 378 96 278 231 b 600 886 278 653 403 886 b 844 551 761 886 844 746 b 543 96 844 332 742 96 z "},"Ø":{"ha":1076,"x_min":0,"x_max":0,"o":"m 942 1046 b 922 1103 957 1074 949 1086 b 867 1092 896 1118 879 1113 l 790 958 b 633 983 743 975 690 983 b 68 413 317 983 68 721 b 267 53 68 251 147 124 l 200 -62 b 217 -117 189 -83 192 -101 b 275 -108 242 -132 258 -136 l 347 15 b 497 -10 393 0 444 -10 b 1056 563 817 -14 1056 244 b 869 921 1056 714 990 847 z m 278 426 b 600 886 278 653 403 886 b 726 849 650 886 692 872 l 346 190 b 278 426 301 249 278 331 z m 543 96 b 413 131 493 96 450 108 l 789 782 b 844 551 826 724 844 643 b 543 96 844 332 742 96 z "},"Õ":{"ha":1076,"x_min":0,"x_max":0,"o":"m 754 1047 b 875 1144 829 1047 868 1097 b 831 1192 883 1207 836 1226 b 776 1150 826 1160 806 1150 b 550 1208 732 1150 629 1208 b 428 1111 475 1208 435 1160 b 474 1065 419 1050 468 1029 b 528 1106 476 1096 499 1106 b 754 1047 606 1106 683 1047 z m 497 -10 b 1056 563 817 -14 1056 244 b 633 983 1056 794 901 983 b 68 413 317 983 68 721 b 497 -10 68 163 258 -7 z m 543 96 b 278 426 378 96 278 231 b 600 886 278 653 403 886 b 844 551 761 886 844 746 b 543 96 844 332 742 96 z "},"Œ":{"ha":1572,"x_min":0,"x_max":0,"o":"m 1576 781 b 1560 924 1575 839 1568 886 b 1453 972 1551 965 1533 972 l 971 972 b 922 929 946 972 926 956 l 917 888 b 633 983 846 947 750 983 b 68 413 317 983 68 721 b 497 -10 68 163 258 -7 b 800 76 611 -11 714 21 l 799 63 b 853 0 794 26 818 0 l 1336 0 b 1461 58 1421 0 1444 17 b 1507 226 1478 97 1492 150 b 1486 290 1513 264 1514 285 b 1415 238 1464 296 1444 285 b 1222 89 1357 140 1319 89 l 1131 88 b 1008 153 1018 88 1003 107 l 1051 456 b 1167 524 1058 515 1093 524 b 1356 390 1300 522 1288 375 b 1388 458 1382 396 1392 408 l 1378 617 b 1342 658 1375 642 1368 658 b 1179 611 1293 658 1296 611 b 1083 679 1106 611 1075 621 l 1103 821 b 1235 885 1108 865 1132 885 l 1296 885 b 1485 753 1393 885 1444 840 b 1546 713 1504 717 1519 704 b 1576 781 1572 719 1578 743 z m 543 96 b 278 426 378 96 278 231 b 600 886 278 653 403 886 b 844 551 761 886 844 746 b 543 96 844 332 742 96 z "},"P":{"ha":936,"x_min":0,"x_max":0,"o":"m 318 0 b 400 39 375 0 396 11 b 336 186 408 104 328 76 b 344 268 338 214 340 240 b 376 296 347 293 354 296 l 456 296 b 925 610 733 296 896 401 b 511 972 956 824 807 972 l 233 972 b 150 933 178 972 154 963 b 214 736 139 865 239 915 l 142 224 b 25 39 121 72 35 108 b 97 0 21 11 42 0 z m 458 381 b 367 425 385 381 361 393 l 426 853 b 497 890 431 882 442 890 b 721 588 642 890 749 778 b 458 381 701 449 603 381 z "},"Þ":{"ha":908,"x_min":0,"x_max":0,"o":"m 317 1 b 400 40 375 1 396 11 b 333 172 407 103 331 76 b 368 232 335 207 339 232 l 446 232 b 882 501 704 232 854 311 b 508 808 908 688 782 810 l 419 808 b 506 942 432 900 499 894 b 446 972 508 965 489 972 l 244 972 b 175 940 199 972 176 964 b 221 800 168 897 235 894 l 142 224 b 129 172 139 206 135 189 b 24 40 104 83 32 99 b 96 1 19 11 40 1 z m 442 315 b 356 354 367 315 350 322 l 403 689 b 450 726 407 718 418 726 b 674 497 607 725 693 638 b 442 315 656 376 565 315 z "},"Q":{"ha":1076,"x_min":0,"x_max":0,"o":"m 997 -35 b 889 -74 965 -35 965 -74 b 515 -10 772 -74 639 -42 b 1056 563 825 -4 1056 250 b 633 983 1056 794 901 983 b 68 413 317 983 68 721 b 269 51 68 250 149 122 b 163 65 228 60 190 65 b 64 -12 88 65 64 22 b 90 -53 64 -32 74 -53 b 147 -32 107 -53 111 -32 b 411 -118 190 -32 292 -71 b 824 -239 550 -174 710 -239 b 1026 -89 971 -239 1026 -164 b 997 -35 1026 -50 1011 -35 z m 600 886 b 844 551 761 886 844 746 b 543 96 844 332 742 96 b 278 426 378 96 278 231 b 600 886 278 653 403 886 z "},"R":{"ha":972,"x_min":0,"x_max":0,"o":"m 317 0 b 400 39 374 0 396 10 b 335 171 408 101 335 75 b 338 222 335 188 335 204 l 356 347 b 458 379 361 390 400 388 b 557 321 521 369 542 361 l 615 182 b 569 40 650 99 576 89 b 631 0 565 10 586 0 l 835 0 b 913 39 886 0 908 10 b 818 175 921 99 857 79 l 724 394 b 935 660 844 440 918 533 b 538 972 958 825 836 972 l 235 972 b 151 933 179 972 154 963 b 219 801 143 875 218 892 b 214 736 219 785 218 768 l 142 222 b 131 171 139 204 136 188 b 24 39 104 82 32 97 b 96 0 21 10 40 0 z m 508 457 b 379 522 450 463 374 476 l 426 853 b 517 889 431 882 443 890 b 732 640 669 889 751 778 b 508 457 717 533 642 443 z "},"Ŕ":{"ha":972,"x_min":0,"x_max":0,"o":"m 556 1051 b 776 1183 633 1044 771 1104 b 715 1261 781 1224 749 1257 b 597 1193 681 1265 644 1235 b 504 1079 561 1158 506 1103 b 556 1051 503 1061 531 1053 z m 317 0 b 400 39 374 0 396 10 b 335 171 408 101 335 75 b 338 222 335 188 335 204 l 356 347 b 458 379 361 390 400 388 b 557 321 521 369 542 361 l 615 182 b 569 40 650 99 576 89 b 631 0 565 10 586 0 l 835 0 b 913 39 886 0 908 10 b 818 175 921 99 857 79 l 724 394 b 935 660 844 440 918 533 b 538 972 958 825 836 972 l 235 972 b 151 933 179 972 154 963 b 219 801 143 875 218 892 b 214 736 219 785 218 768 l 142 222 b 131 171 139 204 136 188 b 24 39 104 82 32 97 b 96 0 21 10 40 0 z m 508 457 b 379 522 450 463 374 476 l 426 853 b 517 889 431 882 443 890 b 732 640 669 889 751 778 b 508 457 717 533 642 443 z "},"Ř":{"ha":972,"x_min":0,"x_max":0,"o":"m 592 1049 b 725 1131 646 1049 651 1067 b 817 1221 778 1176 815 1206 b 797 1242 818 1233 814 1242 b 610 1175 756 1243 663 1208 b 442 1242 565 1208 483 1243 b 415 1221 424 1242 417 1233 b 478 1133 413 1206 436 1179 b 592 1049 531 1072 539 1049 z m 317 0 b 400 39 374 0 396 10 b 335 171 408 101 335 75 b 338 222 335 188 335 204 l 356 347 b 458 379 361 390 400 388 b 557 321 521 369 542 361 l 615 182 b 569 40 650 99 576 89 b 631 0 565 10 586 0 l 835 0 b 913 39 886 0 908 10 b 818 175 921 99 857 79 l 724 394 b 935 660 844 440 918 533 b 538 972 958 825 836 972 l 235 972 b 151 933 179 972 154 963 b 219 801 143 875 218 892 b 214 736 219 785 218 768 l 142 222 b 131 171 139 204 136 188 b 24 39 104 82 32 97 b 96 0 21 10 40 0 z m 508 457 b 379 522 450 463 374 476 l 426 853 b 517 889 431 882 443 890 b 732 640 669 889 751 778 b 508 457 717 533 642 443 z "},"S":{"ha":842,"x_min":0,"x_max":0,"o":"m 371 -14 b 778 258 558 -12 756 72 b 524 572 797 414 672 492 b 329 785 390 646 315 696 b 483 897 339 854 399 897 b 690 742 592 897 654 810 b 747 683 711 701 725 683 b 790 744 776 683 788 707 b 788 911 793 806 792 863 b 743 985 782 971 769 985 b 671 965 715 985 706 965 b 507 985 638 965 583 985 b 132 731 311 985 153 882 b 364 413 107 567 224 489 b 565 200 471 353 582 296 b 400 78 554 135 501 76 b 146 267 242 78 176 189 b 93 326 126 310 118 326 b 53 264 67 326 57 303 b 51 61 47 193 50 128 b 93 -14 53 3 68 -14 b 172 13 121 -14 131 13 b 371 -14 208 13 267 -14 z "},"":{"ha":842,"x_min":0,"x_max":0,"o":"m 371 -14 b 778 258 558 -12 756 72 b 524 572 797 414 672 492 b 329 785 390 646 315 696 b 483 897 339 854 399 897 b 690 742 592 897 654 810 b 747 683 711 701 725 683 b 790 744 776 683 788 707 b 788 911 793 806 792 863 b 743 985 782 971 769 985 b 671 965 715 985 706 965 b 507 985 638 965 583 985 b 132 731 311 985 153 882 b 364 413 107 567 224 489 b 565 200 471 353 582 296 b 400 78 554 135 501 76 b 146 267 242 78 176 189 b 93 326 126 310 118 326 b 53 264 67 326 57 303 b 51 61 47 193 50 128 b 93 -14 53 3 68 -14 b 172 13 121 -14 131 13 b 371 -14 208 13 267 -14 z "},"Ś":{"ha":842,"x_min":0,"x_max":0,"o":"m 457 1057 b 678 1189 535 1050 672 1110 b 617 1267 682 1229 650 1263 b 499 1199 582 1271 546 1240 b 406 1085 463 1164 407 1108 b 457 1057 404 1067 432 1058 z m 371 -14 b 778 258 558 -12 756 72 b 524 572 797 414 672 492 b 329 785 390 646 315 696 b 483 897 339 854 399 897 b 690 742 592 897 654 810 b 747 683 711 701 725 683 b 790 744 776 683 788 707 b 788 911 793 806 792 863 b 743 985 782 971 769 985 b 671 965 715 985 706 965 b 507 985 638 965 583 985 b 132 731 311 985 153 882 b 364 413 107 567 224 489 b 565 200 471 353 582 296 b 400 78 554 135 501 76 b 146 267 242 78 176 189 b 93 326 126 310 118 326 b 53 264 67 326 57 303 b 51 61 47 193 50 128 b 93 -14 53 3 68 -14 b 172 13 121 -14 131 13 b 371 -14 208 13 267 -14 z "},"Š":{"ha":842,"x_min":0,"x_max":0,"o":"m 493 1054 b 626 1136 547 1054 553 1072 b 718 1226 679 1182 717 1211 b 699 1247 719 1239 715 1247 b 511 1181 657 1249 564 1214 b 343 1247 467 1214 385 1249 b 317 1226 325 1247 318 1239 b 379 1139 314 1211 338 1185 b 493 1054 432 1078 440 1054 z m 371 -14 b 778 258 558 -12 756 72 b 524 572 797 414 672 492 b 329 785 390 646 315 696 b 483 897 339 854 399 897 b 690 742 592 897 654 810 b 747 683 711 701 725 683 b 790 744 776 683 788 707 b 788 911 793 806 792 863 b 743 985 782 971 769 985 b 671 965 715 985 706 965 b 507 985 638 965 583 985 b 132 731 311 985 153 882 b 364 413 107 567 224 489 b 565 200 471 353 582 296 b 400 78 554 135 501 76 b 146 267 242 78 176 189 b 93 326 126 310 118 326 b 53 264 67 326 57 303 b 51 61 47 193 50 128 b 93 -14 53 3 68 -14 b 172 13 121 -14 131 13 b 371 -14 208 13 267 -14 z "},"Ş":{"ha":842,"x_min":0,"x_max":0,"o":"m 483 897 b 690 742 592 897 654 810 b 747 683 711 701 725 683 b 790 744 776 683 788 707 b 788 911 793 806 792 863 b 743 985 782 971 769 985 b 671 965 715 985 706 965 b 507 985 638 965 583 985 b 132 731 311 985 153 882 b 364 413 107 567 224 489 b 565 200 471 353 582 296 b 400 78 554 135 501 76 b 146 267 242 78 176 189 b 93 326 126 310 118 326 b 53 264 67 326 57 303 b 51 61 47 193 50 128 b 93 -14 53 3 68 -14 b 172 13 121 -14 131 13 b 315 -11 201 13 244 -4 l 271 -93 b 288 -119 264 -107 274 -117 b 379 -189 328 -129 379 -143 b 319 -242 379 -217 358 -242 b 258 -222 294 -242 275 -233 b 228 -250 231 -206 211 -231 b 346 -297 247 -275 286 -297 b 482 -182 422 -297 482 -250 b 351 -71 482 -112 422 -82 l 383 -14 b 778 258 567 -8 756 76 b 524 572 797 414 672 492 b 329 785 390 646 315 696 b 483 897 339 854 399 897 z "},"ẞ":{"ha":1685,"x_min":0,"x_max":0,"o":"m 371 -14 b 778 258 558 -12 756 72 b 524 572 797 414 672 492 b 329 785 390 646 315 696 b 483 897 339 854 399 897 b 690 742 592 897 654 810 b 747 683 711 701 725 683 b 790 744 776 683 788 707 b 788 911 793 806 792 863 b 743 985 782 971 769 985 b 671 965 715 985 706 965 b 507 985 638 965 583 985 b 132 731 311 985 153 882 b 364 413 107 567 224 489 b 565 200 471 353 582 296 b 400 78 554 135 501 76 b 146 267 242 78 176 189 b 93 326 126 310 118 326 b 53 264 67 326 57 303 b 51 61 47 193 50 128 b 93 -14 53 3 68 -14 b 172 13 121 -14 131 13 b 371 -14 208 13 267 -14 z m 1213 -14 b 1619 258 1400 -12 1597 72 b 1365 572 1639 414 1514 492 b 1171 785 1232 646 1157 696 b 1325 897 1181 854 1240 897 b 1532 742 1433 897 1496 810 b 1589 683 1553 701 1567 683 b 1632 744 1618 683 1629 707 b 1629 911 1635 806 1633 863 b 1585 985 1624 971 1611 985 b 1513 965 1557 985 1547 965 b 1349 985 1479 965 1425 985 b 974 731 1153 985 994 882 b 1206 413 949 567 1065 489 b 1407 200 1313 353 1424 296 b 1242 78 1396 135 1343 76 b 988 267 1083 78 1018 189 b 935 326 968 310 960 326 b 894 264 908 326 899 303 b 893 61 889 193 892 128 b 935 -14 894 3 910 -14 b 1014 13 963 -14 972 13 b 1213 -14 1050 13 1108 -14 z "},"T":{"ha":917,"x_min":0,"x_max":0,"o":"m 521 0 b 604 39 579 0 600 11 b 538 171 611 101 539 76 b 542 222 538 189 539 206 l 625 818 b 696 881 631 860 653 881 b 842 736 788 881 807 832 b 888 685 856 701 867 685 b 931 746 917 685 926 710 b 933 915 939 822 939 875 b 825 972 928 956 910 972 l 271 972 b 147 914 186 972 163 956 b 101 746 131 875 115 822 b 128 685 96 708 99 685 b 188 736 149 685 165 701 b 375 879 250 831 283 879 b 428 818 419 879 435 860 l 346 222 b 333 171 343 206 339 189 b 228 39 308 82 236 97 b 300 0 224 11 244 0 z "},"Ŧ":{"ha":917,"x_min":0,"x_max":0,"o":"m 933 915 b 825 972 928 956 910 972 l 271 972 b 147 914 186 972 163 956 b 101 746 131 875 115 822 b 128 685 96 708 99 685 b 188 736 149 685 165 701 b 375 879 250 831 283 879 b 428 818 419 879 435 860 l 388 529 l 310 529 b 265 492 282 529 268 515 b 296 440 260 458 261 440 l 376 440 l 346 222 b 333 171 343 206 339 189 b 228 39 308 82 236 97 b 300 0 224 11 244 0 l 521 0 b 604 39 579 0 600 11 b 538 171 611 101 539 76 b 542 222 538 189 539 206 l 572 440 l 657 440 b 703 492 690 440 697 456 b 669 529 706 515 697 529 l 585 529 l 625 818 b 696 881 631 860 653 881 b 842 736 788 881 807 832 b 888 685 856 701 867 685 b 931 746 917 685 926 710 b 933 915 939 822 939 875 z "},"Ť":{"ha":917,"x_min":0,"x_max":0,"o":"m 576 1049 b 710 1131 631 1049 636 1067 b 801 1221 763 1176 800 1206 b 782 1242 803 1233 799 1242 b 594 1175 740 1243 647 1208 b 426 1242 550 1208 468 1243 b 400 1221 408 1242 401 1233 b 463 1133 397 1206 421 1179 b 576 1049 515 1072 524 1049 z m 521 0 b 604 39 579 0 600 11 b 538 171 611 101 539 76 b 542 222 538 189 539 206 l 625 818 b 696 881 631 860 653 881 b 842 736 788 881 807 832 b 888 685 856 701 867 685 b 931 746 917 685 926 710 b 933 915 939 822 939 875 b 825 972 928 956 910 972 l 271 972 b 147 914 186 972 163 956 b 101 746 131 875 115 822 b 128 685 96 708 99 685 b 188 736 149 685 165 701 b 375 879 250 831 283 879 b 428 818 419 879 435 860 l 346 222 b 333 171 343 206 339 189 b 228 39 308 82 236 97 b 300 0 224 11 244 0 z "},"U":{"ha":1046,"x_min":0,"x_max":0,"o":"m 486 -14 b 939 435 749 -14 894 128 l 992 799 b 1086 935 1004 893 1079 889 b 1025 971 1090 964 1072 971 l 903 971 b 833 936 858 971 838 965 b 889 799 826 888 903 893 l 835 403 b 549 96 808 214 704 96 b 349 388 394 96 322 197 l 399 750 b 411 801 401 767 406 783 b 515 932 436 890 507 875 b 444 971 521 961 500 971 l 224 971 b 140 932 165 971 144 961 b 206 801 132 869 206 896 b 203 750 207 783 206 767 l 158 425 b 486 -14 117 132 229 -14 z "},"Ú":{"ha":1046,"x_min":0,"x_max":0,"o":"m 653 1051 b 874 1183 731 1044 868 1104 b 813 1261 878 1224 846 1257 b 694 1193 778 1265 742 1235 b 601 1079 658 1158 603 1103 b 653 1051 600 1061 628 1053 z m 486 -14 b 939 435 749 -14 894 128 l 992 799 b 1086 935 1004 893 1079 889 b 1025 971 1090 964 1072 971 l 903 971 b 833 936 858 971 838 965 b 889 799 826 888 903 893 l 835 403 b 549 96 808 214 704 96 b 349 388 394 96 322 197 l 399 750 b 411 801 401 767 406 783 b 515 932 436 890 507 875 b 444 971 521 961 500 971 l 224 971 b 140 932 165 971 144 961 b 206 801 132 869 206 896 b 203 750 207 783 206 767 l 158 425 b 486 -14 117 132 229 -14 z "},"Û":{"ha":1046,"x_min":0,"x_max":0,"o":"m 510 1042 b 697 1110 551 1040 644 1076 b 867 1042 742 1076 824 1040 b 892 1064 883 1043 890 1051 b 826 1154 894 1079 865 1108 b 715 1236 771 1217 769 1236 b 578 1151 663 1236 649 1211 b 489 1064 524 1104 493 1078 b 510 1042 489 1051 493 1043 z m 486 -14 b 939 435 749 -14 894 128 l 992 799 b 1086 935 1004 893 1079 889 b 1025 971 1090 964 1072 971 l 903 971 b 833 936 858 971 838 965 b 889 799 826 888 903 893 l 835 403 b 549 96 808 214 704 96 b 349 388 394 96 322 197 l 399 750 b 411 801 401 767 406 783 b 515 932 436 890 507 875 b 444 971 521 961 500 971 l 224 971 b 140 932 165 971 144 961 b 206 801 132 869 206 896 b 203 750 207 783 206 767 l 158 425 b 486 -14 117 132 229 -14 z "},"Ü":{"ha":1046,"x_min":0,"x_max":0,"o":"m 575 1064 b 681 1158 631 1064 681 1103 b 603 1235 681 1204 649 1235 b 504 1132 546 1235 504 1183 b 575 1064 504 1090 536 1064 z m 804 1064 b 908 1158 858 1064 908 1103 b 829 1235 908 1204 876 1235 b 731 1132 775 1235 731 1183 b 804 1064 731 1090 763 1064 z m 486 -14 b 939 435 749 -14 894 128 l 992 799 b 1086 935 1004 893 1079 889 b 1025 971 1090 964 1072 971 l 903 971 b 833 936 858 971 838 965 b 889 799 826 888 903 893 l 835 403 b 549 96 808 214 704 96 b 349 388 394 96 322 197 l 399 750 b 411 801 401 767 406 783 b 515 932 436 890 507 875 b 444 971 521 961 500 971 l 224 971 b 140 932 165 971 144 961 b 206 801 132 869 206 896 b 203 750 207 783 206 767 l 158 425 b 486 -14 117 132 229 -14 z "},"Ù":{"ha":1046,"x_min":0,"x_max":0,"o":"m 724 1051 b 776 1079 750 1053 776 1061 b 682 1193 775 1103 719 1158 b 564 1261 636 1235 600 1265 b 503 1183 531 1257 499 1224 b 724 1051 510 1104 647 1044 z m 486 -14 b 939 435 749 -14 894 128 l 992 799 b 1086 935 1004 893 1079 889 b 1025 971 1090 964 1072 971 l 903 971 b 833 936 858 971 838 965 b 889 799 826 888 903 893 l 835 403 b 549 96 808 214 704 96 b 349 388 394 96 322 197 l 399 750 b 411 801 401 767 406 783 b 515 932 436 890 507 875 b 444 971 521 961 500 971 l 224 971 b 140 932 165 971 144 961 b 206 801 132 869 206 896 b 203 750 207 783 206 767 l 158 425 b 486 -14 117 132 229 -14 z "},"Ű":{"ha":1046,"x_min":0,"x_max":0,"o":"m 490 1056 b 719 1193 571 1056 719 1124 b 649 1254 719 1221 689 1254 b 536 1188 617 1254 581 1225 b 439 1078 501 1158 439 1101 b 490 1056 439 1063 460 1056 z m 764 1053 b 997 1178 843 1049 994 1108 b 932 1243 999 1207 971 1240 b 815 1182 900 1244 861 1217 b 713 1078 779 1156 714 1101 b 764 1053 711 1063 733 1054 z m 486 -14 b 939 435 749 -14 894 128 l 992 799 b 1086 935 1004 893 1079 889 b 1025 971 1090 964 1072 971 l 903 971 b 833 936 858 971 838 965 b 889 799 826 888 903 893 l 835 403 b 549 96 808 214 704 96 b 349 388 394 96 322 197 l 399 750 b 411 801 401 767 406 783 b 515 932 436 890 507 875 b 444 971 521 961 500 971 l 224 971 b 140 932 165 971 144 961 b 206 801 132 869 206 896 b 203 750 207 783 206 767 l 158 425 b 486 -14 117 132 229 -14 z "},"Ū":{"ha":1046,"x_min":0,"x_max":0,"o":"m 819 1072 b 889 1121 879 1072 885 1079 b 833 1163 894 1154 888 1163 l 519 1163 b 454 1114 467 1163 461 1154 b 506 1072 450 1079 456 1072 z m 486 -14 b 939 435 749 -14 894 128 l 992 799 b 1086 935 1004 893 1079 889 b 1025 971 1090 964 1072 971 l 903 971 b 833 936 858 971 838 965 b 889 799 826 888 903 893 l 835 403 b 549 96 808 214 704 96 b 349 388 394 96 322 197 l 399 750 b 411 801 401 767 406 783 b 515 932 436 890 507 875 b 444 971 521 961 500 971 l 224 971 b 140 932 165 971 144 961 b 206 801 132 869 206 896 b 203 750 207 783 206 767 l 158 425 b 486 -14 117 132 229 -14 z "},"Ų":{"ha":1046,"x_min":0,"x_max":0,"o":"m 903 971 b 833 936 858 971 838 965 b 889 799 826 888 903 893 l 835 403 b 549 96 808 214 704 96 b 349 388 394 96 322 197 l 399 750 b 411 801 401 767 406 783 b 515 932 436 890 507 875 b 444 971 521 961 500 971 l 224 971 b 140 932 165 971 144 961 b 206 801 132 869 206 896 b 203 750 207 783 206 767 l 158 425 b 486 -14 117 132 229 -14 b 542 -11 506 -14 524 -12 b 460 -143 488 -50 460 -96 b 599 -261 460 -214 518 -261 b 719 -212 644 -261 692 -242 b 696 -176 740 -192 731 -160 b 644 -189 678 -185 660 -189 b 574 -119 597 -189 574 -158 b 633 4 574 -87 589 -46 b 939 435 804 51 904 190 l 992 799 b 1086 935 1004 893 1079 889 b 1025 971 1090 964 1072 971 z "},"Ů":{"ha":1046,"x_min":0,"x_max":0,"o":"m 682 1031 b 853 1174 765 1031 840 1086 b 726 1313 865 1258 808 1313 b 556 1169 642 1313 567 1256 b 682 1031 543 1086 599 1031 z m 699 1106 b 640 1172 663 1106 640 1133 b 711 1240 643 1213 671 1240 b 768 1176 747 1240 768 1214 b 699 1106 765 1138 739 1106 z m 486 -14 b 939 435 749 -14 894 128 l 992 799 b 1086 935 1004 893 1079 889 b 1025 971 1090 964 1072 971 l 903 971 b 833 936 858 971 838 965 b 889 799 826 888 903 893 l 835 403 b 549 96 808 214 704 96 b 349 388 394 96 322 197 l 399 750 b 411 801 401 767 406 783 b 515 932 436 890 507 875 b 444 971 521 961 500 971 l 224 971 b 140 932 165 971 144 961 b 206 801 132 869 206 896 b 203 750 207 783 206 767 l 158 425 b 486 -14 117 132 229 -14 z "},"V":{"ha":1013,"x_min":0,"x_max":0,"o":"m 468 -3 b 547 44 524 4 533 17 l 946 794 b 1082 936 1000 899 1074 885 b 1014 971 1085 964 1058 971 l 890 971 b 822 935 854 971 825 965 b 839 794 814 885 894 903 l 539 214 l 394 789 b 464 933 367 899 456 879 b 403 972 467 963 446 972 l 179 972 b 99 932 124 972 103 963 b 182 790 92 881 153 903 l 381 24 b 468 -3 388 -7 401 -11 z "},"W":{"ha":1496,"x_min":0,"x_max":0,"o":"m 429 -3 b 513 42 486 6 503 22 l 781 603 l 897 19 b 986 -3 901 -7 924 -14 b 1069 43 1043 6 1060 24 l 1432 794 b 1565 936 1482 900 1557 885 b 1497 972 1568 965 1542 972 l 1374 972 b 1306 936 1338 972 1308 965 b 1325 794 1297 886 1376 904 l 1054 224 l 954 792 b 1017 936 936 894 1008 885 b 957 972 1019 964 997 972 l 735 972 b 665 935 693 972 668 965 b 744 792 657 885 724 900 l 753 739 l 499 217 l 390 792 b 451 936 369 894 443 885 b 392 972 454 964 432 972 l 169 972 b 100 935 128 972 103 965 b 182 792 93 885 158 900 l 343 19 b 429 -3 350 -7 371 -12 z "},"Ẃ":{"ha":1496,"x_min":0,"x_max":0,"o":"m 811 1051 b 1032 1183 889 1044 1026 1104 b 971 1261 1036 1224 1004 1257 b 853 1193 936 1265 900 1235 b 760 1079 817 1158 761 1103 b 811 1051 758 1061 786 1053 z m 429 -3 b 513 42 486 6 503 22 l 781 603 l 897 19 b 986 -3 901 -7 924 -14 b 1069 43 1043 6 1060 24 l 1432 794 b 1565 936 1482 900 1557 885 b 1497 972 1568 965 1542 972 l 1374 972 b 1306 936 1338 972 1308 965 b 1325 794 1297 886 1376 904 l 1054 224 l 954 792 b 1017 936 936 894 1008 885 b 957 972 1019 964 997 972 l 735 972 b 665 935 693 972 668 965 b 744 792 657 885 724 900 l 753 739 l 499 217 l 390 792 b 451 936 369 894 443 885 b 392 972 454 964 432 972 l 169 972 b 100 935 128 972 103 965 b 182 792 93 885 158 900 l 343 19 b 429 -3 350 -7 371 -12 z "},"Ŵ":{"ha":1496,"x_min":0,"x_max":0,"o":"m 667 1042 b 854 1110 708 1040 801 1076 b 1024 1042 899 1076 981 1040 b 1049 1064 1040 1043 1047 1051 b 983 1154 1051 1079 1022 1108 b 872 1236 928 1217 926 1236 b 735 1151 819 1236 806 1211 b 646 1064 681 1104 650 1078 b 667 1042 646 1051 650 1043 z m 429 -3 b 513 42 486 6 503 22 l 781 603 l 897 19 b 986 -3 901 -7 924 -14 b 1069 43 1043 6 1060 24 l 1432 794 b 1565 936 1482 900 1557 885 b 1497 972 1568 965 1542 972 l 1374 972 b 1306 936 1338 972 1308 965 b 1325 794 1297 886 1376 904 l 1054 224 l 954 792 b 1017 936 936 894 1008 885 b 957 972 1019 964 997 972 l 735 972 b 665 935 693 972 668 965 b 744 792 657 885 724 900 l 753 739 l 499 217 l 390 792 b 451 936 369 894 443 885 b 392 972 454 964 432 972 l 169 972 b 100 935 128 972 103 965 b 182 792 93 885 158 900 l 343 19 b 429 -3 350 -7 371 -12 z "},"Ẅ":{"ha":1496,"x_min":0,"x_max":0,"o":"m 733 1064 b 839 1158 789 1064 839 1103 b 761 1235 839 1204 807 1235 b 663 1132 704 1235 663 1183 b 733 1064 663 1090 694 1064 z m 963 1064 b 1067 1158 1017 1064 1067 1103 b 988 1235 1067 1204 1035 1235 b 889 1132 933 1235 889 1183 b 963 1064 889 1090 921 1064 z m 429 -3 b 513 42 486 6 503 22 l 781 603 l 897 19 b 986 -3 901 -7 924 -14 b 1069 43 1043 6 1060 24 l 1432 794 b 1565 936 1482 900 1557 885 b 1497 972 1568 965 1542 972 l 1374 972 b 1306 936 1338 972 1308 965 b 1325 794 1297 886 1376 904 l 1054 224 l 954 792 b 1017 936 936 894 1008 885 b 957 972 1019 964 997 972 l 735 972 b 665 935 693 972 668 965 b 744 792 657 885 724 900 l 753 739 l 499 217 l 390 792 b 451 936 369 894 443 885 b 392 972 454 964 432 972 l 169 972 b 100 935 128 972 103 965 b 182 792 93 885 158 900 l 343 19 b 429 -3 350 -7 371 -12 z "},"Ẁ":{"ha":1496,"x_min":0,"x_max":0,"o":"m 882 1051 b 935 1079 908 1053 935 1061 b 840 1193 933 1103 878 1158 b 722 1261 794 1235 758 1265 b 661 1183 689 1257 657 1224 b 882 1051 668 1104 806 1044 z m 429 -3 b 513 42 486 6 503 22 l 781 603 l 897 19 b 986 -3 901 -7 924 -14 b 1069 43 1043 6 1060 24 l 1432 794 b 1565 936 1482 900 1557 885 b 1497 972 1568 965 1542 972 l 1374 972 b 1306 936 1338 972 1308 965 b 1325 794 1297 886 1376 904 l 1054 224 l 954 792 b 1017 936 936 894 1008 885 b 957 972 1019 964 997 972 l 735 972 b 665 935 693 972 668 965 b 744 792 657 885 724 900 l 753 739 l 499 217 l 390 792 b 451 936 369 894 443 885 b 392 972 454 964 432 972 l 169 972 b 100 935 128 972 103 965 b 182 792 93 885 158 900 l 343 19 b 429 -3 350 -7 371 -12 z "},"X":{"ha":1051,"x_min":0,"x_max":0,"o":"m 197 0 b 265 38 233 0 261 7 b 275 164 272 88 193 67 l 479 403 l 621 168 b 586 38 678 75 594 88 b 646 0 583 8 606 0 l 903 0 b 976 38 946 0 972 7 b 863 168 983 88 922 71 l 650 519 l 900 808 b 1067 936 981 901 1060 885 b 1000 972 1071 965 1043 972 l 864 972 b 796 936 828 972 799 965 b 785 808 789 886 868 906 l 603 599 l 478 804 b 514 936 421 899 506 885 b 454 972 517 964 494 972 l 196 972 b 124 936 154 972 126 965 b 238 804 115 885 178 903 l 432 481 l 160 164 b -7 36 81 71 1 88 b 61 0 -10 8 18 0 z "},"Y":{"ha":972,"x_min":0,"x_max":0,"o":"m 824 971 b 756 935 789 971 760 965 b 753 801 749 885 829 904 l 557 538 l 422 801 b 463 936 372 899 454 885 b 403 972 465 964 443 972 l 144 972 b 72 936 103 972 76 965 b 183 803 65 885 129 903 l 383 431 l 354 222 b 343 171 351 204 349 188 b 238 39 318 82 246 97 b 310 0 233 10 254 0 l 531 0 b 613 39 588 0 608 10 b 547 171 621 101 547 75 b 551 222 547 188 549 204 l 581 431 l 867 803 b 1028 936 942 901 1019 885 b 960 971 1032 964 1004 971 z "},"Ý":{"ha":972,"x_min":0,"x_max":0,"o":"m 592 1051 b 813 1183 669 1044 807 1104 b 751 1261 817 1224 785 1257 b 633 1193 717 1265 681 1235 b 540 1079 597 1158 542 1103 b 592 1051 539 1061 567 1053 z m 824 971 b 756 935 789 971 760 965 b 753 801 749 885 829 904 l 557 538 l 422 801 b 463 936 372 899 454 885 b 403 972 465 964 443 972 l 144 972 b 72 936 103 972 76 965 b 183 803 65 885 129 903 l 383 431 l 354 222 b 343 171 351 204 349 188 b 238 39 318 82 246 97 b 310 0 233 10 254 0 l 531 0 b 613 39 588 0 608 10 b 547 171 621 101 547 75 b 551 222 547 188 549 204 l 581 431 l 867 803 b 1028 936 942 901 1019 885 b 960 971 1032 964 1004 971 z "},"Ŷ":{"ha":972,"x_min":0,"x_max":0,"o":"m 449 1042 b 636 1110 490 1040 583 1076 b 806 1042 681 1076 763 1040 b 831 1064 822 1043 829 1051 b 765 1154 833 1079 804 1108 b 654 1236 710 1217 708 1236 b 517 1151 601 1236 588 1211 b 428 1064 463 1104 432 1078 b 449 1042 428 1051 432 1043 z m 824 971 b 756 935 789 971 760 965 b 753 801 749 885 829 904 l 557 538 l 422 801 b 463 936 372 899 454 885 b 403 972 465 964 443 972 l 144 972 b 72 936 103 972 76 965 b 183 803 65 885 129 903 l 383 431 l 354 222 b 343 171 351 204 349 188 b 238 39 318 82 246 97 b 310 0 233 10 254 0 l 531 0 b 613 39 588 0 608 10 b 547 171 621 101 547 75 b 551 222 547 188 549 204 l 581 431 l 867 803 b 1028 936 942 901 1019 885 b 960 971 1032 964 1004 971 z "},"Ÿ":{"ha":972,"x_min":0,"x_max":0,"o":"m 514 1064 b 619 1158 569 1064 619 1103 b 542 1235 619 1204 588 1235 b 443 1132 485 1235 443 1183 b 514 1064 443 1090 475 1064 z m 743 1064 b 847 1158 797 1064 847 1103 b 768 1235 847 1204 815 1235 b 669 1132 714 1235 669 1183 b 743 1064 669 1090 701 1064 z m 824 971 b 756 935 789 971 760 965 b 753 801 749 885 829 904 l 557 538 l 422 801 b 463 936 372 899 454 885 b 403 972 465 964 443 972 l 144 972 b 72 936 103 972 76 965 b 183 803 65 885 129 903 l 383 431 l 354 222 b 343 171 351 204 349 188 b 238 39 318 82 246 97 b 310 0 233 10 254 0 l 531 0 b 613 39 588 0 608 10 b 547 171 621 101 547 75 b 551 222 547 188 549 204 l 581 431 l 867 803 b 1028 936 942 901 1019 885 b 960 971 1032 964 1004 971 z "},"Ỳ":{"ha":972,"x_min":0,"x_max":0,"o":"m 663 1051 b 715 1079 689 1053 715 1061 b 621 1193 714 1103 658 1158 b 503 1261 575 1235 539 1265 b 442 1183 469 1257 438 1224 b 663 1051 449 1104 586 1044 z m 824 971 b 756 935 789 971 760 965 b 753 801 749 885 829 904 l 557 538 l 422 801 b 463 936 372 899 454 885 b 403 972 465 964 443 972 l 144 972 b 72 936 103 972 76 965 b 183 803 65 885 129 903 l 383 431 l 354 222 b 343 171 351 204 349 188 b 238 39 318 82 246 97 b 310 0 233 10 254 0 l 531 0 b 613 39 588 0 608 10 b 547 171 621 101 547 75 b 551 222 547 188 549 204 l 581 431 l 867 803 b 1028 936 942 901 1019 885 b 960 971 1032 964 1004 971 z "},"Z":{"ha":876,"x_min":0,"x_max":0,"o":"m 646 0 b 772 58 736 0 757 17 b 815 213 789 99 806 153 b 797 274 822 250 822 274 b 736 222 778 274 758 258 b 543 89 679 138 636 89 l 275 88 l 907 913 b 885 972 933 947 925 972 l 310 972 b 185 914 221 972 200 956 b 142 760 168 874 151 819 b 160 699 135 722 133 699 b 219 750 178 699 197 714 b 414 885 276 835 321 885 l 660 885 l 25 61 b 49 0 -1 26 7 0 z "},"Ź":{"ha":876,"x_min":0,"x_max":0,"o":"m 501 1051 b 722 1183 579 1044 717 1104 b 661 1261 726 1224 694 1257 b 543 1193 626 1265 590 1235 b 450 1079 507 1158 451 1103 b 501 1051 449 1061 476 1053 z m 646 0 b 772 58 736 0 757 17 b 815 213 789 99 806 153 b 797 274 822 250 822 274 b 736 222 778 274 758 258 b 543 89 679 138 636 89 l 275 88 l 907 913 b 885 972 933 947 925 972 l 310 972 b 185 914 221 972 200 956 b 142 760 168 874 151 819 b 160 699 135 722 133 699 b 219 750 178 699 197 714 b 414 885 276 835 321 885 l 660 885 l 25 61 b 49 0 -1 26 7 0 z "},"Ž":{"ha":876,"x_min":0,"x_max":0,"o":"m 538 1049 b 671 1131 592 1049 597 1067 b 763 1221 724 1176 761 1206 b 743 1242 764 1233 760 1242 b 556 1175 701 1243 608 1208 b 388 1242 511 1208 429 1243 b 361 1221 369 1242 363 1233 b 424 1133 358 1206 382 1179 b 538 1049 476 1072 485 1049 z m 646 0 b 772 58 736 0 757 17 b 815 213 789 99 806 153 b 797 274 822 250 822 274 b 736 222 778 274 758 258 b 543 89 679 138 636 89 l 275 88 l 907 913 b 885 972 933 947 925 972 l 310 972 b 185 914 221 972 200 956 b 142 760 168 874 151 819 b 160 699 135 722 133 699 b 219 750 178 699 197 714 b 414 885 276 835 321 885 l 660 885 l 25 61 b 49 0 -1 26 7 0 z "},"Ż":{"ha":876,"x_min":0,"x_max":0,"o":"m 499 1063 b 649 1192 571 1061 646 1124 b 561 1279 649 1239 611 1278 b 415 1147 490 1282 417 1211 b 499 1063 414 1101 446 1064 z m 646 0 b 772 58 736 0 757 17 b 815 213 789 99 806 153 b 797 274 822 250 822 274 b 736 222 778 274 758 258 b 543 89 679 138 636 89 l 275 88 l 907 913 b 885 972 933 947 925 972 l 310 972 b 185 914 221 972 200 956 b 142 760 168 874 151 819 b 160 699 135 722 133 699 b 219 750 178 699 197 714 b 414 885 276 835 321 885 l 660 885 l 25 61 b 49 0 -1 26 7 0 z "},"Ģ":{"ha":1051,"x_min":0,"x_max":0,"o":"m 493 -14 b 931 193 722 -14 918 96 l 946 313 b 1022 469 963 439 1015 415 b 964 508 1025 499 1006 508 l 713 507 b 631 467 656 507 635 496 b 750 311 622 401 769 440 l 732 185 b 553 89 722 119 624 89 b 285 557 343 89 246 288 b 607 894 311 740 429 894 b 857 718 753 893 813 806 b 917 657 878 675 890 656 b 954 718 944 658 951 681 b 951 911 958 803 956 863 b 904 985 947 971 929 985 b 832 963 876 985 867 963 b 644 986 799 963 749 986 b 71 467 357 986 111 754 b 493 -14 32 182 200 -14 z m 442 -394 b 610 -167 500 -394 610 -289 b 521 -68 610 -104 571 -68 b 426 -162 476 -68 426 -101 b 476 -282 426 -226 476 -239 b 422 -378 476 -329 422 -353 b 442 -394 422 -386 431 -394 z "},"Ķ":{"ha":1032,"x_min":0,"x_max":0,"o":"m 796 972 b 733 933 758 972 738 963 b 738 807 726 882 828 883 l 378 513 l 411 750 b 528 933 429 888 518 864 b 456 972 532 963 510 972 l 235 972 b 153 933 176 972 156 963 b 215 750 142 858 236 906 l 140 222 b 24 39 121 85 33 108 b 96 0 19 11 40 0 l 317 0 b 400 39 374 0 394 11 b 336 222 410 114 315 67 l 360 389 l 590 579 l 711 182 b 656 40 738 94 661 89 b 726 0 650 10 672 0 l 939 0 b 1015 39 990 0 1011 10 b 918 192 1024 100 956 75 l 753 713 l 869 807 b 1046 933 985 901 1038 874 b 974 972 1050 963 1025 972 z m 535 -68 b 440 -162 490 -68 440 -101 b 490 -282 440 -226 490 -239 b 436 -378 490 -329 436 -353 b 456 -394 436 -386 444 -394 b 624 -167 514 -394 624 -289 b 535 -68 624 -104 585 -68 z "},"Ļ":{"ha":819,"x_min":0,"x_max":0,"o":"m 601 0 b 725 58 688 0 710 17 b 769 222 742 97 758 150 b 747 283 776 258 774 283 b 688 232 726 283 710 267 b 497 89 628 142 594 89 l 425 88 b 326 151 338 88 321 107 l 411 750 b 422 801 413 768 417 783 b 526 933 447 890 519 875 b 456 972 532 963 511 972 l 235 972 b 151 933 176 972 156 963 b 218 801 143 871 217 897 b 214 750 218 783 217 768 l 143 236 b 129 171 139 204 135 188 b 24 39 104 82 32 97 b 96 0 19 10 40 0 z m 331 -394 b 499 -167 389 -394 499 -289 b 410 -68 499 -104 460 -68 b 315 -162 365 -68 315 -101 b 365 -282 315 -226 365 -239 b 311 -378 365 -329 311 -353 b 331 -394 311 -386 319 -394 z "},"Ņ":{"ha":1061,"x_min":0,"x_max":0,"o":"m 174 0 b 243 36 218 0 239 7 b 186 174 250 85 174 78 l 261 725 l 754 133 b 786 43 782 101 792 76 b 819 0 782 8 796 0 l 847 0 b 886 46 869 0 882 13 l 992 799 b 1088 936 1006 894 1081 890 b 1026 972 1092 964 1074 972 l 904 972 b 835 936 860 972 839 965 b 890 799 828 888 903 894 l 831 365 l 357 939 b 294 972 340 960 324 972 l 183 972 b 100 933 128 972 106 963 b 165 746 90 867 185 910 l 85 174 b -10 36 72 78 -3 83 b 51 0 -14 8 4 0 z m 403 -394 b 571 -167 461 -394 571 -289 b 482 -68 571 -104 532 -68 b 388 -162 438 -68 388 -101 b 438 -282 388 -226 438 -239 b 383 -378 438 -329 383 -353 b 403 -394 383 -386 392 -394 z "},"Ŗ":{"ha":972,"x_min":0,"x_max":0,"o":"m 317 0 b 400 39 374 0 396 10 b 335 171 408 101 335 75 b 338 222 335 188 335 204 l 356 347 b 458 379 361 390 400 388 b 557 321 521 369 542 361 l 615 182 b 569 40 650 99 576 89 b 631 0 565 10 586 0 l 835 0 b 913 39 886 0 908 10 b 818 175 921 99 857 79 l 724 394 b 935 660 844 440 918 533 b 538 972 958 825 836 972 l 235 972 b 151 933 179 972 154 963 b 219 801 143 875 218 892 b 214 736 219 785 218 768 l 142 222 b 131 171 139 204 136 188 b 24 39 104 82 32 97 b 96 0 21 10 40 0 z m 508 457 b 379 522 450 463 374 476 l 426 853 b 517 889 431 882 443 890 b 732 640 669 889 751 778 b 508 457 717 533 642 443 z m 381 -394 b 549 -167 439 -394 549 -289 b 460 -68 549 -104 510 -68 b 365 -162 415 -68 365 -101 b 415 -282 365 -226 415 -239 b 361 -378 415 -329 361 -353 b 381 -394 361 -386 369 -394 z "},"Ţ":{"ha":917,"x_min":0,"x_max":0,"o":"m 933 915 b 825 972 928 956 910 972 l 271 972 b 147 914 186 972 163 956 b 101 746 131 875 115 822 b 128 685 96 708 99 685 b 188 736 149 685 165 701 b 375 879 250 831 283 879 b 428 818 419 879 435 860 l 346 222 b 333 171 343 206 339 189 b 228 39 308 82 236 97 b 300 0 224 11 244 0 l 396 0 l 346 -93 b 363 -119 339 -107 349 -117 b 454 -189 403 -129 454 -143 b 394 -242 454 -217 433 -242 b 333 -222 369 -242 350 -233 b 303 -250 306 -206 286 -231 b 421 -297 322 -275 361 -297 b 557 -182 497 -297 557 -250 b 426 -71 557 -112 497 -82 l 465 0 l 521 0 b 604 39 579 0 600 11 b 538 171 611 101 539 76 b 542 222 538 189 539 206 l 625 818 b 696 881 631 860 653 881 b 842 736 788 881 807 832 b 888 685 856 701 867 685 b 931 746 917 685 926 710 b 933 915 939 822 939 875 z "},"Ș":{"ha":842,"x_min":0,"x_max":0,"o":"m 371 -14 b 778 258 558 -12 756 72 b 524 572 797 414 672 492 b 329 785 390 646 315 696 b 483 897 339 854 399 897 b 690 742 592 897 654 810 b 747 683 711 701 725 683 b 790 744 776 683 788 707 b 788 911 793 806 792 863 b 743 985 782 971 769 985 b 671 965 715 985 706 965 b 507 985 638 965 583 985 b 132 731 311 985 153 882 b 364 413 107 567 224 489 b 565 200 471 353 582 296 b 400 78 554 135 501 76 b 146 267 242 78 176 189 b 93 326 126 310 118 326 b 53 264 67 326 57 303 b 51 61 47 193 50 128 b 93 -14 53 3 68 -14 b 172 13 121 -14 131 13 b 371 -14 208 13 267 -14 z m 253 -394 b 421 -167 311 -394 421 -289 b 332 -68 421 -104 382 -68 b 238 -162 288 -68 238 -101 b 288 -282 238 -226 288 -239 b 233 -378 288 -329 233 -353 b 253 -394 233 -386 242 -394 z "},"Ț":{"ha":917,"x_min":0,"x_max":0,"o":"m 521 0 b 604 39 579 0 600 11 b 538 171 611 101 539 76 b 542 222 538 189 539 206 l 625 818 b 696 881 631 860 653 881 b 842 736 788 881 807 832 b 888 685 856 701 867 685 b 931 746 917 685 926 710 b 933 915 939 822 939 875 b 825 972 928 956 910 972 l 271 972 b 147 914 186 972 163 956 b 101 746 131 875 115 822 b 128 685 96 708 99 685 b 188 736 149 685 165 701 b 375 879 250 831 283 879 b 428 818 419 879 435 860 l 346 222 b 333 171 343 206 339 189 b 228 39 308 82 236 97 b 300 0 224 11 244 0 z m 361 -394 b 529 -167 419 -394 529 -289 b 440 -68 529 -104 490 -68 b 346 -162 396 -68 346 -101 b 396 -282 346 -226 396 -239 b 342 -378 396 -329 342 -353 b 361 -394 342 -386 350 -394 z "},"a":{"ha":875,"x_min":0,"x_max":0,"o":"m 797 157 b 735 118 776 157 760 118 b 708 181 713 118 706 136 l 742 625 b 700 681 744 657 733 681 b 579 651 667 681 618 651 b 424 679 546 651 500 679 b 47 238 222 679 47 481 b 278 -14 47 82 147 -14 b 517 115 369 -14 458 35 b 643 -12 521 17 575 -12 b 818 131 749 -12 815 72 b 797 157 818 150 806 157 z m 354 107 b 244 282 292 107 243 158 b 426 599 246 417 310 599 b 546 454 493 599 551 549 l 543 410 b 354 107 533 260 454 107 z "},"á":{"ha":875,"x_min":0,"x_max":0,"o":"m 443 769 b 694 869 511 744 669 797 b 633 969 713 921 688 969 b 526 911 600 969 565 943 b 425 800 478 868 433 822 b 443 769 421 788 425 776 z m 797 157 b 735 118 776 157 760 118 b 708 181 713 118 706 136 l 742 625 b 700 681 744 657 733 681 b 579 651 667 681 618 651 b 424 679 546 651 500 679 b 47 238 222 679 47 481 b 278 -14 47 82 147 -14 b 517 115 369 -14 458 35 b 643 -12 521 17 575 -12 b 818 131 749 -12 815 72 b 797 157 818 150 806 157 z m 354 107 b 244 282 292 107 243 158 b 426 599 246 417 310 599 b 546 454 493 599 551 549 l 543 410 b 354 107 533 260 454 107 z "},"ă":{"ha":875,"x_min":0,"x_max":0,"o":"m 522 743 b 743 922 638 743 728 819 b 726 963 747 947 740 963 b 696 943 717 963 710 957 b 540 869 649 892 606 869 b 406 943 475 869 438 892 b 379 963 396 957 389 963 b 351 922 365 963 354 947 b 522 743 339 824 401 743 z m 797 157 b 735 118 776 157 760 118 b 708 181 713 118 706 136 l 742 625 b 700 681 744 657 733 681 b 579 651 667 681 618 651 b 424 679 546 651 500 679 b 47 238 222 679 47 481 b 278 -14 47 82 147 -14 b 517 115 369 -14 458 35 b 643 -12 521 17 575 -12 b 818 131 749 -12 815 72 b 797 157 818 150 806 157 z m 354 107 b 244 282 292 107 243 158 b 426 599 246 417 310 599 b 546 454 493 599 551 549 l 543 410 b 354 107 533 260 454 107 z "},"â":{"ha":875,"x_min":0,"x_max":0,"o":"m 381 746 b 554 847 422 744 499 799 b 700 746 597 799 658 744 b 725 767 718 746 724 754 b 672 882 728 786 699 836 b 571 965 633 950 632 965 b 442 876 519 965 500 943 b 360 767 401 832 364 786 b 381 746 358 754 364 746 z m 797 157 b 735 118 776 157 760 118 b 708 181 713 118 706 136 l 742 625 b 700 681 744 657 733 681 b 579 651 667 681 618 651 b 424 679 546 651 500 679 b 47 238 222 679 47 481 b 278 -14 47 82 147 -14 b 517 115 369 -14 458 35 b 643 -12 521 17 575 -12 b 818 131 749 -12 815 72 b 797 157 818 150 806 157 z m 354 107 b 244 282 292 107 243 158 b 426 599 246 417 310 599 b 546 454 493 599 551 549 l 543 410 b 354 107 533 260 454 107 z "},"ä":{"ha":875,"x_min":0,"x_max":0,"o":"m 397 769 b 503 864 453 769 503 810 b 425 940 503 910 471 940 b 326 838 368 940 326 889 b 397 769 326 796 358 769 z m 626 769 b 731 864 681 769 731 810 b 651 940 731 910 699 940 b 553 838 597 940 553 889 b 626 769 553 796 585 769 z m 797 157 b 735 118 776 157 760 118 b 708 181 713 118 706 136 l 742 625 b 700 681 744 657 733 681 b 579 651 667 681 618 651 b 424 679 546 651 500 679 b 47 238 222 679 47 481 b 278 -14 47 82 147 -14 b 517 115 369 -14 458 35 b 643 -12 521 17 575 -12 b 818 131 749 -12 815 72 b 797 157 818 150 806 157 z m 354 107 b 244 282 292 107 243 158 b 426 599 246 417 310 599 b 546 454 493 599 551 549 l 543 410 b 354 107 533 260 454 107 z "},"à":{"ha":875,"x_min":0,"x_max":0,"o":"m 639 769 b 657 800 657 776 661 788 b 557 911 649 822 604 868 b 431 967 510 950 468 981 b 388 869 392 953 371 915 b 639 769 413 797 571 744 z m 797 157 b 735 118 776 157 760 118 b 708 181 713 118 706 136 l 742 625 b 700 681 744 657 733 681 b 579 651 667 681 618 651 b 424 679 546 651 500 679 b 47 238 222 679 47 481 b 278 -14 47 82 147 -14 b 517 115 369 -14 458 35 b 643 -12 521 17 575 -12 b 818 131 749 -12 815 72 b 797 157 818 150 806 157 z m 354 107 b 244 282 292 107 243 158 b 426 599 246 417 310 599 b 546 454 493 599 551 549 l 543 410 b 354 107 533 260 454 107 z "},"ā":{"ha":875,"x_min":0,"x_max":0,"o":"m 672 767 b 750 815 732 767 738 774 b 699 857 760 849 754 857 l 385 857 b 314 808 332 857 325 849 b 360 767 304 774 308 767 z m 797 157 b 735 118 776 157 760 118 b 708 181 713 118 706 136 l 742 625 b 700 681 744 657 733 681 b 579 651 667 681 618 651 b 424 679 546 651 500 679 b 47 238 222 679 47 481 b 278 -14 47 82 147 -14 b 517 115 369 -14 458 35 b 643 -12 521 17 575 -12 b 818 131 749 -12 815 72 b 797 157 818 150 806 157 z m 354 107 b 244 282 292 107 243 158 b 426 599 246 417 310 599 b 546 454 493 599 551 549 l 543 410 b 354 107 533 260 454 107 z "},"ą":{"ha":875,"x_min":0,"x_max":0,"o":"m 776 -172 b 725 -185 758 -181 740 -185 b 654 -115 678 -185 654 -154 b 704 -3 654 -85 668 -47 b 818 131 774 22 815 85 b 797 157 818 150 806 157 b 735 118 776 157 760 118 b 708 181 713 118 706 136 l 742 625 b 700 681 744 657 733 681 b 579 651 667 681 618 651 b 424 679 546 651 500 679 b 47 238 222 679 47 481 b 278 -14 47 82 147 -14 b 517 115 369 -14 458 35 b 617 -11 521 29 561 -4 b 540 -139 567 -49 540 -93 b 679 -257 540 -210 599 -257 b 800 -208 725 -257 772 -237 b 776 -172 821 -187 811 -156 z m 354 107 b 244 282 292 107 243 158 b 426 599 246 417 310 599 b 546 454 493 599 551 549 l 543 410 b 354 107 533 260 454 107 z "},"å":{"ha":875,"x_min":0,"x_max":0,"o":"m 521 725 b 692 868 604 725 679 781 b 565 1007 704 953 647 1007 b 394 864 481 1007 406 950 b 521 725 382 781 438 725 z m 550 935 b 607 871 586 935 607 908 b 538 800 604 832 578 800 b 479 867 501 800 479 828 b 550 935 482 907 510 935 z m 797 157 b 735 118 776 157 760 118 b 708 181 713 118 706 136 l 742 625 b 700 681 744 657 733 681 b 579 651 667 681 618 651 b 424 679 546 651 500 679 b 47 238 222 679 47 481 b 278 -14 47 82 147 -14 b 517 115 369 -14 458 35 b 643 -12 521 17 575 -12 b 818 131 749 -12 815 72 b 797 157 818 150 806 157 z m 354 107 b 244 282 292 107 243 158 b 426 599 246 417 310 599 b 546 454 493 599 551 549 l 543 410 b 354 107 533 260 454 107 z "},"ã":{"ha":875,"x_min":0,"x_max":0,"o":"m 367 760 b 421 800 369 790 392 800 b 647 742 499 800 576 742 b 768 839 722 742 761 792 b 724 886 776 901 729 921 b 669 844 719 854 699 844 b 443 903 625 844 522 903 b 321 806 368 903 328 854 b 367 760 313 744 361 724 z m 797 157 b 735 118 776 157 760 118 b 708 181 713 118 706 136 l 742 625 b 700 681 744 657 733 681 b 579 651 667 681 618 651 b 424 679 546 651 500 679 b 47 238 222 679 47 481 b 278 -14 47 82 147 -14 b 517 115 369 -14 458 35 b 643 -12 521 17 575 -12 b 818 131 749 -12 815 72 b 797 157 818 150 806 157 z m 354 107 b 244 282 292 107 243 158 b 426 599 246 417 310 599 b 546 454 493 599 551 549 l 543 410 b 354 107 533 260 454 107 z "},"æ":{"ha":1226,"x_min":0,"x_max":0,"o":"m 1103 199 b 897 117 1049 156 983 117 b 733 229 821 117 760 161 b 1169 521 928 256 1169 335 b 960 681 1169 626 1074 681 b 683 583 850 681 756 642 b 442 681 615 656 522 681 b 47 244 236 681 47 475 b 279 -14 47 88 149 -14 b 542 178 381 -14 479 49 b 819 -14 575 53 679 -14 b 1142 164 986 -14 1104 86 b 1103 199 1163 204 1135 225 z m 908 597 b 1011 497 972 597 1011 553 b 750 314 1011 381 853 331 b 713 346 724 311 713 322 b 908 597 713 475 793 597 z m 358 101 b 242 289 288 101 240 171 b 440 596 243 421 306 596 b 557 533 500 596 560 556 l 542 410 b 358 101 521 239 458 101 z "},"b":{"ha":819,"x_min":0,"x_max":0,"o":"m 536 679 b 310 581 447 679 368 639 l 371 944 b 336 986 375 974 361 986 b 200 954 306 986 251 972 b 104 883 115 924 104 903 b 157 775 104 838 171 860 l 82 319 b 336 -15 54 149 119 -11 b 775 436 586 -19 775 186 b 536 679 775 568 683 679 z m 378 76 b 268 257 307 76 257 140 b 458 571 283 450 369 571 b 569 436 535 571 567 503 b 378 76 575 258 492 75 z "},"":{"ha":819,"x_min":0,"x_max":0,"o":"m 536 679 b 310 581 447 679 368 639 l 371 944 b 336 986 375 974 361 986 b 200 954 306 986 251 972 b 104 883 115 924 104 903 b 157 775 104 838 171 860 l 82 319 b 336 -15 54 149 119 -11 b 775 436 586 -19 775 186 b 536 679 775 568 683 679 z m 378 76 b 268 257 307 76 257 140 b 458 571 283 450 369 571 b 569 436 535 571 567 503 b 378 76 575 258 492 75 z "},"c":{"ha":749,"x_min":0,"x_max":0,"o":"m 353 -14 b 675 160 519 -14 638 83 b 635 196 693 200 668 222 b 446 124 582 151 525 124 b 243 336 315 124 243 208 b 414 592 243 465 313 592 b 518 433 499 592 521 519 b 589 346 515 388 535 351 b 700 464 650 340 696 393 b 446 681 707 574 608 681 b 51 275 233 681 51 499 b 353 -14 51 114 160 -14 z "},"ć":{"ha":749,"x_min":0,"x_max":0,"o":"m 346 769 b 597 869 414 744 572 797 b 536 969 615 921 590 969 b 429 911 503 969 468 943 b 328 800 381 868 336 822 b 346 769 324 788 328 776 z m 353 -14 b 675 160 519 -14 638 83 b 635 196 693 200 668 222 b 446 124 582 151 525 124 b 243 336 315 124 243 208 b 414 592 243 465 313 592 b 518 433 499 592 521 519 b 589 346 515 388 535 351 b 700 464 650 340 696 393 b 446 681 707 574 608 681 b 51 275 233 681 51 499 b 353 -14 51 114 160 -14 z "},"č":{"ha":749,"x_min":0,"x_max":0,"o":"m 447 790 b 572 874 508 790 514 806 b 658 989 613 919 656 969 b 639 1010 660 1001 656 1010 b 465 910 597 1011 521 957 b 319 1010 422 957 361 1011 b 293 989 303 1010 294 1001 b 343 879 292 969 315 924 b 447 790 382 813 396 790 z m 353 -14 b 675 160 519 -14 638 83 b 635 196 693 200 668 222 b 446 124 582 151 525 124 b 243 336 315 124 243 208 b 414 592 243 465 313 592 b 518 433 499 592 521 519 b 589 346 515 388 535 351 b 700 464 650 340 696 393 b 446 681 707 574 608 681 b 51 275 233 681 51 499 b 353 -14 51 114 160 -14 z "},"ç":{"ha":749,"x_min":0,"x_max":0,"o":"m 589 346 b 700 464 650 340 696 393 b 446 681 707 574 608 681 b 51 275 233 681 51 499 b 292 -10 51 132 138 15 l 247 -93 b 264 -119 240 -107 250 -117 b 356 -189 304 -129 356 -143 b 296 -242 356 -217 335 -242 b 235 -222 271 -242 251 -233 b 204 -250 207 -206 188 -231 b 322 -297 224 -275 263 -297 b 458 -182 399 -297 458 -250 b 328 -71 458 -112 399 -82 l 360 -14 b 675 160 522 -11 638 85 b 635 196 693 200 668 222 b 446 124 582 151 525 124 b 243 336 315 124 243 208 b 414 592 243 465 313 592 b 518 433 499 592 521 519 b 589 346 515 388 535 351 z "},"ċ":{"ha":749,"x_min":0,"x_max":0,"o":"m 411 757 b 561 886 483 756 558 818 b 474 974 561 933 524 972 b 328 842 403 976 329 906 b 411 757 326 796 358 758 z m 353 -14 b 675 160 519 -14 638 83 b 635 196 693 200 668 222 b 446 124 582 151 525 124 b 243 336 315 124 243 208 b 414 592 243 465 313 592 b 518 433 499 592 521 519 b 589 346 515 388 535 351 b 700 464 650 340 696 393 b 446 681 707 574 608 681 b 51 275 233 681 51 499 b 353 -14 51 114 160 -14 z "},"d":{"ha":853,"x_min":0,"x_max":0,"o":"m 808 944 b 775 986 814 974 800 986 b 638 954 743 986 689 972 b 542 883 553 924 542 903 b 594 775 542 842 607 858 l 576 650 b 447 681 538 667 496 681 b 46 238 240 681 46 486 b 282 -14 46 90 129 -14 b 504 104 379 -14 451 35 b 622 -12 506 18 560 -12 b 804 131 735 -12 801 72 b 783 157 806 150 793 157 b 721 118 763 157 747 118 b 699 181 699 118 692 136 z m 350 111 b 239 269 274 111 240 179 b 431 596 239 428 311 596 b 539 396 508 596 556 531 b 350 111 518 233 442 111 z "},"ď":{"ha":853,"x_min":0,"x_max":0,"o":"m 282 -14 b 504 104 379 -14 451 35 b 622 -12 506 18 560 -12 b 804 131 735 -12 801 72 b 783 157 806 150 793 157 b 721 118 763 157 747 118 b 699 181 699 118 692 136 l 808 944 b 775 986 814 974 800 986 b 638 954 743 986 689 972 b 542 883 553 924 542 903 b 594 775 542 842 607 858 l 576 650 b 447 681 538 667 496 681 b 46 238 240 681 46 486 b 282 -14 46 90 129 -14 z m 889 654 b 1057 906 936 654 1047 836 b 1000 981 1064 951 1040 981 b 919 904 964 981 933 957 b 868 685 914 883 882 744 b 889 654 864 665 872 654 z m 350 111 b 239 269 274 111 240 179 b 431 596 239 428 311 596 b 539 396 508 596 556 531 b 350 111 518 233 442 111 z "},"đ":{"ha":853,"x_min":0,"x_max":0,"o":"m 775 986 b 638 954 743 986 689 972 b 542 883 553 924 542 903 b 594 779 542 843 604 858 l 460 779 b 425 742 436 779 425 767 b 460 701 425 715 436 701 l 583 701 l 576 650 b 447 681 538 667 496 681 b 46 238 240 681 46 486 b 282 -14 46 90 129 -14 b 504 104 379 -14 451 35 b 622 -12 506 18 560 -12 b 804 131 735 -12 801 72 b 783 157 806 150 793 157 b 721 118 763 157 747 118 b 699 181 699 118 692 136 l 774 701 b 806 742 796 703 806 717 b 785 778 806 761 799 774 l 808 944 b 775 986 814 974 800 986 z m 350 111 b 239 269 274 111 240 179 b 431 596 239 428 311 596 b 539 396 508 596 556 531 b 350 111 518 233 442 111 z "},"ð":{"ha":807,"x_min":0,"x_max":0,"o":"m 682 888 b 707 938 704 896 714 913 b 665 961 703 961 689 969 l 551 921 b 444 1006 515 956 479 985 b 386 990 426 1017 401 1010 b 393 933 371 972 374 950 b 439 883 410 918 425 901 l 357 854 b 332 807 335 847 325 831 b 375 782 338 782 351 774 l 482 818 b 553 644 513 767 536 707 b 415 679 514 668 463 679 b 53 285 207 681 53 486 b 349 -14 53 93 186 -14 b 764 444 578 -14 764 163 b 606 861 764 607 694 753 z m 367 72 b 244 263 286 72 244 154 b 442 597 242 408 315 594 b 563 418 528 597 563 515 b 367 72 565 269 496 75 z "},"e":{"ha":746,"x_min":0,"x_max":0,"o":"m 622 199 b 417 117 568 156 503 117 b 253 229 339 117 278 161 b 689 521 447 256 689 335 b 479 681 689 626 592 681 b 50 269 219 681 50 468 b 339 -14 50 86 168 -14 b 661 164 506 -14 624 86 b 622 199 681 204 654 225 z m 428 597 b 531 497 492 597 531 553 b 269 314 531 381 372 331 b 232 346 242 311 232 322 b 428 597 232 475 311 597 z "},"é":{"ha":746,"x_min":0,"x_max":0,"o":"m 338 757 b 589 857 406 732 564 785 b 528 957 607 908 582 957 b 421 899 494 957 460 931 b 319 788 372 856 328 810 b 338 757 315 775 319 764 z m 622 199 b 417 117 568 156 503 117 b 253 229 339 117 278 161 b 689 521 447 256 689 335 b 479 681 689 626 592 681 b 50 269 219 681 50 468 b 339 -14 50 86 168 -14 b 661 164 506 -14 624 86 b 622 199 681 204 654 225 z m 428 597 b 531 497 492 597 531 553 b 269 314 531 381 372 331 b 232 346 242 311 232 322 b 428 597 232 475 311 597 z "},"ě":{"ha":746,"x_min":0,"x_max":0,"o":"m 440 778 b 565 861 501 778 507 793 b 651 976 606 907 649 957 b 632 997 653 989 649 997 b 458 897 590 999 514 944 b 313 997 415 944 354 999 b 286 976 296 997 288 989 b 336 867 285 957 308 911 b 440 778 375 800 389 778 z m 622 199 b 417 117 568 156 503 117 b 253 229 339 117 278 161 b 689 521 447 256 689 335 b 479 681 689 626 592 681 b 50 269 219 681 50 468 b 339 -14 50 86 168 -14 b 661 164 506 -14 624 86 b 622 199 681 204 654 225 z m 428 597 b 531 497 492 597 531 553 b 269 314 531 381 372 331 b 232 346 242 311 232 322 b 428 597 232 475 311 597 z "},"ê":{"ha":746,"x_min":0,"x_max":0,"o":"m 275 733 b 449 835 317 732 393 786 b 594 733 492 786 553 732 b 619 754 613 733 618 742 b 567 869 622 774 593 824 b 465 953 528 938 526 953 b 336 864 414 953 394 931 b 254 754 296 819 258 774 b 275 733 253 742 258 733 z m 622 199 b 417 117 568 156 503 117 b 253 229 339 117 278 161 b 689 521 447 256 689 335 b 479 681 689 626 592 681 b 50 269 219 681 50 468 b 339 -14 50 86 168 -14 b 661 164 506 -14 624 86 b 622 199 681 204 654 225 z m 428 597 b 531 497 492 597 531 553 b 269 314 531 381 372 331 b 232 346 242 311 232 322 b 428 597 232 475 311 597 z "},"ë":{"ha":746,"x_min":0,"x_max":0,"o":"m 292 757 b 397 851 347 757 397 797 b 319 928 397 897 365 928 b 221 825 263 928 221 876 b 292 757 221 783 253 757 z m 521 757 b 625 851 575 757 625 797 b 546 928 625 897 593 928 b 447 825 492 928 447 876 b 521 757 447 783 479 757 z m 622 199 b 417 117 568 156 503 117 b 253 229 339 117 278 161 b 689 521 447 256 689 335 b 479 681 689 626 592 681 b 50 269 219 681 50 468 b 339 -14 50 86 168 -14 b 661 164 506 -14 624 86 b 622 199 681 204 654 225 z m 428 597 b 531 497 492 597 531 553 b 269 314 531 381 372 331 b 232 346 242 311 232 322 b 428 597 232 475 311 597 z "},"ė":{"ha":746,"x_min":0,"x_max":0,"o":"m 403 744 b 553 874 475 743 550 806 b 465 961 553 921 515 960 b 319 829 394 964 321 893 b 403 744 318 783 350 746 z m 622 199 b 417 117 568 156 503 117 b 253 229 339 117 278 161 b 689 521 447 256 689 335 b 479 681 689 626 592 681 b 50 269 219 681 50 468 b 339 -14 50 86 168 -14 b 661 164 506 -14 624 86 b 622 199 681 204 654 225 z m 428 597 b 531 497 492 597 531 553 b 269 314 531 381 372 331 b 232 346 242 311 232 322 b 428 597 232 475 311 597 z "},"è":{"ha":746,"x_min":0,"x_max":0,"o":"m 533 757 b 551 788 551 764 556 775 b 451 899 543 810 499 856 b 325 954 404 938 363 968 b 282 857 286 940 265 903 b 533 757 307 785 465 732 z m 622 199 b 417 117 568 156 503 117 b 253 229 339 117 278 161 b 689 521 447 256 689 335 b 479 681 689 626 592 681 b 50 269 219 681 50 468 b 339 -14 50 86 168 -14 b 661 164 506 -14 624 86 b 622 199 681 204 654 225 z m 428 597 b 531 497 492 597 531 553 b 269 314 531 381 372 331 b 232 346 242 311 232 322 b 428 597 232 475 311 597 z "},"ē":{"ha":746,"x_min":0,"x_max":0,"o":"m 567 754 b 644 803 626 754 632 761 b 593 844 654 836 649 844 l 279 844 b 208 796 226 844 219 836 b 254 754 199 761 203 754 z m 622 199 b 417 117 568 156 503 117 b 253 229 339 117 278 161 b 689 521 447 256 689 335 b 479 681 689 626 592 681 b 50 269 219 681 50 468 b 339 -14 50 86 168 -14 b 661 164 506 -14 624 86 b 622 199 681 204 654 225 z m 428 597 b 531 497 492 597 531 553 b 269 314 531 381 372 331 b 232 346 242 311 232 322 b 428 597 232 475 311 597 z "},"ę":{"ha":746,"x_min":0,"x_max":0,"o":"m 622 199 b 417 117 568 156 503 117 b 253 229 339 117 278 161 b 689 521 447 256 689 335 b 479 681 689 626 592 681 b 50 269 219 681 50 468 b 313 -12 50 96 156 -3 b 233 -143 261 -51 233 -96 b 372 -261 233 -214 292 -261 b 493 -212 418 -261 465 -242 b 469 -176 514 -192 504 -160 b 418 -189 451 -185 433 -189 b 347 -119 371 -189 347 -158 b 394 -10 347 -90 360 -54 b 661 164 532 8 628 94 b 622 199 681 204 654 225 z m 428 597 b 531 497 492 597 531 553 b 269 314 531 381 372 331 b 232 346 242 311 232 322 b 428 597 232 475 311 597 z "},"f":{"ha":532,"x_min":0,"x_max":0,"o":"m 488 986 b 188 658 340 986 218 869 l 181 608 l 110 592 b 57 540 82 586 65 572 b 96 500 49 506 64 494 l 167 515 l 99 42 b 68 -93 88 -33 83 -71 b 101 -144 43 -131 61 -156 l 231 -115 b 269 -81 251 -110 265 -104 l 358 539 l 449 554 b 529 619 483 561 508 563 b 490 675 547 668 540 686 l 374 650 b 332 771 326 639 326 724 b 424 890 339 858 382 890 b 488 804 464 890 482 864 b 546 754 490 776 510 754 b 631 838 589 754 624 783 b 488 986 643 918 582 986 z "},"g":{"ha":781,"x_min":0,"x_max":0,"o":"m 731 782 b 669 749 704 782 686 768 b 539 675 617 690 569 675 b 443 679 507 675 492 679 l 442 679 b 83 394 246 679 83 549 b 167 240 83 325 114 274 b 40 110 86 207 49 161 b 110 -12 33 53 63 13 b 6 -125 50 -35 13 -82 b 299 -293 -10 -244 133 -293 b 738 -47 542 -293 717 -196 b 560 106 751 47 689 106 b 325 92 500 106 404 92 b 189 161 257 92 182 106 b 229 213 192 183 210 200 b 365 193 268 200 314 193 b 710 472 557 193 710 308 b 644 615 710 529 686 579 b 783 724 710 626 779 661 b 731 782 785 758 761 782 z m 388 268 b 269 410 310 268 269 329 b 414 604 269 506 325 604 b 526 461 492 604 526 538 b 388 268 526 367 476 268 z m 256 -53 b 479 -46 340 -54 404 -46 b 560 -108 550 -42 565 -75 b 347 -211 553 -171 481 -211 b 158 -117 226 -211 151 -179 b 256 -53 167 -69 214 -51 z "},"ğ":{"ha":781,"x_min":0,"x_max":0,"o":"m 443 742 b 664 921 558 742 649 818 b 647 961 668 946 661 961 b 617 942 638 961 631 956 b 461 868 569 890 526 868 b 326 942 396 868 358 890 b 300 961 317 956 310 961 b 272 921 286 961 275 946 b 443 742 260 822 322 742 z m 731 782 b 669 749 704 782 686 768 b 539 675 617 690 569 675 b 443 679 507 675 492 679 l 442 679 b 83 394 246 679 83 549 b 167 240 83 325 114 274 b 40 110 86 207 49 161 b 110 -12 33 53 63 13 b 6 -125 50 -35 13 -82 b 299 -293 -10 -244 133 -293 b 738 -47 542 -293 717 -196 b 560 106 751 47 689 106 b 325 92 500 106 404 92 b 189 161 257 92 182 106 b 229 213 192 183 210 200 b 365 193 268 200 314 193 b 710 472 557 193 710 308 b 644 615 710 529 686 579 b 783 724 710 626 779 661 b 731 782 785 758 761 782 z m 388 268 b 269 410 310 268 269 329 b 414 604 269 506 325 604 b 526 461 492 604 526 538 b 388 268 526 367 476 268 z m 256 -53 b 479 -46 340 -54 404 -46 b 560 -108 550 -42 565 -75 b 347 -211 553 -171 481 -211 b 158 -117 226 -211 151 -179 b 256 -53 167 -69 214 -51 z "},"ġ":{"ha":781,"x_min":0,"x_max":0,"o":"m 431 756 b 581 885 503 754 578 817 b 493 972 581 932 543 971 b 347 840 422 975 349 904 b 431 756 346 794 378 757 z m 731 782 b 669 749 704 782 686 768 b 539 675 617 690 569 675 b 443 679 507 675 492 679 l 442 679 b 83 394 246 679 83 549 b 167 240 83 325 114 274 b 40 110 86 207 49 161 b 110 -12 33 53 63 13 b 6 -125 50 -35 13 -82 b 299 -293 -10 -244 133 -293 b 738 -47 542 -293 717 -196 b 560 106 751 47 689 106 b 325 92 500 106 404 92 b 189 161 257 92 182 106 b 229 213 192 183 210 200 b 365 193 268 200 314 193 b 710 472 557 193 710 308 b 644 615 710 529 686 579 b 783 724 710 626 779 661 b 731 782 785 758 761 782 z m 388 268 b 269 410 310 268 269 329 b 414 604 269 506 325 604 b 526 461 492 604 526 538 b 388 268 526 367 476 268 z m 256 -53 b 479 -46 340 -54 404 -46 b 560 -108 550 -42 565 -75 b 347 -211 553 -171 481 -211 b 158 -117 226 -211 151 -179 b 256 -53 167 -69 214 -51 z "},"h":{"ha":890,"x_min":0,"x_max":0,"o":"m 814 157 b 750 118 793 157 776 118 b 728 181 729 118 725 136 l 744 418 b 563 679 756 576 706 679 b 310 515 458 679 374 619 l 374 949 b 339 992 379 979 364 992 b 201 960 308 992 257 982 b 106 889 122 926 106 910 b 169 789 106 844 182 868 l 56 25 b 92 -15 51 0 67 -21 l 204 11 b 243 49 224 15 239 28 l 261 165 b 494 563 308 444 419 563 b 561 408 560 563 569 504 l 543 156 b 657 -12 532 43 576 -12 b 835 131 765 -12 832 72 b 814 157 835 150 822 157 z "},"ħ":{"ha":890,"x_min":0,"x_max":0,"o":"m 814 157 b 750 118 793 157 776 118 b 728 181 729 118 725 136 l 744 418 b 563 679 756 576 706 679 b 310 515 458 679 374 619 l 335 685 l 394 685 b 429 725 418 685 429 699 b 394 763 429 750 418 763 l 346 763 l 374 949 b 339 992 379 979 364 992 b 201 960 308 992 257 982 b 106 889 122 926 106 910 b 169 789 106 844 182 868 l 165 763 l 83 763 b 49 725 60 763 49 750 b 83 685 49 699 60 685 l 154 685 l 56 25 b 92 -15 51 0 67 -21 l 204 11 b 243 49 224 15 239 28 l 261 165 b 494 563 308 444 419 563 b 561 408 560 563 569 504 l 543 156 b 657 -12 532 43 576 -12 b 835 131 765 -12 832 72 b 814 157 835 150 822 157 z "},"i":{"ha":438,"x_min":0,"x_max":0,"o":"m 221 757 b 371 886 293 756 368 818 b 283 974 371 933 333 972 b 138 842 213 976 139 906 b 221 757 136 796 168 758 z m 186 -12 b 368 131 299 -12 365 72 b 347 157 369 150 357 157 b 285 118 328 157 311 118 b 260 181 263 118 253 136 l 325 636 b 290 679 329 665 315 679 b 163 646 260 679 215 665 b 68 575 78 615 68 594 b 121 468 68 532 133 550 l 72 153 b 186 -12 56 43 106 -12 z "},"ı":{"ha":438,"x_min":0,"x_max":0,"o":"m 186 -12 b 368 131 299 -12 365 72 b 347 157 369 150 357 157 b 285 118 328 157 311 118 b 260 181 263 118 253 136 l 325 636 b 290 679 329 665 315 679 b 163 646 260 679 215 665 b 68 575 78 615 68 594 b 121 468 68 532 133 550 l 72 153 b 186 -12 56 43 106 -12 z "},"í":{"ha":438,"x_min":0,"x_max":0,"o":"m 156 769 b 407 869 224 744 382 797 b 346 969 425 921 400 969 b 239 911 313 969 278 943 b 138 800 190 868 146 822 b 156 769 133 788 138 776 z m 186 -12 b 368 131 299 -12 365 72 b 347 157 369 150 357 157 b 285 118 328 157 311 118 b 260 181 263 118 253 136 l 325 636 b 290 679 329 665 315 679 b 163 646 260 679 215 665 b 68 575 78 615 68 594 b 121 468 68 532 133 550 l 72 153 b 186 -12 56 43 106 -12 z "},"î":{"ha":438,"x_min":0,"x_max":0,"o":"m 92 746 b 265 847 133 744 210 799 b 411 746 308 799 369 744 b 436 767 429 746 435 754 b 383 882 439 786 410 836 b 282 965 344 950 343 965 b 153 876 231 965 211 943 b 71 767 113 832 75 786 b 92 746 69 754 75 746 z m 186 -12 b 368 131 299 -12 365 72 b 347 157 369 150 357 157 b 285 118 328 157 311 118 b 260 181 263 118 253 136 l 325 636 b 290 679 329 665 315 679 b 163 646 260 679 215 665 b 68 575 78 615 68 594 b 121 468 68 532 133 550 l 72 153 b 186 -12 56 43 106 -12 z "},"ï":{"ha":438,"x_min":0,"x_max":0,"o":"m 108 769 b 214 864 164 769 214 810 b 136 940 214 910 182 940 b 38 838 79 940 38 889 b 108 769 38 796 69 769 z m 338 769 b 442 864 392 769 442 810 b 363 940 442 910 410 940 b 264 838 308 940 264 889 b 338 769 264 796 296 769 z m 186 -12 b 368 131 299 -12 365 72 b 347 157 369 150 357 157 b 285 118 328 157 311 118 b 260 181 263 118 253 136 l 325 636 b 290 679 329 665 315 679 b 163 646 260 679 215 665 b 68 575 78 615 68 594 b 121 468 68 532 133 550 l 72 153 b 186 -12 56 43 106 -12 z "},"ì":{"ha":438,"x_min":0,"x_max":0,"o":"m 350 769 b 368 800 368 776 372 788 b 268 911 360 822 315 868 b 142 967 221 950 179 981 b 99 869 103 953 82 915 b 350 769 124 797 282 744 z m 186 -12 b 368 131 299 -12 365 72 b 347 157 369 150 357 157 b 285 118 328 157 311 118 b 260 181 263 118 253 136 l 325 636 b 290 679 329 665 315 679 b 163 646 260 679 215 665 b 68 575 78 615 68 594 b 121 468 68 532 133 550 l 72 153 b 186 -12 56 43 106 -12 z "},"ī":{"ha":438,"x_min":0,"x_max":0,"o":"m 383 767 b 461 815 443 767 449 774 b 410 857 471 849 465 857 l 96 857 b 25 808 43 857 36 849 b 71 767 15 774 19 767 z m 186 -12 b 368 131 299 -12 365 72 b 347 157 369 150 357 157 b 285 118 328 157 311 118 b 260 181 263 118 253 136 l 325 636 b 290 679 329 665 315 679 b 163 646 260 679 215 665 b 68 575 78 615 68 594 b 121 468 68 532 133 550 l 72 153 b 186 -12 56 43 106 -12 z "},"į":{"ha":438,"x_min":0,"x_max":0,"o":"m 221 757 b 371 886 293 756 368 818 b 283 974 371 933 333 972 b 138 842 213 976 139 906 b 221 757 136 796 168 758 z m 357 -158 b 306 -171 339 -167 321 -171 b 235 -101 258 -171 235 -140 b 288 14 235 -71 249 -32 b 368 131 338 44 367 93 b 347 157 369 150 357 157 b 285 118 328 157 311 118 b 260 181 263 118 253 136 l 325 636 b 290 679 329 665 315 679 b 163 646 260 679 215 665 b 68 575 78 615 68 594 b 121 468 68 532 133 550 l 72 153 b 179 -12 56 46 103 -10 b 121 -125 140 -47 121 -85 b 260 -243 121 -196 179 -243 b 381 -194 306 -243 353 -224 b 357 -158 401 -174 392 -142 z "},"j":{"ha":403,"x_min":0,"x_max":0,"o":"m 242 757 b 392 886 314 756 389 818 b 304 974 392 933 354 972 b 158 842 233 976 160 906 b 242 757 157 796 189 758 z m -14 -292 b 240 -47 163 -292 219 -190 l 343 636 b 308 679 347 665 333 679 b 171 646 276 679 222 665 b 75 575 86 615 75 594 b 104 540 75 560 86 550 b 129 468 126 529 135 511 l 60 -3 b -93 -221 40 -144 13 -185 b -14 -292 -147 -239 -133 -292 z "},"ȷ":{"ha":403,"x_min":0,"x_max":0,"o":"m -14 -292 b 240 -47 163 -292 219 -190 l 343 636 b 308 679 347 665 333 679 b 171 646 276 679 222 665 b 75 575 86 615 75 594 b 104 540 75 560 86 550 b 129 468 126 529 135 511 l 60 -3 b -93 -221 40 -144 13 -185 b -14 -292 -147 -239 -133 -292 z "},"k":{"ha":786,"x_min":0,"x_max":0,"o":"m 714 144 b 650 110 694 144 681 110 b 483 306 586 110 522 214 b 719 543 615 353 719 431 b 560 681 719 632 643 681 b 321 563 469 681 385 638 l 374 949 b 339 992 378 979 364 992 b 201 960 308 992 257 982 b 106 889 122 926 106 910 b 169 789 106 844 182 868 l 63 26 b 99 -14 58 0 74 -19 l 213 13 b 250 50 231 17 247 28 l 279 258 b 340 268 299 261 319 264 b 568 -14 375 121 438 -14 b 733 117 671 -14 733 65 b 714 144 733 131 729 144 z m 293 361 b 468 568 314 469 388 568 b 550 490 522 568 551 532 b 289 336 549 401 413 343 z "},"l":{"ha":425,"x_min":0,"x_max":0,"o":"m 197 -12 b 369 131 301 -12 367 72 b 349 157 371 150 358 157 b 286 118 329 157 313 118 b 263 181 264 118 257 136 l 371 944 b 338 986 376 974 363 986 b 200 954 306 986 253 972 b 106 883 115 924 106 903 b 161 778 106 842 172 858 l 74 156 b 197 -12 56 35 103 -12 z "},"ĺ":{"ha":425,"x_min":0,"x_max":0,"o":"m 236 1078 b 488 1178 304 1053 463 1106 b 426 1278 506 1229 481 1278 b 319 1219 393 1278 358 1251 b 218 1108 271 1176 226 1131 b 236 1078 214 1096 218 1085 z m 197 -12 b 369 131 301 -12 367 72 b 349 157 371 150 358 157 b 286 118 329 157 313 118 b 263 181 264 118 257 136 l 371 944 b 338 986 376 974 363 986 b 200 954 306 986 253 972 b 106 883 115 924 106 903 b 161 778 106 842 172 858 l 74 156 b 197 -12 56 35 103 -12 z "},"ľ":{"ha":425,"x_min":0,"x_max":0,"o":"m 197 -12 b 369 131 301 -12 367 72 b 349 157 371 150 358 157 b 286 118 329 157 313 118 b 263 181 264 118 257 136 l 371 944 b 338 986 376 974 363 986 b 200 954 306 986 253 972 b 106 883 115 924 106 903 b 161 778 106 842 172 858 l 74 156 b 197 -12 56 35 103 -12 z m 447 643 b 615 896 494 643 606 825 b 558 969 622 940 599 969 b 478 893 522 969 492 947 b 426 674 472 872 440 733 b 447 643 422 654 431 643 z "},"ł":{"ha":425,"x_min":0,"x_max":0,"o":"m 413 576 b 360 597 397 604 381 608 l 318 574 l 371 944 b 338 986 376 974 363 986 b 200 954 306 986 253 972 b 106 883 115 924 106 903 b 161 778 106 842 172 858 l 115 456 l 15 397 b 7 343 -7 385 -10 369 b 57 324 21 317 38 313 l 101 349 l 74 156 b 197 -12 56 35 103 -12 b 369 131 301 -12 367 72 b 349 157 371 150 358 157 b 286 118 329 157 313 118 b 263 181 264 118 257 136 l 303 465 l 403 524 b 413 576 428 538 426 554 z "},"m":{"ha":1307,"x_min":0,"x_max":0,"o":"m 1231 157 b 1168 118 1211 157 1194 118 b 1146 181 1146 118 1143 136 l 1161 418 b 976 679 1174 576 1119 679 b 738 531 894 679 804 629 b 560 679 721 624 657 679 b 296 514 474 679 375 635 l 314 636 b 281 678 319 665 304 678 b 163 646 249 678 211 664 b 68 574 79 614 68 594 b 121 467 68 531 132 550 l 50 24 b 85 -14 47 -3 61 -19 l 201 14 b 239 53 222 19 235 31 l 258 165 b 489 564 311 444 408 564 b 540 358 550 564 563 507 l 492 25 b 526 -14 489 -1 503 -19 l 642 15 b 679 54 663 19 675 31 l 699 165 b 915 564 751 444 839 564 b 978 408 974 564 985 504 l 960 156 b 1069 -12 951 43 989 -12 b 1251 131 1182 -12 1249 72 b 1231 157 1253 150 1240 157 z "},"n":{"ha":890,"x_min":0,"x_max":0,"o":"m 814 157 b 750 118 793 157 776 118 b 728 181 729 118 725 136 l 744 418 b 563 679 756 576 706 679 b 293 500 453 679 360 613 l 314 636 b 281 678 318 665 304 678 b 163 646 249 678 211 664 b 67 574 79 614 67 594 b 119 467 67 531 132 550 l 56 25 b 90 -12 53 -1 67 -18 l 207 15 b 243 54 226 21 239 32 l 261 165 b 494 563 310 444 419 563 b 561 408 560 563 569 504 l 543 156 b 657 -12 532 43 576 -12 b 835 131 765 -12 832 72 b 814 157 835 150 822 157 z "},"ń":{"ha":890,"x_min":0,"x_max":0,"o":"m 386 767 b 638 867 454 742 613 794 b 576 967 656 918 631 967 b 469 908 543 967 508 940 b 368 797 421 865 376 819 b 386 767 364 785 368 774 z m 814 157 b 750 118 793 157 776 118 b 728 181 729 118 725 136 l 744 418 b 563 679 756 576 706 679 b 293 500 453 679 360 613 l 314 636 b 281 678 318 665 304 678 b 163 646 249 678 211 664 b 67 574 79 614 67 594 b 119 467 67 531 132 550 l 56 25 b 90 -12 53 -1 67 -18 l 207 15 b 243 54 226 21 239 32 l 261 165 b 494 563 310 444 419 563 b 561 408 560 563 569 504 l 543 156 b 657 -12 532 43 576 -12 b 835 131 765 -12 832 72 b 814 157 835 150 822 157 z "},"ň":{"ha":890,"x_min":0,"x_max":0,"o":"m 488 788 b 613 871 549 788 554 803 b 699 986 653 917 696 967 b 679 1007 700 999 696 1007 b 506 907 638 1008 561 954 b 360 1007 463 954 401 1008 b 333 986 343 1007 335 999 b 383 876 332 967 356 921 b 488 788 422 810 436 788 z m 814 157 b 750 118 793 157 776 118 b 728 181 729 118 725 136 l 744 418 b 563 679 756 576 706 679 b 293 500 453 679 360 613 l 314 636 b 281 678 318 665 304 678 b 163 646 249 678 211 664 b 67 574 79 614 67 594 b 119 467 67 531 132 550 l 56 25 b 90 -12 53 -1 67 -18 l 207 15 b 243 54 226 21 239 32 l 261 165 b 494 563 310 444 419 563 b 561 408 560 563 569 504 l 543 156 b 657 -12 532 43 576 -12 b 835 131 765 -12 832 72 b 814 157 835 150 822 157 z "},"ñ":{"ha":890,"x_min":0,"x_max":0,"o":"m 308 757 b 363 797 311 788 333 797 b 589 739 440 797 518 739 b 710 836 664 739 703 789 b 665 883 718 899 671 918 b 611 842 661 851 640 842 b 385 900 567 842 464 900 b 263 803 310 900 269 851 b 308 757 254 742 303 721 z m 814 157 b 750 118 793 157 776 118 b 728 181 729 118 725 136 l 744 418 b 563 679 756 576 706 679 b 293 500 453 679 360 613 l 314 636 b 281 678 318 665 304 678 b 163 646 249 678 211 664 b 67 574 79 614 67 594 b 119 467 67 531 132 550 l 56 25 b 90 -12 53 -1 67 -18 l 207 15 b 243 54 226 21 239 32 l 261 165 b 494 563 310 444 419 563 b 561 408 560 563 569 504 l 543 156 b 657 -12 532 43 576 -12 b 835 131 765 -12 832 72 b 814 157 835 150 822 157 z "},"o":{"ha":817,"x_min":0,"x_max":0,"o":"m 360 -14 b 768 397 589 -14 768 160 b 465 681 768 556 656 681 b 50 276 242 681 50 497 b 360 -14 50 101 171 -14 z m 375 72 b 246 272 285 72 247 158 b 443 596 247 417 315 596 b 563 404 532 596 563 507 b 375 72 563 258 494 72 z "},"ó":{"ha":817,"x_min":0,"x_max":0,"o":"m 386 769 b 638 869 454 744 613 797 b 576 969 656 921 631 969 b 469 911 543 969 508 943 b 368 800 421 868 376 822 b 386 769 364 788 368 776 z m 360 -14 b 768 397 589 -14 768 160 b 465 681 768 556 656 681 b 50 276 242 681 50 497 b 360 -14 50 101 171 -14 z m 375 72 b 246 272 285 72 247 158 b 443 596 247 417 315 596 b 563 404 532 596 563 507 b 375 72 563 258 494 72 z "},"ô":{"ha":817,"x_min":0,"x_max":0,"o":"m 324 746 b 497 847 365 744 442 799 b 643 746 540 799 601 744 b 668 767 661 746 667 754 b 615 882 671 786 642 836 b 514 965 576 950 575 965 b 385 876 463 965 443 943 b 303 767 344 832 307 786 b 324 746 301 754 307 746 z m 360 -14 b 768 397 589 -14 768 160 b 465 681 768 556 656 681 b 50 276 242 681 50 497 b 360 -14 50 101 171 -14 z m 375 72 b 246 272 285 72 247 158 b 443 596 247 417 315 596 b 563 404 532 596 563 507 b 375 72 563 258 494 72 z "},"ö":{"ha":817,"x_min":0,"x_max":0,"o":"m 340 769 b 446 864 396 769 446 810 b 368 940 446 910 414 940 b 269 838 311 940 269 889 b 340 769 269 796 301 769 z m 569 769 b 674 864 624 769 674 810 b 594 940 674 910 642 940 b 496 838 540 940 496 889 b 569 769 496 796 528 769 z m 360 -14 b 768 397 589 -14 768 160 b 465 681 768 556 656 681 b 50 276 242 681 50 497 b 360 -14 50 101 171 -14 z m 375 72 b 246 272 285 72 247 158 b 443 596 247 417 315 596 b 563 404 532 596 563 507 b 375 72 563 258 494 72 z "},"ò":{"ha":817,"x_min":0,"x_max":0,"o":"m 582 769 b 600 800 600 776 604 788 b 500 911 592 822 547 868 b 374 967 453 950 411 981 b 331 869 335 953 314 915 b 582 769 356 797 514 744 z m 360 -14 b 768 397 589 -14 768 160 b 465 681 768 556 656 681 b 50 276 242 681 50 497 b 360 -14 50 101 171 -14 z m 375 72 b 246 272 285 72 247 158 b 443 596 247 417 315 596 b 563 404 532 596 563 507 b 375 72 563 258 494 72 z "},"ő":{"ha":817,"x_min":0,"x_max":0,"o":"m 340 747 b 519 906 406 747 519 839 b 453 972 519 949 489 972 b 367 889 419 972 393 936 b 317 767 340 838 317 786 b 340 747 317 754 325 747 z m 557 746 b 739 899 622 746 739 833 b 676 965 739 942 710 965 b 588 886 642 965 617 931 b 531 765 557 836 531 783 b 557 746 529 754 539 746 z m 360 -14 b 768 397 589 -14 768 160 b 465 681 768 556 656 681 b 50 276 242 681 50 497 b 360 -14 50 101 171 -14 z m 375 72 b 246 272 285 72 247 158 b 443 596 247 417 315 596 b 563 404 532 596 563 507 b 375 72 563 258 494 72 z "},"ō":{"ha":817,"x_min":0,"x_max":0,"o":"m 615 767 b 693 815 675 767 681 774 b 642 857 703 849 697 857 l 328 857 b 257 808 275 857 268 849 b 303 767 247 774 251 767 z m 360 -14 b 768 397 589 -14 768 160 b 465 681 768 556 656 681 b 50 276 242 681 50 497 b 360 -14 50 101 171 -14 z m 375 72 b 246 272 285 72 247 158 b 443 596 247 417 315 596 b 563 404 532 596 563 507 b 375 72 563 258 494 72 z "},"ø":{"ha":817,"x_min":0,"x_max":0,"o":"m 713 774 b 719 796 717 782 719 789 b 683 825 719 815 701 825 b 639 799 667 825 650 819 l 564 668 b 465 681 533 676 501 681 b 50 276 242 681 50 497 b 192 24 50 161 103 72 l 114 -111 b 106 -135 110 -119 106 -128 b 142 -164 106 -153 122 -164 b 189 -133 158 -164 176 -157 l 264 -3 b 360 -14 293 -10 325 -14 b 768 397 589 -14 768 160 b 635 639 768 500 721 589 z m 246 272 b 443 596 247 417 315 596 b 508 574 469 596 492 588 l 267 153 b 246 272 253 185 246 226 z m 375 72 b 317 88 353 72 333 78 l 553 496 b 563 404 560 468 563 438 b 375 72 563 258 494 72 z "},"õ":{"ha":817,"x_min":0,"x_max":0,"o":"m 590 742 b 711 839 665 742 704 792 b 667 886 719 901 672 921 b 613 844 663 854 642 844 b 386 903 568 844 465 903 b 264 806 311 903 271 854 b 310 760 256 744 304 724 b 364 800 313 790 335 800 b 590 742 442 800 519 742 z m 360 -14 b 768 397 589 -14 768 160 b 465 681 768 556 656 681 b 50 276 242 681 50 497 b 360 -14 50 101 171 -14 z m 375 72 b 246 272 285 72 247 158 b 443 596 247 417 315 596 b 563 404 532 596 563 507 b 375 72 563 258 494 72 z "},"œ":{"ha":1285,"x_min":0,"x_max":0,"o":"m 1161 199 b 956 117 1107 156 1042 117 b 792 229 879 117 818 161 b 1228 521 986 256 1228 335 b 1018 681 1228 626 1131 681 b 718 563 896 681 793 633 b 465 681 668 635 581 681 b 50 276 242 681 50 497 b 360 -14 50 101 171 -14 b 640 93 469 -14 567 25 b 878 -14 690 24 774 -14 b 1200 164 1044 -14 1163 86 b 1161 199 1221 204 1193 225 z m 967 597 b 1069 497 1031 597 1069 553 b 808 314 1069 381 911 331 b 771 346 782 311 771 322 b 967 597 771 475 850 597 z m 375 72 b 246 272 285 72 247 158 b 443 596 247 417 315 596 b 563 404 532 596 563 507 b 375 72 563 258 494 72 z "},"p":{"ha":819,"x_min":0,"x_max":0,"o":"m 565 676 b 314 557 465 676 378 631 l 325 638 b 290 679 329 667 315 679 b 165 647 260 679 219 669 b 68 576 85 615 68 597 b 131 467 68 533 142 543 l 50 -112 b -36 -246 38 -200 -32 -203 b 25 -278 -40 -269 -21 -278 l 217 -278 b 285 -247 258 -278 281 -271 b 238 -112 290 -203 226 -201 l 254 17 b 385 -7 296 3 340 -7 b 774 399 569 -7 754 157 b 565 676 790 563 706 676 z m 385 75 b 278 253 313 75 265 136 b 476 558 299 435 389 558 b 581 418 554 558 581 485 b 385 75 582 228 497 74 z "},"þ":{"ha":815,"x_min":0,"x_max":0,"o":"m 569 679 b 315 547 469 679 376 626 l 371 946 b 344 988 375 975 368 988 b 157 926 322 988 218 954 b 108 883 121 911 110 901 b 126 846 106 867 115 856 b 156 756 151 826 161 800 l 35 -111 b -53 -246 22 -200 -46 -201 b 10 -276 -56 -269 -36 -276 l 203 -276 b 269 -246 244 -276 267 -271 b 222 -111 276 -201 208 -200 l 242 26 b 381 -7 300 1 340 -7 b 769 401 565 -7 750 157 b 569 679 786 565 701 679 z m 379 75 b 274 253 308 75 260 136 b 275 261 274 256 274 258 l 279 289 b 472 560 306 460 390 560 b 576 419 550 560 575 488 b 379 75 578 228 493 74 z "},"q":{"ha":828,"x_min":0,"x_max":0,"o":"m 760 625 b 719 683 765 657 753 683 b 601 651 685 683 639 651 b 440 681 567 651 521 681 b 47 242 229 681 47 475 b 285 -14 47 88 138 -14 b 493 78 368 -14 438 21 l 468 -112 b 382 -246 456 -200 386 -203 b 443 -278 378 -269 397 -278 l 635 -278 b 703 -247 676 -278 699 -271 b 656 -112 708 -203 643 -201 z m 536 372 b 360 104 519 239 460 104 b 240 283 289 104 239 171 b 426 593 242 432 297 593 b 556 533 488 593 558 556 z "},"r":{"ha":619,"x_min":0,"x_max":0,"o":"m 513 679 b 301 546 442 679 361 629 l 314 636 b 281 678 318 665 304 678 b 163 646 249 678 211 664 b 67 574 79 614 67 594 b 119 467 67 531 132 550 l 56 24 b 90 -14 51 -3 67 -19 l 207 13 b 244 51 228 17 242 29 l 264 200 b 424 539 296 451 371 539 b 533 465 478 539 467 464 b 611 563 574 465 606 501 b 513 679 618 626 585 679 z "},"ŕ":{"ha":619,"x_min":0,"x_max":0,"o":"m 274 754 b 525 854 342 729 500 782 b 464 954 543 906 518 954 b 357 896 431 954 396 928 b 256 785 308 853 264 807 b 274 754 251 772 256 761 z m 513 679 b 301 546 442 679 361 629 l 314 636 b 281 678 318 665 304 678 b 163 646 249 678 211 664 b 67 574 79 614 67 594 b 119 467 67 531 132 550 l 56 24 b 90 -14 51 -3 67 -19 l 207 13 b 244 51 228 17 242 29 l 264 200 b 424 539 296 451 371 539 b 533 465 478 539 467 464 b 611 563 574 465 606 501 b 513 679 618 626 585 679 z "},"ř":{"ha":619,"x_min":0,"x_max":0,"o":"m 375 775 b 500 858 436 775 442 790 b 586 974 540 904 583 954 b 567 994 588 986 583 994 b 393 894 525 996 449 942 b 247 994 350 942 289 996 b 221 974 231 994 222 986 b 271 864 219 954 243 908 b 375 775 310 797 324 775 z m 513 679 b 301 546 442 679 361 629 l 314 636 b 281 678 318 665 304 678 b 163 646 249 678 211 664 b 67 574 79 614 67 594 b 119 467 67 531 132 550 l 56 24 b 90 -14 51 -3 67 -19 l 207 13 b 244 51 228 17 242 29 l 264 200 b 424 539 296 451 371 539 b 533 465 478 539 467 464 b 611 563 574 465 606 501 b 513 679 618 626 585 679 z "},"s":{"ha":676,"x_min":0,"x_max":0,"o":"m 325 -14 b 610 185 471 -14 589 64 b 418 410 628 285 556 344 b 272 539 313 458 264 488 b 364 600 278 569 311 600 b 522 525 424 600 478 564 b 599 478 561 489 575 471 b 617 542 619 483 626 499 b 597 610 611 571 606 588 b 388 681 572 674 443 681 b 92 499 254 681 114 625 b 258 271 71 385 158 317 b 421 128 368 219 431 181 b 333 67 417 96 386 67 b 111 199 244 67 167 125 b 53 239 86 228 74 244 b 29 185 35 233 24 215 b 56 71 38 138 44 107 b 325 -14 78 -3 207 -14 z "},"":{"ha":676,"x_min":0,"x_max":0,"o":"m 325 -14 b 610 185 471 -14 589 64 b 418 410 628 285 556 344 b 272 539 313 458 264 488 b 364 600 278 569 311 600 b 522 525 424 600 478 564 b 599 478 561 489 575 471 b 617 542 619 483 626 499 b 597 610 611 571 606 588 b 388 681 572 674 443 681 b 92 499 254 681 114 625 b 258 271 71 385 158 317 b 421 128 368 219 431 181 b 333 67 417 96 386 67 b 111 199 244 67 167 125 b 53 239 86 228 74 244 b 29 185 35 233 24 215 b 56 71 38 138 44 107 b 325 -14 78 -3 207 -14 z "},"ś":{"ha":676,"x_min":0,"x_max":0,"o":"m 293 769 b 544 869 361 744 519 797 b 483 969 563 921 538 969 b 376 911 450 969 415 943 b 275 800 328 868 283 822 b 293 769 271 788 275 776 z m 325 -14 b 610 185 471 -14 589 64 b 418 410 628 285 556 344 b 272 539 313 458 264 488 b 364 600 278 569 311 600 b 522 525 424 600 478 564 b 599 478 561 489 575 471 b 617 542 619 483 626 499 b 597 610 611 571 606 588 b 388 681 572 674 443 681 b 92 499 254 681 114 625 b 258 271 71 385 158 317 b 421 128 368 219 431 181 b 333 67 417 96 386 67 b 111 199 244 67 167 125 b 53 239 86 228 74 244 b 29 185 35 233 24 215 b 56 71 38 138 44 107 b 325 -14 78 -3 207 -14 z "},"š":{"ha":676,"x_min":0,"x_max":0,"o":"m 396 790 b 521 874 457 790 463 806 b 607 989 561 919 604 969 b 588 1010 608 1001 604 1010 b 414 910 546 1011 469 957 b 268 1010 371 957 310 1011 b 242 989 251 1010 243 1001 b 292 879 240 969 264 924 b 396 790 331 813 344 790 z m 325 -14 b 610 185 471 -14 589 64 b 418 410 628 285 556 344 b 272 539 313 458 264 488 b 364 600 278 569 311 600 b 522 525 424 600 478 564 b 599 478 561 489 575 471 b 617 542 619 483 626 499 b 597 610 611 571 606 588 b 388 681 572 674 443 681 b 92 499 254 681 114 625 b 258 271 71 385 158 317 b 421 128 368 219 431 181 b 333 67 417 96 386 67 b 111 199 244 67 167 125 b 53 239 86 228 74 244 b 29 185 35 233 24 215 b 56 71 38 138 44 107 b 325 -14 78 -3 207 -14 z "},"ş":{"ha":676,"x_min":0,"x_max":0,"o":"m 364 600 b 522 525 424 600 478 564 b 599 478 561 489 575 471 b 617 542 619 483 626 499 b 597 610 611 571 606 588 b 388 681 572 674 443 681 b 92 499 254 681 114 625 b 258 271 71 385 158 317 b 421 128 368 219 431 181 b 333 67 417 96 386 67 b 111 199 244 67 167 125 b 53 239 86 228 74 244 b 29 185 35 233 24 215 b 56 71 38 138 44 107 b 239 -11 72 15 150 -4 l 194 -93 b 211 -119 188 -107 197 -117 b 303 -189 251 -129 303 -143 b 243 -242 303 -217 282 -242 b 182 -222 218 -242 199 -233 b 151 -250 154 -206 135 -231 b 269 -297 171 -275 210 -297 b 406 -182 346 -297 406 -250 b 275 -71 406 -112 346 -82 l 307 -14 l 325 -14 b 610 185 471 -14 589 64 b 418 410 628 285 556 344 b 272 539 313 458 264 488 b 364 600 278 569 311 600 z "},"ß":{"ha":835,"x_min":0,"x_max":0,"o":"m 138 -115 b 176 -81 158 -110 172 -104 l 282 667 b 406 903 297 781 311 903 b 468 800 465 903 475 847 b 356 485 454 699 368 574 b 490 293 342 382 410 346 b 611 140 574 239 619 199 b 525 68 606 99 572 68 b 350 192 433 68 378 144 b 314 229 338 211 329 229 b 275 168 293 229 279 203 b 293 54 269 128 274 82 b 482 -15 329 4 425 -15 b 779 215 642 -15 760 85 b 622 449 794 331 707 396 b 471 581 507 521 465 543 b 625 822 481 644 608 708 b 444 988 639 921 571 988 b 94 663 257 988 121 851 l 6 42 b -25 -93 -6 -33 -10 -71 b 8 -144 -50 -131 -32 -156 z "},"t":{"ha":550,"x_min":0,"x_max":0,"o":"m 347 658 b 371 794 356 704 363 750 b 335 832 375 821 358 838 l 224 807 b 186 768 203 801 190 790 b 164 635 181 735 172 688 l 96 625 b 43 578 67 621 49 608 b 82 529 35 538 50 526 l 147 536 b 96 188 125 403 103 257 b 264 -14 83 63 139 -14 b 476 151 382 -14 476 82 b 435 165 476 175 456 190 b 347 117 410 135 376 117 b 292 256 303 117 279 146 b 331 547 300 329 314 433 l 461 558 b 540 617 494 563 519 561 b 501 678 558 665 551 685 z "},"ŧ":{"ha":550,"x_min":0,"x_max":0,"o":"m 347 658 b 371 794 356 704 363 750 b 335 832 375 821 358 838 l 224 807 b 186 768 203 801 190 790 b 164 635 181 735 172 688 l 96 625 b 43 578 67 621 49 608 b 82 529 35 538 50 526 l 147 536 b 132 444 142 506 136 475 l 63 444 b 28 407 39 444 28 432 b 63 367 28 381 39 367 l 119 367 b 96 188 108 293 100 228 b 264 -14 83 63 139 -14 b 476 151 382 -14 476 82 b 435 165 476 175 456 190 b 347 117 410 135 376 117 b 292 256 303 117 279 146 l 306 367 l 374 367 b 408 407 397 367 408 381 b 374 444 408 432 397 444 l 315 444 b 331 547 321 478 325 513 l 461 558 b 540 617 494 563 519 561 b 501 678 558 665 551 685 z "},"ť":{"ha":550,"x_min":0,"x_max":0,"o":"m 560 1049 b 479 972 524 1049 493 1026 b 428 753 474 951 442 813 b 449 722 424 733 432 722 b 617 975 496 722 607 904 b 560 1049 624 1019 600 1049 z m 347 658 b 371 794 356 704 363 750 b 335 832 375 821 358 838 l 224 807 b 186 768 203 801 190 790 b 164 635 181 735 172 688 l 96 625 b 43 578 67 621 49 608 b 82 529 35 538 50 526 l 147 536 b 96 188 125 403 103 257 b 264 -14 83 63 139 -14 b 476 151 382 -14 476 82 b 435 165 476 175 456 190 b 347 117 410 135 376 117 b 292 256 303 117 279 146 b 331 547 300 329 314 433 l 461 558 b 540 617 494 563 519 561 b 501 678 558 665 551 685 z "},"u":{"ha":886,"x_min":0,"x_max":0,"o":"m 799 157 b 736 118 779 157 763 118 b 714 182 714 118 707 138 l 783 639 b 747 676 786 663 772 683 l 632 649 b 594 610 613 643 597 633 l 575 488 b 340 97 531 208 422 97 b 279 303 256 97 258 181 l 331 636 b 297 679 336 665 321 679 b 163 646 265 679 211 664 b 67 574 78 614 67 594 b 119 469 67 531 132 553 l 88 256 b 282 -14 64 89 122 -14 b 524 126 375 -14 454 35 b 639 -12 519 24 574 -12 b 821 131 751 -12 818 72 b 799 157 821 150 808 157 z "},"ú":{"ha":886,"x_min":0,"x_max":0,"o":"m 425 757 b 676 857 493 732 651 785 b 615 957 694 908 669 957 b 508 899 582 957 547 931 b 407 788 460 856 415 810 b 425 757 403 775 407 764 z m 799 157 b 736 118 779 157 763 118 b 714 182 714 118 707 138 l 783 639 b 747 676 786 663 772 683 l 632 649 b 594 610 613 643 597 633 l 575 488 b 340 97 531 208 422 97 b 279 303 256 97 258 181 l 331 636 b 297 679 336 665 321 679 b 163 646 265 679 211 664 b 67 574 78 614 67 594 b 119 469 67 531 132 553 l 88 256 b 282 -14 64 89 122 -14 b 524 126 375 -14 454 35 b 639 -12 519 24 574 -12 b 821 131 751 -12 818 72 b 799 157 821 150 808 157 z "},"û":{"ha":886,"x_min":0,"x_max":0,"o":"m 361 733 b 535 835 403 732 479 786 b 681 733 578 786 639 732 b 706 754 699 733 704 742 b 653 869 708 774 679 824 b 551 953 614 938 613 953 b 422 864 500 953 481 931 b 340 754 382 819 344 774 b 361 733 339 742 344 733 z m 799 157 b 736 118 779 157 763 118 b 714 182 714 118 707 138 l 783 639 b 747 676 786 663 772 683 l 632 649 b 594 610 613 643 597 633 l 575 488 b 340 97 531 208 422 97 b 279 303 256 97 258 181 l 331 636 b 297 679 336 665 321 679 b 163 646 265 679 211 664 b 67 574 78 614 67 594 b 119 469 67 531 132 553 l 88 256 b 282 -14 64 89 122 -14 b 524 126 375 -14 454 35 b 639 -12 519 24 574 -12 b 821 131 751 -12 818 72 b 799 157 821 150 808 157 z "},"ü":{"ha":886,"x_min":0,"x_max":0,"o":"m 378 757 b 483 851 433 757 483 797 b 406 928 483 897 451 928 b 307 825 349 928 307 876 b 378 757 307 783 339 757 z m 607 757 b 711 851 661 757 711 797 b 632 928 711 897 679 928 b 533 825 578 928 533 876 b 607 757 533 783 565 757 z m 799 157 b 736 118 779 157 763 118 b 714 182 714 118 707 138 l 783 639 b 747 676 786 663 772 683 l 632 649 b 594 610 613 643 597 633 l 575 488 b 340 97 531 208 422 97 b 279 303 256 97 258 181 l 331 636 b 297 679 336 665 321 679 b 163 646 265 679 211 664 b 67 574 78 614 67 594 b 119 469 67 531 132 553 l 88 256 b 282 -14 64 89 122 -14 b 524 126 375 -14 454 35 b 639 -12 519 24 574 -12 b 821 131 751 -12 818 72 b 799 157 821 150 808 157 z "},"ù":{"ha":886,"x_min":0,"x_max":0,"o":"m 619 757 b 638 788 638 764 642 775 b 538 899 629 810 585 856 b 411 954 490 938 449 968 b 368 857 372 940 351 903 b 619 757 393 785 551 732 z m 799 157 b 736 118 779 157 763 118 b 714 182 714 118 707 138 l 783 639 b 747 676 786 663 772 683 l 632 649 b 594 610 613 643 597 633 l 575 488 b 340 97 531 208 422 97 b 279 303 256 97 258 181 l 331 636 b 297 679 336 665 321 679 b 163 646 265 679 211 664 b 67 574 78 614 67 594 b 119 469 67 531 132 553 l 88 256 b 282 -14 64 89 122 -14 b 524 126 375 -14 454 35 b 639 -12 519 24 574 -12 b 821 131 751 -12 818 72 b 799 157 821 150 808 157 z "},"ű":{"ha":886,"x_min":0,"x_max":0,"o":"m 378 735 b 557 893 443 735 557 826 b 490 960 557 936 526 960 b 404 876 457 960 431 924 b 354 754 378 825 354 774 b 378 735 354 742 363 735 z m 594 733 b 776 886 660 733 776 821 b 714 953 776 929 747 953 b 625 874 679 953 654 918 b 568 753 594 824 568 771 b 594 733 567 742 576 733 z m 799 157 b 736 118 779 157 763 118 b 714 182 714 118 707 138 l 783 639 b 747 676 786 663 772 683 l 632 649 b 594 610 613 643 597 633 l 575 488 b 340 97 531 208 422 97 b 279 303 256 97 258 181 l 331 636 b 297 679 336 665 321 679 b 163 646 265 679 211 664 b 67 574 78 614 67 594 b 119 469 67 531 132 553 l 88 256 b 282 -14 64 89 122 -14 b 524 126 375 -14 454 35 b 639 -12 519 24 574 -12 b 821 131 751 -12 818 72 b 799 157 821 150 808 157 z "},"ū":{"ha":886,"x_min":0,"x_max":0,"o":"m 653 754 b 731 803 713 754 718 761 b 679 844 740 836 735 844 l 365 844 b 294 796 313 844 306 836 b 340 754 285 761 289 754 z m 799 157 b 736 118 779 157 763 118 b 714 182 714 118 707 138 l 783 639 b 747 676 786 663 772 683 l 632 649 b 594 610 613 643 597 633 l 575 488 b 340 97 531 208 422 97 b 279 303 256 97 258 181 l 331 636 b 297 679 336 665 321 679 b 163 646 265 679 211 664 b 67 574 78 614 67 594 b 119 469 67 531 132 553 l 88 256 b 282 -14 64 89 122 -14 b 524 126 375 -14 454 35 b 639 -12 519 24 574 -12 b 821 131 751 -12 818 72 b 799 157 821 150 808 157 z "},"ģ":{"ha":781,"x_min":0,"x_max":0,"o":"m 449 728 b 538 806 494 728 532 760 b 503 881 543 842 528 860 b 478 924 483 894 475 907 b 513 976 481 940 490 956 b 456 974 533 996 500 1011 b 372 825 417 939 381 886 b 449 728 363 758 399 728 z m 731 782 b 669 749 704 782 686 768 b 539 675 617 690 569 675 b 443 679 507 675 492 679 l 442 679 b 83 394 246 679 83 549 b 167 240 83 325 114 274 b 40 110 86 207 49 161 b 110 -12 33 53 63 13 b 6 -125 50 -35 13 -82 b 299 -293 -10 -244 133 -293 b 738 -47 542 -293 717 -196 b 560 106 751 47 689 106 b 325 92 500 106 404 92 b 189 161 257 92 182 106 b 229 213 192 183 210 200 b 365 193 268 200 314 193 b 710 472 557 193 710 308 b 644 615 710 529 686 579 b 783 724 710 626 779 661 b 731 782 785 758 761 782 z m 388 268 b 269 410 310 268 269 329 b 414 604 269 506 325 604 b 526 461 492 604 526 538 b 388 268 526 367 476 268 z m 256 -53 b 479 -46 340 -54 404 -46 b 560 -108 550 -42 565 -75 b 347 -211 553 -171 481 -211 b 158 -117 226 -211 151 -179 b 256 -53 167 -69 214 -51 z "},"ķ":{"ha":786,"x_min":0,"x_max":0,"o":"m 714 144 b 650 110 694 144 681 110 b 483 306 586 110 522 214 b 719 543 615 353 719 431 b 560 681 719 632 643 681 b 321 563 469 681 385 638 l 374 949 b 339 992 378 979 364 992 b 201 960 308 992 257 982 b 106 889 122 926 106 910 b 169 789 106 844 182 868 l 63 26 b 99 -14 58 0 74 -19 l 213 13 b 250 50 231 17 247 28 l 279 258 b 340 268 299 261 319 264 b 568 -14 375 121 438 -14 b 733 117 671 -14 733 65 b 714 144 733 131 729 144 z m 293 361 b 468 568 314 469 388 568 b 550 490 522 568 551 532 b 289 336 549 401 413 343 z m 358 -68 b 264 -162 314 -68 264 -101 b 314 -282 264 -226 314 -239 b 260 -378 314 -329 260 -353 b 279 -394 260 -386 268 -394 b 447 -167 338 -394 447 -289 b 358 -68 447 -104 408 -68 z "},"ļ":{"ha":425,"x_min":0,"x_max":0,"o":"m 197 -12 b 369 131 301 -12 367 72 b 349 157 371 150 358 157 b 286 118 329 157 313 118 b 263 181 264 118 257 136 l 371 944 b 338 986 376 974 363 986 b 200 954 306 986 253 972 b 106 883 115 924 106 903 b 161 778 106 842 172 858 l 74 156 b 197 -12 56 35 103 -12 z m 94 -406 b 263 -178 153 -406 263 -300 b 174 -79 263 -115 224 -79 b 79 -174 129 -79 79 -112 b 129 -293 79 -237 129 -250 b 75 -389 129 -340 75 -364 b 94 -406 75 -397 83 -406 z "},"ņ":{"ha":890,"x_min":0,"x_max":0,"o":"m 814 157 b 750 118 793 157 776 118 b 728 181 729 118 725 136 l 744 418 b 563 679 756 576 706 679 b 293 500 453 679 360 613 l 314 636 b 281 678 318 665 304 678 b 163 646 249 678 211 664 b 67 574 79 614 67 594 b 119 467 67 531 132 550 l 56 25 b 90 -12 53 -1 67 -18 l 207 15 b 243 54 226 21 239 32 l 261 165 b 494 563 310 444 419 563 b 561 408 560 563 569 504 l 543 156 b 657 -12 532 43 576 -12 b 835 131 765 -12 832 72 b 814 157 835 150 822 157 z m 394 -68 b 300 -162 350 -68 300 -101 b 350 -282 300 -226 350 -239 b 296 -378 350 -329 296 -353 b 315 -394 296 -386 304 -394 b 483 -167 374 -394 483 -289 b 394 -68 483 -104 444 -68 z "},"ŗ":{"ha":619,"x_min":0,"x_max":0,"o":"m 513 679 b 301 546 442 679 361 629 l 314 636 b 281 678 318 665 304 678 b 163 646 249 678 211 664 b 67 574 79 614 67 594 b 119 467 67 531 132 550 l 56 24 b 90 -14 51 -3 67 -19 l 207 13 b 244 51 228 17 242 29 l 264 200 b 424 539 296 451 371 539 b 533 465 478 539 467 464 b 611 563 574 465 606 501 b 513 679 618 626 585 679 z m 122 -68 b 28 -162 78 -68 28 -101 b 78 -282 28 -226 78 -239 b 24 -378 78 -329 24 -353 b 43 -394 24 -386 32 -394 b 211 -167 101 -394 211 -289 b 122 -68 211 -104 172 -68 z "},"ţ":{"ha":550,"x_min":0,"x_max":0,"o":"m 347 658 b 371 794 356 704 363 750 b 335 832 375 821 358 838 l 224 807 b 186 768 203 801 190 790 b 164 635 181 735 172 688 l 96 625 b 43 578 67 621 49 608 b 82 529 35 538 50 526 l 147 536 b 96 188 125 403 103 257 b 214 -10 85 81 125 8 l 169 -93 b 186 -119 163 -107 172 -117 b 278 -189 226 -129 278 -143 b 218 -242 278 -217 257 -242 b 157 -222 193 -242 174 -233 b 126 -250 129 -206 110 -231 b 244 -297 146 -275 185 -297 b 381 -182 321 -297 381 -250 b 250 -71 381 -112 321 -82 l 282 -12 b 476 151 392 -4 476 86 b 435 165 476 175 456 190 b 347 117 410 135 376 117 b 292 256 303 117 279 146 b 331 547 300 329 314 433 l 461 558 b 540 617 494 563 519 561 b 501 678 558 665 551 685 z "},"ș":{"ha":676,"x_min":0,"x_max":0,"o":"m 325 -14 b 610 185 471 -14 589 64 b 418 410 628 285 556 344 b 272 539 313 458 264 488 b 364 600 278 569 311 600 b 522 525 424 600 478 564 b 599 478 561 489 575 471 b 617 542 619 483 626 499 b 597 610 611 571 606 588 b 388 681 572 674 443 681 b 92 499 254 681 114 625 b 258 271 71 385 158 317 b 421 128 368 219 431 181 b 333 67 417 96 386 67 b 111 199 244 67 167 125 b 53 239 86 228 74 244 b 29 185 35 233 24 215 b 56 71 38 138 44 107 b 325 -14 78 -3 207 -14 z m 210 -394 b 378 -167 268 -394 378 -289 b 289 -68 378 -104 339 -68 b 194 -162 244 -68 194 -101 b 244 -282 194 -226 244 -239 b 190 -378 244 -329 190 -353 b 210 -394 190 -386 199 -394 z "},"ț":{"ha":550,"x_min":0,"x_max":0,"o":"m 347 658 b 371 794 356 704 363 750 b 335 832 375 821 358 838 l 224 807 b 186 768 203 801 190 790 b 164 635 181 735 172 688 l 96 625 b 43 578 67 621 49 608 b 82 529 35 538 50 526 l 147 536 b 96 188 125 403 103 257 b 264 -14 83 63 139 -14 b 476 151 382 -14 476 82 b 435 165 476 175 456 190 b 347 117 410 135 376 117 b 292 256 303 117 279 146 b 331 547 300 329 314 433 l 461 558 b 540 617 494 563 519 561 b 501 678 558 665 551 685 z m 240 -68 b 146 -162 196 -68 146 -101 b 196 -282 146 -226 196 -239 b 142 -378 196 -329 142 -353 b 161 -394 142 -386 150 -394 b 329 -167 219 -394 329 -289 b 240 -68 329 -104 290 -68 z "},"ų":{"ha":886,"x_min":0,"x_max":0,"o":"m 772 -172 b 721 -185 754 -181 736 -185 b 650 -115 674 -185 650 -154 b 699 -4 650 -85 664 -49 b 821 131 775 19 818 83 b 799 157 821 150 808 157 b 736 118 779 157 763 118 b 714 182 714 118 707 138 l 783 639 b 747 676 786 663 772 683 l 632 649 b 594 610 613 643 597 633 l 575 488 b 340 97 531 208 422 97 b 279 303 256 97 258 181 l 331 636 b 297 679 336 665 321 679 b 163 646 265 679 211 664 b 67 574 78 614 67 594 b 119 469 67 531 132 553 l 88 256 b 282 -14 64 89 122 -14 b 524 126 375 -14 454 35 b 614 -11 519 36 560 -1 b 536 -139 563 -49 536 -93 b 675 -257 536 -210 594 -257 b 796 -208 721 -257 768 -237 b 772 -172 817 -187 807 -156 z "},"ů":{"ha":886,"x_min":0,"x_max":0,"o":"m 501 713 b 672 856 585 713 660 768 b 546 994 685 940 628 994 b 375 851 461 994 386 938 b 501 713 363 768 418 713 z m 531 922 b 588 858 567 922 588 896 b 518 788 585 819 558 788 b 460 854 482 788 460 815 b 531 922 463 894 490 922 z m 799 157 b 736 118 779 157 763 118 b 714 182 714 118 707 138 l 783 639 b 747 676 786 663 772 683 l 632 649 b 594 610 613 643 597 633 l 575 488 b 340 97 531 208 422 97 b 279 303 256 97 258 181 l 331 636 b 297 679 336 665 321 679 b 163 646 265 679 211 664 b 67 574 78 614 67 594 b 119 469 67 531 132 553 l 88 256 b 282 -14 64 89 122 -14 b 524 126 375 -14 454 35 b 639 -12 519 24 574 -12 b 821 131 751 -12 818 72 b 799 157 821 150 808 157 z "},"v":{"ha":721,"x_min":0,"x_max":0,"o":"m 258 -14 b 693 579 501 -14 693 322 b 604 683 693 628 672 683 b 493 581 551 683 493 636 b 550 406 493 519 550 496 b 351 111 550 278 442 111 b 282 282 286 111 267 167 l 331 636 b 297 679 335 665 321 679 b 165 646 265 679 214 664 b 71 574 82 614 71 594 b 124 469 71 531 135 553 l 94 258 b 258 -14 71 72 144 -14 z "},"w":{"ha":1125,"x_min":0,"x_max":0,"o":"m 1004 683 b 893 581 951 683 893 636 b 950 406 893 519 950 496 b 764 110 950 258 865 110 b 693 282 697 110 678 167 l 740 636 b 706 679 743 665 731 679 b 586 650 674 679 621 667 b 549 589 563 639 554 625 l 518 353 b 353 110 486 196 435 110 b 282 282 288 110 267 164 l 331 636 b 297 679 335 665 321 679 b 165 646 265 679 214 664 b 71 574 82 614 71 594 b 124 469 71 531 135 553 l 94 258 b 275 -14 71 72 151 -14 b 513 108 389 -14 463 39 b 696 -14 536 25 601 -14 b 1093 558 950 -14 1093 326 b 1004 683 1093 628 1072 683 z "},"":{"ha":1125,"x_min":0,"x_max":0,"o":"m 1004 683 b 893 581 951 683 893 636 b 950 406 893 519 950 496 b 764 110 950 258 865 110 b 693 282 697 110 678 167 l 740 636 b 706 679 743 665 731 679 b 586 650 674 679 621 667 b 549 589 563 639 554 625 l 518 353 b 353 110 486 196 435 110 b 282 282 288 110 267 164 l 331 636 b 297 679 335 665 321 679 b 165 646 265 679 214 664 b 71 574 82 614 71 594 b 124 469 71 531 135 553 l 94 258 b 275 -14 71 72 151 -14 b 513 108 389 -14 463 39 b 696 -14 536 25 601 -14 b 1093 558 950 -14 1093 326 b 1004 683 1093 628 1072 683 z "},"ẃ":{"ha":1125,"x_min":0,"x_max":0,"o":"m 561 757 b 813 857 629 732 788 785 b 751 957 831 908 806 957 b 644 899 718 957 683 931 b 543 788 596 856 551 810 b 561 757 539 775 543 764 z m 1004 683 b 893 581 951 683 893 636 b 950 406 893 519 950 496 b 764 110 950 258 865 110 b 693 282 697 110 678 167 l 740 636 b 706 679 743 665 731 679 b 586 650 674 679 621 667 b 549 589 563 639 554 625 l 518 353 b 353 110 486 196 435 110 b 282 282 288 110 267 164 l 331 636 b 297 679 335 665 321 679 b 165 646 265 679 214 664 b 71 574 82 614 71 594 b 124 469 71 531 135 553 l 94 258 b 275 -14 71 72 151 -14 b 513 108 389 -14 463 39 b 696 -14 536 25 601 -14 b 1093 558 950 -14 1093 326 b 1004 683 1093 628 1072 683 z "},"ŵ":{"ha":1125,"x_min":0,"x_max":0,"o":"m 497 733 b 671 835 539 732 615 786 b 817 733 714 786 775 732 b 842 754 835 733 840 742 b 789 869 844 774 815 824 b 688 953 750 938 749 953 b 558 864 636 953 617 931 b 476 754 518 819 481 774 b 497 733 475 742 481 733 z m 1004 683 b 893 581 951 683 893 636 b 950 406 893 519 950 496 b 764 110 950 258 865 110 b 693 282 697 110 678 167 l 740 636 b 706 679 743 665 731 679 b 586 650 674 679 621 667 b 549 589 563 639 554 625 l 518 353 b 353 110 486 196 435 110 b 282 282 288 110 267 164 l 331 636 b 297 679 335 665 321 679 b 165 646 265 679 214 664 b 71 574 82 614 71 594 b 124 469 71 531 135 553 l 94 258 b 275 -14 71 72 151 -14 b 513 108 389 -14 463 39 b 696 -14 536 25 601 -14 b 1093 558 950 -14 1093 326 b 1004 683 1093 628 1072 683 z "},"ẅ":{"ha":1125,"x_min":0,"x_max":0,"o":"m 514 757 b 619 851 569 757 619 797 b 542 928 619 897 588 928 b 443 825 485 928 443 876 b 514 757 443 783 475 757 z m 743 757 b 847 851 797 757 847 797 b 768 928 847 897 815 928 b 669 825 714 928 669 876 b 743 757 669 783 701 757 z m 1004 683 b 893 581 951 683 893 636 b 950 406 893 519 950 496 b 764 110 950 258 865 110 b 693 282 697 110 678 167 l 740 636 b 706 679 743 665 731 679 b 586 650 674 679 621 667 b 549 589 563 639 554 625 l 518 353 b 353 110 486 196 435 110 b 282 282 288 110 267 164 l 331 636 b 297 679 335 665 321 679 b 165 646 265 679 214 664 b 71 574 82 614 71 594 b 124 469 71 531 135 553 l 94 258 b 275 -14 71 72 151 -14 b 513 108 389 -14 463 39 b 696 -14 536 25 601 -14 b 1093 558 950 -14 1093 326 b 1004 683 1093 628 1072 683 z "},"ẁ":{"ha":1125,"x_min":0,"x_max":0,"o":"m 756 757 b 774 788 774 764 778 775 b 674 899 765 810 721 856 b 547 954 626 938 585 968 b 504 857 508 940 488 903 b 756 757 529 785 688 732 z m 1004 683 b 893 581 951 683 893 636 b 950 406 893 519 950 496 b 764 110 950 258 865 110 b 693 282 697 110 678 167 l 740 636 b 706 679 743 665 731 679 b 586 650 674 679 621 667 b 549 589 563 639 554 625 l 518 353 b 353 110 486 196 435 110 b 282 282 288 110 267 164 l 331 636 b 297 679 335 665 321 679 b 165 646 265 679 214 664 b 71 574 82 614 71 594 b 124 469 71 531 135 553 l 94 258 b 275 -14 71 72 151 -14 b 513 108 389 -14 463 39 b 696 -14 536 25 601 -14 b 1093 558 950 -14 1093 326 b 1004 683 1093 628 1072 683 z "},"x":{"ha":750,"x_min":0,"x_max":0,"o":"m 665 681 b 415 435 579 681 494 564 l 326 644 b 276 682 315 669 297 682 b 97 567 235 682 97 611 b 139 539 97 543 117 540 b 210 464 167 536 190 506 l 282 294 b 126 131 221 193 165 131 b 65 163 101 131 96 163 b -7 78 32 163 -7 131 b 85 -14 -7 29 24 -14 b 319 207 168 -14 240 78 l 347 140 b 507 -14 386 53 422 -14 b 683 101 583 -14 683 49 b 661 126 683 114 678 126 b 606 113 642 126 629 113 b 494 250 558 113 524 183 l 454 346 b 618 536 519 453 582 536 b 681 504 644 536 650 504 b 751 585 714 504 746 536 b 665 681 757 638 726 681 z "},"y":{"ha":735,"x_min":0,"x_max":0,"o":"m 613 683 b 501 581 560 683 501 636 b 558 406 501 519 558 496 b 440 82 558 303 504 186 b 271 632 393 279 340 451 b 213 681 261 658 243 681 b 22 560 158 681 22 608 b 60 532 22 547 35 533 b 136 475 99 531 115 522 b 269 53 193 338 242 181 b 281 -75 282 -6 286 -39 b 165 -187 271 -136 222 -187 b 74 -108 104 -187 92 -150 b -3 -50 56 -68 28 -50 b -92 -158 -50 -50 -92 -90 b 76 -292 -92 -233 -36 -292 b 494 7 251 -292 385 -165 b 701 576 561 110 701 382 b 613 683 701 628 681 683 z "},"":{"ha":735,"x_min":0,"x_max":0,"o":"m 613 683 b 501 581 560 683 501 636 b 558 406 501 519 558 496 b 440 82 558 303 504 186 b 271 632 393 279 340 451 b 213 681 261 658 243 681 b 22 560 158 681 22 608 b 60 532 22 547 35 533 b 136 475 99 531 115 522 b 269 53 193 338 242 181 b 281 -75 282 -6 286 -39 b 165 -187 271 -136 222 -187 b 74 -108 104 -187 92 -150 b -3 -50 56 -68 28 -50 b -92 -158 -50 -50 -92 -90 b 76 -292 -92 -233 -36 -292 b 494 7 251 -292 385 -165 b 701 576 561 110 701 382 b 613 683 701 628 681 683 z "},"ý":{"ha":735,"x_min":0,"x_max":0,"o":"m 328 763 b 579 863 396 738 554 790 b 518 963 597 914 572 963 b 411 904 485 963 450 936 b 310 793 363 861 318 815 b 328 763 306 781 310 769 z m 613 683 b 501 581 560 683 501 636 b 558 406 501 519 558 496 b 440 82 558 303 504 186 b 271 632 393 279 340 451 b 213 681 261 658 243 681 b 22 560 158 681 22 608 b 60 532 22 547 35 533 b 136 475 99 531 115 522 b 269 53 193 338 242 181 b 281 -75 282 -6 286 -39 b 165 -187 271 -136 222 -187 b 74 -108 104 -187 92 -150 b -3 -50 56 -68 28 -50 b -92 -158 -50 -50 -92 -90 b 76 -292 -92 -233 -36 -292 b 494 7 251 -292 385 -165 b 701 576 561 110 701 382 b 613 683 701 628 681 683 z "},"ŷ":{"ha":735,"x_min":0,"x_max":0,"o":"m 265 739 b 439 840 307 738 383 792 b 585 739 482 792 543 738 b 610 760 603 739 608 747 b 557 875 613 779 583 829 b 456 958 518 943 517 958 b 326 869 404 958 385 936 b 244 760 286 825 249 779 b 265 739 243 747 249 739 z m 613 683 b 501 581 560 683 501 636 b 558 406 501 519 558 496 b 440 82 558 303 504 186 b 271 632 393 279 340 451 b 213 681 261 658 243 681 b 22 560 158 681 22 608 b 60 532 22 547 35 533 b 136 475 99 531 115 522 b 269 53 193 338 242 181 b 281 -75 282 -6 286 -39 b 165 -187 271 -136 222 -187 b 74 -108 104 -187 92 -150 b -3 -50 56 -68 28 -50 b -92 -158 -50 -50 -92 -90 b 76 -292 -92 -233 -36 -292 b 494 7 251 -292 385 -165 b 701 576 561 110 701 382 b 613 683 701 628 681 683 z "},"ÿ":{"ha":735,"x_min":0,"x_max":0,"o":"m 282 763 b 388 857 338 763 388 803 b 310 933 388 903 356 933 b 211 831 253 933 211 882 b 282 763 211 789 243 763 z m 511 763 b 615 857 565 763 615 803 b 536 933 615 903 583 933 b 438 831 482 933 438 882 b 511 763 438 789 469 763 z m 613 683 b 501 581 560 683 501 636 b 558 406 501 519 558 496 b 440 82 558 303 504 186 b 271 632 393 279 340 451 b 213 681 261 658 243 681 b 22 560 158 681 22 608 b 60 532 22 547 35 533 b 136 475 99 531 115 522 b 269 53 193 338 242 181 b 281 -75 282 -6 286 -39 b 165 -187 271 -136 222 -187 b 74 -108 104 -187 92 -150 b -3 -50 56 -68 28 -50 b -92 -158 -50 -50 -92 -90 b 76 -292 -92 -233 -36 -292 b 494 7 251 -292 385 -165 b 701 576 561 110 701 382 b 613 683 701 628 681 683 z "},"ỳ":{"ha":735,"x_min":0,"x_max":0,"o":"m 524 763 b 542 793 542 769 546 781 b 442 904 533 815 489 861 b 315 960 394 943 353 974 b 272 863 276 946 256 908 b 524 763 297 790 456 738 z m 613 683 b 501 581 560 683 501 636 b 558 406 501 519 558 496 b 440 82 558 303 504 186 b 271 632 393 279 340 451 b 213 681 261 658 243 681 b 22 560 158 681 22 608 b 60 532 22 547 35 533 b 136 475 99 531 115 522 b 269 53 193 338 242 181 b 281 -75 282 -6 286 -39 b 165 -187 271 -136 222 -187 b 74 -108 104 -187 92 -150 b -3 -50 56 -68 28 -50 b -92 -158 -50 -50 -92 -90 b 76 -292 -92 -233 -36 -292 b 494 7 251 -292 385 -165 b 701 576 561 110 701 382 b 613 683 701 628 681 683 z "},"z":{"ha":704,"x_min":0,"x_max":0,"o":"m 443 -12 b 643 199 607 -12 643 126 b 624 236 643 221 642 236 b 471 154 588 236 574 161 b 242 160 419 151 311 169 l 651 578 b 693 653 672 597 693 629 b 669 679 693 668 689 679 b 539 663 636 679 621 663 b 254 681 451 663 338 681 b 103 492 160 681 110 578 b 122 440 100 456 104 440 b 236 515 153 440 163 515 b 460 508 307 515 374 500 l 58 104 b 11 22 32 78 11 49 b 39 -8 11 4 17 -8 b 161 7 71 -8 97 7 b 443 -12 221 7 358 -12 z "},"ź":{"ha":704,"x_min":0,"x_max":0,"o":"m 301 750 b 553 850 369 725 528 778 b 492 950 571 901 546 950 b 385 892 458 950 424 924 b 283 781 336 849 292 803 b 301 750 279 768 283 757 z m 443 -12 b 643 199 607 -12 643 126 b 624 236 643 221 642 236 b 471 154 588 236 574 161 b 242 160 419 151 311 169 l 651 578 b 693 653 672 597 693 629 b 669 679 693 668 689 679 b 539 663 636 679 621 663 b 254 681 451 663 338 681 b 103 492 160 681 110 578 b 122 440 100 456 104 440 b 236 515 153 440 163 515 b 460 508 307 515 374 500 l 58 104 b 11 22 32 78 11 49 b 39 -8 11 4 17 -8 b 161 7 71 -8 97 7 b 443 -12 221 7 358 -12 z "},"ž":{"ha":704,"x_min":0,"x_max":0,"o":"m 417 771 b 542 854 478 771 483 786 b 628 969 582 900 625 950 b 608 990 629 982 625 990 b 435 890 567 992 490 938 b 289 990 392 938 331 992 b 263 969 272 990 264 982 b 313 860 261 950 285 904 b 417 771 351 793 365 771 z m 443 -12 b 643 199 607 -12 643 126 b 624 236 643 221 642 236 b 471 154 588 236 574 161 b 242 160 419 151 311 169 l 651 578 b 693 653 672 597 693 629 b 669 679 693 668 689 679 b 539 663 636 679 621 663 b 254 681 451 663 338 681 b 103 492 160 681 110 578 b 122 440 100 456 104 440 b 236 515 153 440 163 515 b 460 508 307 515 374 500 l 58 104 b 11 22 32 78 11 49 b 39 -8 11 4 17 -8 b 161 7 71 -8 97 7 b 443 -12 221 7 358 -12 z "},"ż":{"ha":704,"x_min":0,"x_max":0,"o":"m 408 738 b 558 867 481 736 556 799 b 471 954 558 914 521 953 b 325 822 400 957 326 886 b 408 738 324 776 356 739 z m 443 -12 b 643 199 607 -12 643 126 b 624 236 643 221 642 236 b 471 154 588 236 574 161 b 242 160 419 151 311 169 l 651 578 b 693 653 672 597 693 629 b 669 679 693 668 689 679 b 539 663 636 679 621 663 b 254 681 451 663 338 681 b 103 492 160 681 110 578 b 122 440 100 456 104 440 b 236 515 153 440 163 515 b 460 508 307 515 374 500 l 58 104 b 11 22 32 78 11 49 b 39 -8 11 4 17 -8 b 161 7 71 -8 97 7 b 443 -12 221 7 358 -12 z "},"ª":{"ha":579,"x_min":0,"x_max":0,"o":"m 581 660 b 542 635 568 660 557 635 b 525 674 528 635 524 646 l 546 951 b 521 986 547 972 540 986 b 444 968 499 986 468 968 b 347 985 424 968 394 985 b 111 710 222 985 111 861 b 256 553 111 613 175 553 b 406 633 313 553 368 583 b 485 553 407 571 442 553 b 593 643 550 553 592 607 b 581 660 594 656 586 660 z m 304 628 b 235 738 264 628 235 660 b 349 935 236 821 276 935 b 424 844 390 935 428 904 l 422 817 b 304 628 415 724 367 628 z "},"º":{"ha":553,"x_min":0,"x_max":0,"o":"m 307 553 b 563 810 450 553 563 661 b 374 986 563 908 493 986 b 114 733 233 986 114 872 b 307 553 114 625 189 553 z m 317 607 b 236 731 261 607 236 660 b 358 933 236 821 279 933 b 433 814 415 933 433 878 b 317 607 433 722 392 607 z "},"А":{"ha":994,"x_min":0,"x_max":0,"o":"m 160 0 b 228 36 196 0 224 7 b 213 176 235 86 154 69 l 244 238 b 447 276 265 276 265 276 b 635 233 625 276 625 276 l 649 183 b 579 39 675 74 586 93 b 640 0 574 10 596 0 l 864 0 b 943 40 918 0 938 10 b 861 182 950 92 890 69 l 668 938 b 621 972 661 961 646 972 l 464 972 b 414 935 435 972 418 960 b 442 800 407 882 489 888 l 106 176 b -33 36 49 72 -25 88 b 35 0 -36 7 -10 0 z m 460 364 b 335 406 313 364 313 364 l 510 733 l 593 401 b 460 364 603 364 601 364 z "},"Б":{"ha":960,"x_min":0,"x_max":0,"o":"m 414 0 b 885 310 693 0 856 106 b 478 657 914 513 760 657 b 428 656 458 657 443 657 b 403 683 408 654 400 665 l 422 825 b 554 885 428 865 450 885 l 643 885 b 799 750 735 885 767 836 b 844 699 811 715 825 699 b 881 761 869 699 876 722 b 882 915 888 819 886 874 b 771 972 876 956 860 972 l 233 972 b 150 933 178 972 154 963 b 219 801 142 875 218 892 b 214 736 219 785 218 768 l 143 236 b 131 171 139 204 136 188 b 25 39 104 82 33 97 b 97 0 21 10 42 0 z m 417 85 b 325 129 344 85 319 97 l 382 538 b 433 575 386 567 397 576 b 681 289 586 574 704 463 b 417 85 661 153 561 85 z "},"В":{"ha":951,"x_min":0,"x_max":0,"o":"m 422 0 b 892 317 693 0 864 124 b 679 582 910 450 832 551 b 843 761 778 611 833 678 b 517 972 864 915 725 972 l 233 972 b 150 933 178 972 154 963 b 219 801 142 875 218 892 b 214 736 219 785 218 768 l 143 236 b 131 171 139 204 136 188 b 25 39 104 82 33 97 b 97 0 21 10 42 0 z m 465 617 b 397 647 435 617 392 614 l 425 840 b 490 885 429 876 454 885 b 646 735 599 885 658 818 b 465 617 635 656 578 617 z m 431 88 b 332 185 335 88 322 117 l 375 479 b 439 525 379 513 389 525 b 672 281 611 525 692 417 b 431 88 653 147 575 88 z "},"Г":{"ha":843,"x_min":0,"x_max":0,"o":"m 318 0 b 400 39 375 0 396 11 b 335 171 408 101 335 76 b 338 222 335 189 336 206 l 422 825 b 554 885 428 865 450 885 l 619 885 b 775 750 713 885 743 836 b 822 699 788 715 803 699 b 858 761 847 699 854 722 b 858 915 864 819 863 874 b 747 972 854 956 838 972 l 233 972 b 150 933 178 972 154 963 b 219 801 142 875 218 892 b 214 736 219 785 218 768 l 142 222 b 131 171 140 206 136 189 b 25 39 104 82 33 97 b 97 0 21 11 42 0 z "},"Ґ":{"ha":806,"x_min":0,"x_max":0,"o":"m 272 0 b 354 39 329 0 350 11 b 289 171 363 101 289 76 b 292 222 289 189 289 206 l 376 825 b 508 885 382 865 404 885 l 715 885 b 842 943 804 885 825 901 b 885 1097 857 983 874 1038 b 865 1158 892 1135 890 1158 b 806 1107 846 1158 828 1143 b 611 972 749 1022 704 972 l 188 972 b 104 933 132 972 108 963 b 174 801 96 875 172 892 b 168 736 174 785 172 768 l 96 222 b 85 171 93 206 90 189 b -21 39 58 82 -12 97 b 51 0 -25 11 -4 0 z "},"Д":{"ha":1050,"x_min":0,"x_max":0,"o":"m -60 -196 b 10 -144 -31 -196 -12 -179 b 197 0 68 -54 117 0 l 714 0 b 861 -144 796 0 826 -53 b 915 -194 874 -178 886 -194 b 958 -133 944 -194 954 -171 b 960 31 965 -62 965 -10 b 865 89 956 71 938 89 b 826 149 824 89 819 94 l 910 736 b 922 801 914 768 917 785 b 1028 933 949 892 1019 875 b 956 972 1032 963 1011 972 l 368 972 b 283 931 306 972 288 961 b 356 794 275 872 369 888 b 139 132 332 621 265 353 b 65 88 121 100 97 88 b -40 29 -1 88 -24 71 b -85 -133 -57 -10 -72 -62 b -60 -196 -92 -171 -89 -196 z m 231 88 b 464 822 354 349 396 507 b 610 885 475 876 533 885 b 726 825 713 885 731 865 l 622 89 z "},"Е":{"ha":892,"x_min":0,"x_max":0,"o":"m 656 0 b 781 58 740 0 764 17 b 826 226 797 97 811 150 b 806 290 832 264 833 285 b 735 238 783 296 764 285 b 542 89 676 140 639 89 l 450 88 b 328 153 338 88 321 107 l 371 456 b 486 524 378 515 413 524 b 675 390 619 522 607 375 b 707 458 701 396 713 408 l 697 617 b 661 658 694 642 688 658 b 499 611 613 658 615 611 b 403 679 425 611 393 621 l 422 821 b 554 885 428 865 451 885 l 615 885 b 804 753 713 885 764 840 b 865 713 824 717 839 704 b 896 781 892 719 897 743 b 879 924 894 839 888 886 b 772 972 871 965 853 972 l 233 972 b 151 933 179 972 154 964 b 214 736 140 861 239 917 l 143 236 b 24 39 118 56 35 111 b 96 0 21 8 40 0 z "},"Ё":{"ha":892,"x_min":0,"x_max":0,"o":"m 436 1064 b 542 1158 492 1064 542 1103 b 464 1235 542 1204 510 1235 b 365 1132 407 1235 365 1183 b 436 1064 365 1090 397 1064 z m 665 1064 b 769 1158 719 1064 769 1103 b 690 1235 769 1204 738 1235 b 592 1132 636 1235 592 1183 b 665 1064 592 1090 624 1064 z m 656 0 b 781 58 740 0 764 17 b 826 226 797 97 811 150 b 806 290 832 264 833 285 b 735 238 783 296 764 285 b 542 89 676 140 639 89 l 450 88 b 328 153 338 88 321 107 l 371 456 b 486 524 378 515 413 524 b 675 390 619 522 607 375 b 707 458 701 396 713 408 l 697 617 b 661 658 694 642 688 658 b 499 611 613 658 615 611 b 403 679 425 611 393 621 l 422 821 b 554 885 428 865 451 885 l 615 885 b 804 753 713 885 764 840 b 865 713 824 717 839 704 b 896 781 892 719 897 743 b 879 924 894 839 888 886 b 772 972 871 965 853 972 l 233 972 b 151 933 179 972 154 964 b 214 736 140 861 239 917 l 143 236 b 24 39 118 56 35 111 b 96 0 21 8 40 0 z "},"Ж":{"ha":1540,"x_min":0,"x_max":0,"o":"m 283 0 b 344 31 321 0 342 10 b 338 167 351 75 285 78 l 543 501 l 667 331 l 643 167 b 557 32 631 78 563 76 b 618 1 554 10 572 1 l 819 1 b 888 32 863 1 885 8 b 839 167 894 76 826 78 l 861 326 l 1040 506 l 1153 167 b 1108 31 1183 78 1114 75 b 1161 0 1106 10 1125 0 l 1407 0 b 1476 33 1442 0 1472 8 b 1369 175 1482 75 1407 68 l 1196 660 l 1361 825 b 1525 942 1433 896 1518 897 b 1458 972 1528 964 1508 972 l 1285 972 b 1224 942 1249 972 1226 965 b 1229 825 1217 897 1300 894 l 882 471 l 928 804 b 1015 939 942 893 1008 896 b 954 971 1018 963 999 971 l 751 971 b 683 940 710 971 688 964 b 732 804 678 894 744 893 l 686 475 l 440 825 b 481 942 392 894 474 897 b 426 972 483 965 464 972 l 254 972 b 179 942 203 972 182 964 b 308 825 174 897 258 896 l 432 656 l 125 175 b -22 33 57 68 -15 75 b 39 0 -25 8 4 0 z "},"З":{"ha":796,"x_min":0,"x_max":0,"o":"m 281 -12 b 735 276 518 -18 708 82 b 518 536 754 403 674 504 b 750 768 639 569 738 660 b 489 985 768 910 654 985 b 314 965 404 985 347 965 b 247 985 279 965 275 985 b 181 913 222 985 203 972 b 136 747 164 863 146 803 b 156 686 129 710 129 686 b 228 744 181 686 196 703 b 446 897 281 813 346 897 b 547 776 515 897 557 849 b 308 576 533 675 463 592 b 297 489 249 572 243 490 b 528 258 486 485 546 390 b 329 75 511 149 433 75 b 121 242 228 75 156 140 b 75 297 107 279 94 294 b 35 251 50 300 38 279 b 39 113 29 172 35 144 b 143 4 46 44 82 21 b 281 -12 186 -7 224 -11 z "},"И":{"ha":1161,"x_min":0,"x_max":0,"o":"m 317 0 b 400 39 375 0 396 10 b 336 217 408 110 315 68 l 853 664 l 792 222 b 674 39 772 85 683 108 b 746 0 671 11 692 0 l 967 0 b 1050 39 1025 0 1046 11 b 988 222 1060 115 968 63 l 1061 750 b 1178 933 1081 892 1168 865 b 1106 972 1182 963 1161 972 l 885 972 b 803 933 828 972 804 963 b 868 781 797 876 882 894 l 353 335 l 411 750 b 528 933 429 890 518 865 b 456 972 532 963 511 972 l 235 972 b 153 933 176 972 156 963 b 214 750 142 867 235 901 l 142 222 b 24 39 121 83 33 108 b 96 0 19 10 40 0 z "},"Й":{"ha":1161,"x_min":0,"x_max":0,"o":"m 675 1043 b 931 1196 793 1043 917 1099 b 881 1253 936 1228 913 1253 b 685 1111 799 1253 775 1111 b 528 1253 593 1111 608 1253 b 461 1196 496 1253 465 1231 b 675 1043 447 1101 543 1043 z m 317 0 b 400 39 375 0 396 10 b 336 217 408 110 315 68 l 853 664 l 792 222 b 674 39 772 85 683 108 b 746 0 671 11 692 0 l 967 0 b 1050 39 1025 0 1046 11 b 988 222 1060 115 968 63 l 1061 750 b 1178 933 1081 892 1168 865 b 1106 972 1182 963 1161 972 l 885 972 b 803 933 828 972 804 963 b 868 781 797 876 882 894 l 353 335 l 411 750 b 528 933 429 890 518 865 b 456 972 532 963 511 972 l 235 972 b 153 933 176 972 156 963 b 214 750 142 867 235 901 l 142 222 b 24 39 121 83 33 108 b 96 0 19 10 40 0 z "},"К":{"ha":1032,"x_min":0,"x_max":0,"o":"m 796 972 b 733 933 758 972 738 963 b 738 807 726 882 828 883 l 378 513 l 411 750 b 528 933 429 888 518 864 b 456 972 532 963 510 972 l 235 972 b 153 933 176 972 156 963 b 215 750 142 858 236 906 l 140 222 b 24 39 121 85 33 108 b 96 0 19 11 40 0 l 317 0 b 400 39 374 0 394 11 b 336 222 410 114 315 67 l 360 389 l 590 579 l 711 182 b 656 40 738 94 661 89 b 726 0 650 10 672 0 l 939 0 b 1015 39 990 0 1011 10 b 918 192 1024 100 956 75 l 753 713 l 869 807 b 1046 933 985 901 1038 874 b 974 972 1050 963 1025 972 z "},"Л":{"ha":1046,"x_min":0,"x_max":0,"o":"m 85 -14 b 258 61 153 -14 208 7 b 499 822 381 201 443 553 b 646 885 510 876 564 885 b 764 825 747 885 768 865 l 679 222 b 667 171 676 206 672 189 b 561 39 642 82 569 97 b 633 0 558 11 579 0 l 854 0 b 938 39 913 0 933 11 b 871 171 946 101 872 76 b 875 222 871 189 872 206 l 956 807 b 1049 940 968 894 1042 897 b 979 972 1051 963 1032 972 l 407 972 b 331 940 354 972 333 963 b 394 794 324 896 408 893 b 158 121 357 521 244 121 b 54 204 107 121 126 204 b -40 110 14 204 -31 169 b 85 -14 -53 18 28 -14 z "},"М":{"ha":1294,"x_min":0,"x_max":0,"o":"m 206 0 b 275 36 250 0 271 7 b 225 174 282 85 208 78 l 319 721 l 499 81 b 550 57 504 61 519 51 b 606 97 578 64 592 74 l 988 729 l 925 206 b 822 40 911 83 832 108 b 894 0 818 10 839 0 l 1107 0 b 1188 40 1163 0 1182 10 b 1117 206 1197 113 1104 79 l 1179 790 b 1276 933 1190 893 1268 876 b 1215 972 1281 963 1264 972 l 1063 972 b 1006 936 1038 972 1019 961 l 636 326 l 463 938 b 414 972 454 961 439 972 l 253 972 b 181 933 204 972 185 963 b 239 790 172 878 257 889 l 125 174 b 22 36 107 78 29 83 b 83 0 18 8 36 0 z "},"Н":{"ha":1160,"x_min":0,"x_max":0,"o":"m 317 0 b 400 39 375 0 396 10 b 333 171 407 101 335 75 b 338 222 333 188 335 204 l 363 404 b 600 472 371 472 371 472 b 815 404 825 472 825 472 l 790 222 b 778 171 788 204 783 188 b 674 39 753 82 682 97 b 744 0 669 10 690 0 l 967 0 b 1049 39 1024 0 1044 10 b 983 171 1057 101 983 75 b 986 222 983 188 985 204 l 1060 750 b 1072 801 1063 768 1067 785 b 1176 933 1097 892 1168 875 b 1106 972 1181 963 1160 972 l 883 972 b 801 933 826 972 806 963 b 867 801 793 871 867 897 b 864 750 867 785 865 768 l 847 628 b 614 560 838 560 838 560 b 393 628 383 560 383 560 l 411 750 b 422 801 413 768 417 785 b 528 933 447 892 519 875 b 456 972 532 963 511 972 l 235 972 b 153 933 176 972 156 963 b 218 801 144 871 217 897 b 214 750 218 785 217 768 l 142 222 b 129 171 139 204 135 188 b 24 39 104 82 32 97 b 96 0 19 10 40 0 z "},"О":{"ha":1076,"x_min":0,"x_max":0,"o":"m 497 -10 b 1056 563 817 -14 1056 244 b 633 983 1056 794 901 983 b 68 413 317 983 68 721 b 497 -10 68 163 258 -7 z m 543 96 b 278 426 378 96 278 231 b 600 886 278 653 403 886 b 844 551 761 886 844 746 b 543 96 844 332 742 96 z "},"П":{"ha":1110,"x_min":0,"x_max":0,"o":"m 318 1 b 400 40 375 1 396 11 b 335 172 408 103 335 76 b 338 224 335 189 335 206 l 422 821 b 635 883 428 865 450 883 b 825 821 808 883 831 865 l 740 224 b 729 172 738 206 735 189 b 624 40 704 83 632 99 b 696 1 619 11 640 1 l 917 1 b 999 40 975 1 996 11 b 933 172 1007 103 935 76 b 938 224 933 189 935 206 l 1008 736 b 1022 801 1013 768 1017 785 b 1128 933 1047 892 1119 875 b 1056 972 1132 963 1111 972 l 233 972 b 150 933 178 972 154 963 b 219 801 142 875 218 892 b 214 736 219 785 218 768 l 142 224 b 131 172 139 206 136 189 b 25 40 104 83 33 99 b 97 1 21 11 42 1 z "},"Р":{"ha":936,"x_min":0,"x_max":0,"o":"m 318 0 b 400 39 375 0 396 11 b 336 186 408 104 328 76 b 344 268 338 214 340 240 b 376 296 347 293 354 296 l 456 296 b 925 610 733 296 896 401 b 511 972 956 824 807 972 l 233 972 b 150 933 178 972 154 963 b 214 736 139 865 239 915 l 142 224 b 25 39 121 72 35 108 b 97 0 21 11 42 0 z m 458 381 b 367 425 385 381 361 393 l 426 853 b 497 890 431 882 442 890 b 721 588 642 890 749 778 b 458 381 701 449 603 381 z "},"С":{"ha":974,"x_min":0,"x_max":0,"o":"m 497 -14 b 900 192 678 -14 835 86 b 860 239 931 236 899 275 b 575 108 774 160 688 108 b 289 554 358 108 256 314 b 621 893 315 744 443 893 b 861 717 758 893 810 806 b 926 656 885 675 897 656 b 965 718 957 657 965 681 b 957 911 965 803 961 863 b 910 985 953 971 935 985 b 838 963 882 985 872 963 b 664 986 804 963 754 986 b 75 496 369 986 115 783 b 497 -14 35 201 214 -14 z "},"Т":{"ha":917,"x_min":0,"x_max":0,"o":"m 521 0 b 604 39 579 0 600 11 b 538 171 611 101 539 76 b 542 222 538 189 539 206 l 625 818 b 696 881 631 860 653 881 b 842 736 788 881 807 832 b 888 685 856 701 867 685 b 931 746 917 685 926 710 b 933 915 939 822 939 875 b 825 972 928 956 910 972 l 271 972 b 147 914 186 972 163 956 b 101 746 131 875 115 822 b 128 685 96 708 99 685 b 188 736 149 685 165 701 b 375 879 250 831 283 879 b 428 818 419 879 435 860 l 346 222 b 333 171 343 206 339 189 b 228 39 308 82 236 97 b 300 0 224 11 244 0 z "},"У":{"ha":946,"x_min":0,"x_max":0,"o":"m 217 -14 b 536 276 324 -14 404 53 l 844 796 b 986 935 906 899 978 883 b 918 971 989 964 963 971 l 793 971 b 726 935 758 971 729 964 b 738 796 718 885 800 901 l 539 453 l 392 814 b 443 940 361 892 438 896 b 382 971 447 963 428 971 l 147 971 b 86 940 110 971 88 964 b 168 814 78 896 136 892 l 397 261 b 394 229 401 250 401 240 b 283 122 353 160 317 122 b 182 193 232 122 253 193 b 90 106 142 193 97 154 b 217 -14 78 18 158 -14 z "},"Ф":{"ha":1186,"x_min":0,"x_max":0,"o":"m 653 0 b 736 39 711 0 732 10 b 665 165 744 94 654 69 b 682 181 667 176 671 182 b 765 178 717 178 740 178 b 1150 490 956 178 1124 306 b 865 792 1175 668 1057 792 b 764 788 833 792 807 790 b 754 803 753 786 751 792 b 865 933 778 900 856 875 b 792 972 868 963 847 972 l 571 972 b 489 933 514 972 493 963 b 561 801 481 874 565 901 b 544 786 560 790 556 785 b 446 792 506 790 474 792 b 76 490 264 792 101 671 b 374 178 51 308 179 178 b 458 182 396 178 424 179 b 468 165 468 183 471 178 b 361 39 453 72 369 94 b 432 0 357 10 378 0 z m 435 257 b 265 482 315 257 246 350 b 500 714 283 617 364 714 b 546 710 515 714 532 713 l 483 263 b 435 257 468 258 447 257 z m 728 257 b 679 261 714 257 697 257 l 742 710 b 790 714 757 713 775 714 b 958 482 926 714 976 617 b 728 257 940 350 847 257 z "},"Х":{"ha":1038,"x_min":0,"x_max":0,"o":"m 167 1 b 235 38 203 1 231 8 b 244 165 242 88 161 68 l 449 403 l 590 169 b 556 38 647 75 564 89 b 615 1 553 10 575 1 l 872 1 b 946 38 915 1 942 8 b 832 169 953 89 890 71 l 619 519 l 869 807 b 1036 935 950 900 1029 883 b 969 971 1040 964 1013 971 l 833 971 b 765 935 797 971 768 964 b 754 807 758 885 838 904 l 572 597 l 447 803 b 483 935 392 897 475 883 b 424 971 486 963 464 971 l 165 971 b 93 935 124 971 96 964 b 207 803 85 883 147 901 l 401 481 l 129 165 b -37 38 50 72 -29 89 b 31 1 -40 8 -14 1 z "},"Ч":{"ha":1038,"x_min":0,"x_max":0,"o":"m 843 0 b 926 39 901 0 922 11 b 860 171 935 101 861 76 b 864 222 860 189 861 206 l 938 750 b 949 801 940 768 943 783 b 1054 933 974 890 1046 875 b 982 972 1058 963 1038 972 l 761 972 b 679 933 704 972 683 963 b 744 801 671 871 744 897 b 740 750 744 783 743 768 l 700 456 b 475 431 621 443 531 431 b 332 706 308 431 308 551 l 339 747 b 351 799 342 765 346 782 b 456 931 376 889 447 872 b 385 969 460 960 439 969 l 164 969 b 81 931 106 969 85 960 b 146 799 71 868 146 894 b 143 747 147 782 146 765 l 132 676 b 414 342 108 504 135 342 b 688 369 472 342 576 351 l 668 222 b 656 171 665 206 661 189 b 550 39 631 82 558 97 b 622 0 547 11 568 0 z "},"Ц":{"ha":1151,"x_min":0,"x_max":0,"o":"m 1015 -194 b 1058 -133 1044 -194 1054 -171 b 1061 31 1067 -62 1067 -10 b 972 89 1056 71 1039 89 b 925 149 936 89 921 110 l 1010 750 b 1021 801 1013 768 1015 783 b 1126 933 1047 890 1118 875 b 1054 972 1131 963 1110 972 l 833 972 b 751 933 776 972 756 963 b 817 801 743 871 817 897 b 814 750 817 783 817 768 l 729 151 b 521 89 724 107 701 89 b 326 151 343 89 321 107 l 411 750 b 422 801 414 768 417 783 b 528 933 447 890 519 875 b 456 972 532 963 511 972 l 235 972 b 153 933 176 972 156 963 b 218 801 144 871 217 897 b 214 750 218 783 217 768 l 143 236 b 129 171 139 204 135 188 b 24 39 104 82 32 97 b 96 0 19 10 40 0 l 815 0 b 961 -144 896 0 928 -53 b 1015 -194 974 -178 986 -194 z "},"Ш":{"ha":1543,"x_min":0,"x_max":0,"o":"m 1351 0 b 1433 39 1406 0 1429 10 b 1365 171 1442 97 1365 82 b 1369 236 1365 188 1365 204 l 1442 750 b 1454 801 1444 768 1449 783 b 1558 933 1479 890 1550 875 b 1488 972 1563 963 1542 972 l 1265 972 b 1183 933 1208 972 1188 963 b 1249 801 1175 871 1249 897 b 1246 750 1249 783 1249 768 l 1163 151 b 994 89 1156 107 1133 89 b 843 151 860 89 836 107 l 926 750 b 938 801 929 768 932 783 b 1043 933 964 890 1035 875 b 971 972 1047 963 1026 972 l 750 972 b 668 933 693 972 672 963 b 733 801 660 871 733 897 b 731 750 733 783 733 768 l 646 151 b 479 89 640 107 618 89 b 326 151 343 89 321 107 l 411 750 b 422 801 414 768 417 783 b 528 933 447 890 519 875 b 456 972 532 963 511 972 l 235 972 b 153 933 176 972 156 963 b 218 801 144 871 217 897 b 214 750 218 783 217 768 l 143 236 b 129 171 139 204 135 188 b 24 39 104 82 32 97 b 96 0 19 10 40 0 z "},"Щ":{"ha":1583,"x_min":0,"x_max":0,"o":"m 1447 -194 b 1490 -133 1476 -194 1488 -171 b 1493 31 1499 -62 1499 -10 b 1404 89 1488 71 1471 89 b 1357 149 1368 89 1353 110 l 1442 750 b 1454 801 1444 768 1449 783 b 1558 933 1479 890 1550 875 b 1488 972 1563 963 1542 972 l 1265 972 b 1183 933 1208 972 1188 963 b 1249 801 1175 871 1249 897 b 1246 750 1249 783 1249 768 l 1163 151 b 994 89 1156 107 1133 89 b 843 151 860 89 836 107 l 926 750 b 938 801 929 768 932 783 b 1043 933 964 890 1035 875 b 971 972 1047 963 1026 972 l 750 972 b 668 933 693 972 672 963 b 733 801 660 871 733 897 b 731 750 733 783 733 768 l 646 151 b 479 89 640 107 618 89 b 326 151 343 89 321 107 l 411 750 b 422 801 414 768 417 783 b 528 933 447 890 519 875 b 456 972 532 963 511 972 l 235 972 b 153 933 176 972 156 963 b 218 801 144 871 217 897 b 214 750 218 783 217 768 l 143 236 b 129 171 139 204 135 188 b 24 39 104 82 32 97 b 96 0 19 10 40 0 l 1246 0 b 1393 -144 1328 0 1358 -53 b 1447 -194 1406 -178 1418 -194 z "},"Ь":{"ha":907,"x_min":0,"x_max":0,"o":"m 414 0 b 883 310 692 0 856 106 b 476 657 913 513 758 657 b 426 656 458 657 442 657 b 401 683 407 654 399 665 l 411 750 b 422 801 414 768 417 783 b 528 933 447 890 519 875 b 456 972 532 963 511 972 l 235 972 b 153 933 176 972 156 963 b 218 801 144 871 217 897 b 214 750 218 783 217 768 l 143 236 b 129 171 139 204 135 188 b 24 39 104 82 32 97 b 96 0 19 10 40 0 z m 415 83 b 324 129 343 83 319 96 l 381 538 b 432 575 385 567 396 576 b 679 289 586 574 704 463 b 415 83 661 153 560 83 z "},"Ы":{"ha":1367,"x_min":0,"x_max":0,"o":"m 414 0 b 883 310 692 0 856 106 b 476 657 913 513 758 657 b 426 656 458 657 442 657 b 401 683 407 654 399 665 l 411 750 b 422 801 414 768 417 783 b 528 933 447 890 519 875 b 456 972 532 963 511 972 l 235 972 b 153 933 176 972 156 963 b 218 801 144 871 217 897 b 214 750 218 783 217 768 l 143 236 b 129 171 139 204 135 188 b 24 39 104 82 32 97 b 96 0 19 10 40 0 z m 1174 0 b 1256 39 1232 0 1253 11 b 1190 171 1264 101 1192 76 b 1194 222 1190 189 1192 206 l 1267 750 b 1279 801 1269 768 1274 783 b 1385 933 1304 890 1376 875 b 1313 972 1389 963 1368 972 l 1092 972 b 1008 933 1033 972 1013 963 b 1075 801 1001 871 1074 897 b 1071 750 1075 783 1074 768 l 997 222 b 986 171 994 206 992 189 b 881 39 961 82 889 97 b 953 0 876 11 897 0 z m 415 83 b 324 129 343 83 319 96 l 381 538 b 432 575 385 567 396 576 b 679 289 586 574 704 463 b 415 83 661 153 560 83 z "},"Ъ":{"ha":1026,"x_min":0,"x_max":0,"o":"m 532 0 b 1003 310 811 0 974 106 b 596 657 1032 513 878 657 b 546 656 576 657 561 657 b 521 683 526 654 518 665 l 528 736 b 542 801 532 768 536 785 b 647 933 567 892 639 875 b 575 972 651 963 629 972 l 215 972 b 85 914 121 972 100 953 b 36 732 69 875 50 810 b 61 671 29 694 33 671 b 118 721 82 671 97 686 b 290 885 178 819 219 885 b 342 810 322 885 351 874 l 261 236 b 249 172 257 206 254 189 b 143 40 224 82 151 99 b 215 0 139 11 160 0 z m 535 85 b 443 129 463 85 439 97 l 500 538 b 551 575 504 567 515 576 b 799 289 704 574 822 463 b 535 85 779 153 679 85 z "},"Є":{"ha":958,"x_min":0,"x_max":0,"o":"m 475 -14 b 881 178 672 -14 818 76 b 847 233 914 228 890 263 b 572 135 764 174 683 135 b 285 461 394 135 285 268 b 440 410 338 429 390 410 b 639 485 522 410 569 485 b 776 432 699 485 740 432 b 818 465 804 432 817 450 b 621 606 826 518 706 606 b 394 525 542 606 479 525 b 289 558 365 525 335 532 b 617 894 318 749 439 894 b 857 718 754 894 813 806 b 914 657 878 675 889 657 b 951 718 942 657 949 681 b 949 911 957 803 953 863 b 901 985 944 971 926 985 b 829 963 874 985 864 963 b 656 986 796 963 746 986 b 75 493 346 986 115 781 b 475 -14 35 199 206 -14 z "},"Э":{"ha":953,"x_min":0,"x_max":0,"o":"m 335 -12 b 929 504 647 -14 886 196 b 501 986 967 774 810 986 b 300 963 397 986 332 963 b 232 985 264 963 260 985 b 164 911 206 985 186 971 b 114 718 147 863 126 803 b 135 657 107 681 107 657 b 204 718 160 657 172 675 b 492 900 271 806 354 900 b 721 557 644 900 731 768 b 610 525 671 532 638 525 b 407 606 524 525 486 606 b 169 465 322 606 176 518 b 203 432 167 450 175 432 b 356 485 239 432 296 485 b 532 410 425 485 450 410 b 713 467 586 410 646 431 b 388 78 683 296 581 78 b 142 239 258 78 185 154 b 88 304 119 285 108 301 b 46 258 63 307 49 286 b 50 119 40 179 46 151 b 154 11 57 51 93 28 b 335 -12 197 0 263 -11 z "},"І":{"ha":507,"x_min":0,"x_max":0,"o":"m 317 0 b 400 39 375 0 396 11 b 333 171 407 101 335 76 b 338 222 333 189 335 206 l 411 750 b 422 801 414 768 417 783 b 528 933 447 890 519 875 b 456 972 532 963 511 972 l 235 972 b 153 933 176 972 156 963 b 218 801 144 871 217 897 b 214 750 218 783 217 768 l 142 222 b 129 171 139 206 135 189 b 24 39 104 82 32 97 b 96 0 19 11 40 0 z "},"Ї":{"ha":461,"x_min":0,"x_max":0,"o":"m 217 1064 b 335 1158 271 1064 326 1103 b 268 1235 342 1204 314 1235 b 154 1132 211 1235 161 1183 b 217 1064 149 1090 176 1064 z m 446 1064 b 563 1158 499 1064 554 1103 b 494 1235 569 1204 542 1235 b 382 1132 440 1235 389 1183 b 446 1064 375 1090 404 1064 z m 272 0 b 354 39 329 0 350 11 b 289 171 363 101 289 76 b 292 222 289 189 289 206 l 365 750 b 378 801 368 768 372 783 b 482 933 403 890 475 875 b 411 972 486 963 465 972 l 190 972 b 107 933 132 972 111 963 b 174 801 99 871 172 897 b 169 750 174 783 172 768 l 96 222 b 85 171 93 206 90 189 b -21 39 58 82 -12 97 b 51 0 -25 11 -4 0 z "},"Ю":{"ha":1521,"x_min":0,"x_max":0,"o":"m 1078 983 b 525 535 803 983 581 788 l 381 535 l 411 750 b 528 933 429 888 518 864 b 456 972 532 963 510 972 l 235 972 b 153 933 176 972 156 963 b 215 750 142 858 236 906 l 140 222 b 24 39 121 85 33 108 b 96 0 19 11 40 0 l 317 0 b 400 39 374 0 394 11 b 336 222 410 114 315 67 l 368 446 l 514 446 b 513 413 513 435 513 424 b 942 -10 513 163 701 -7 b 1500 563 1261 -14 1500 244 b 1078 983 1500 794 1346 983 z m 986 96 b 721 426 822 96 721 231 b 1044 886 721 653 846 886 b 1288 551 1204 886 1288 746 b 986 96 1288 332 1186 96 z "},"Я":{"ha":961,"x_min":0,"x_max":0,"o":"m 260 0 b 332 40 304 0 328 10 b 325 182 338 89 269 97 l 417 319 b 497 315 442 317 468 315 l 578 315 b 601 288 599 315 604 313 l 592 222 b 581 171 589 206 586 189 b 478 39 553 76 486 101 b 550 0 474 11 492 0 l 771 0 b 853 39 825 0 849 11 b 785 171 861 97 785 82 b 788 222 785 189 785 206 l 860 736 b 874 801 864 768 868 785 b 978 933 899 892 971 875 b 907 972 983 963 961 972 l 635 972 b 129 622 340 972 158 828 b 253 368 114 513 154 421 l 122 175 b -11 39 57 78 -3 99 b 54 0 -15 10 3 0 z m 518 400 b 335 656 390 400 314 507 b 596 888 356 806 454 888 b 649 882 613 888 632 886 b 679 846 674 879 683 875 l 622 444 b 518 400 618 411 590 400 z "},"а":{"ha":875,"x_min":0,"x_max":0,"o":"m 797 157 b 735 118 776 157 760 118 b 708 181 713 118 706 136 l 742 625 b 700 681 744 657 733 681 b 579 651 667 681 618 651 b 424 679 546 651 500 679 b 47 238 222 679 47 481 b 278 -14 47 82 147 -14 b 517 115 369 -14 458 35 b 643 -12 521 17 575 -12 b 818 131 749 -12 815 72 b 797 157 818 150 806 157 z m 354 107 b 244 282 292 107 243 158 b 426 599 246 417 310 599 b 546 454 493 599 551 549 l 543 410 b 354 107 533 260 454 107 z "},"б":{"ha":824,"x_min":0,"x_max":0,"o":"m 794 1026 b 733 996 775 1022 765 1013 b 585 965 694 974 650 971 b 358 917 506 960 428 951 b 68 428 194 838 100 654 b 368 -14 25 114 179 -14 b 775 382 569 -14 756 160 b 524 685 792 560 696 685 b 231 503 396 685 290 608 b 404 779 225 682 301 760 b 693 829 524 807 600 786 b 832 989 769 864 824 922 b 794 1026 838 1025 815 1033 z m 257 285 b 464 586 271 457 360 586 b 585 425 556 586 585 497 b 378 72 585 240 496 72 b 257 285 294 72 247 153 z "},"в":{"ha":753,"x_min":0,"x_max":0,"o":"m 357 -14 b 682 221 540 -12 682 83 b 543 365 682 289 636 347 b 701 538 632 388 701 454 b 471 681 701 639 601 681 b 50 271 247 681 50 485 b 357 -14 50 92 183 -15 z m 368 67 b 238 264 271 67 238 158 b 442 601 238 411 314 601 b 522 524 494 601 522 567 b 371 389 522 450 464 396 b 322 346 340 386 324 365 b 357 315 321 331 332 317 b 481 207 431 311 481 271 b 368 67 481 128 432 67 z "},"г":{"ha":615,"x_min":0,"x_max":0,"o":"m 231 -14 b 533 143 390 -14 499 79 b 499 186 557 182 535 213 b 303 114 454 154 385 114 b 224 179 261 114 224 131 b 356 318 224 240 285 278 b 551 544 446 372 551 431 b 360 679 551 628 478 679 b 85 543 238 679 131 622 b 129 503 60 500 92 479 b 300 567 189 542 244 567 b 369 514 338 567 369 553 b 265 386 371 464 326 424 b 31 139 165 324 31 261 b 231 -14 31 69 72 -14 z "},"ґ":{"ha":615,"x_min":0,"x_max":0,"o":"m 286 769 b 538 869 354 744 513 797 b 476 969 556 921 531 969 b 369 911 443 969 408 943 b 268 800 321 868 276 822 b 286 769 264 788 268 776 z m 231 -14 b 533 143 390 -14 499 79 b 499 186 557 182 535 213 b 303 114 454 154 385 114 b 224 179 261 114 224 131 b 356 318 224 240 285 278 b 551 544 446 372 551 431 b 360 679 551 628 478 679 b 85 543 238 679 131 622 b 129 503 60 500 92 479 b 300 567 189 542 244 567 b 369 514 338 567 369 553 b 265 386 371 464 326 424 b 31 139 165 324 31 261 b 231 -14 31 69 72 -14 z "},"д":{"ha":788,"x_min":0,"x_max":0,"o":"m 750 517 b 367 978 747 811 557 956 b 279 942 296 982 279 961 b 308 914 278 929 290 921 b 554 619 432 868 525 789 b 410 676 519 657 471 675 b 53 288 203 681 53 501 b 344 -14 53 94 175 -14 b 750 517 596 -14 751 221 z m 363 72 b 244 258 282 72 244 157 b 432 586 244 411 307 586 b 547 417 514 586 547 513 b 363 72 547 268 486 72 z "},"е":{"ha":746,"x_min":0,"x_max":0,"o":"m 622 199 b 417 117 568 156 503 117 b 253 229 339 117 278 161 b 689 521 447 256 689 335 b 479 681 689 626 592 681 b 50 269 219 681 50 468 b 339 -14 50 86 168 -14 b 661 164 506 -14 624 86 b 622 199 681 204 654 225 z m 428 597 b 531 497 492 597 531 553 b 269 314 531 381 372 331 b 232 346 242 311 232 322 b 428 597 232 475 311 597 z "},"ё":{"ha":746,"x_min":0,"x_max":0,"o":"m 333 761 b 439 856 389 761 439 801 b 361 932 439 901 407 932 b 263 829 304 932 263 881 b 333 761 263 788 294 761 z m 563 761 b 667 856 617 761 667 801 b 588 932 667 901 635 932 b 489 829 533 932 489 881 b 563 761 489 788 521 761 z m 622 199 b 417 117 568 156 503 117 b 253 229 339 117 278 161 b 689 521 447 256 689 335 b 479 681 689 626 592 681 b 50 269 219 681 50 468 b 339 -14 50 86 168 -14 b 661 164 506 -14 624 86 b 622 199 681 204 654 225 z m 428 597 b 531 497 492 597 531 553 b 269 314 531 381 372 331 b 232 346 242 311 232 322 b 428 597 232 475 311 597 z "},"ж":{"ha":1125,"x_min":0,"x_max":0,"o":"m 92 -11 b 303 171 204 -11 247 56 b 439 311 340 249 379 311 b 460 278 460 311 464 308 l 447 188 b 438 142 444 171 442 157 b 357 36 415 71 364 82 b 415 0 353 8 376 0 l 615 0 b 681 35 653 0 676 7 b 633 142 688 83 636 71 b 635 188 632 157 633 171 l 646 276 b 676 311 650 308 654 311 b 774 171 738 311 758 249 b 933 -11 797 56 822 -11 b 1063 49 1004 -11 1058 14 b 1038 75 1063 64 1054 75 b 953 186 999 76 981 85 b 779 349 928 275 897 332 b 874 443 819 368 850 408 b 947 532 904 488 924 532 b 1028 481 983 532 975 481 b 1114 571 1064 481 1106 508 b 1019 681 1124 642 1078 681 b 813 485 911 681 863 568 b 704 392 782 433 750 392 l 690 392 b 667 419 665 392 664 394 l 674 479 b 685 526 676 496 681 510 b 765 632 707 596 757 585 b 707 667 768 658 746 667 l 507 667 b 442 632 469 667 444 660 b 489 526 435 583 485 596 b 486 479 490 510 489 496 l 479 419 b 447 392 476 394 474 392 l 435 392 b 354 479 389 392 371 432 b 201 681 325 564 311 681 b 76 571 142 681 86 642 b 136 481 68 508 100 481 b 231 532 189 481 194 532 b 282 439 256 532 261 485 b 347 347 294 406 313 367 b 128 186 225 332 179 275 b 13 75 71 85 51 76 b -19 49 -4 75 -18 64 b 92 -11 -25 14 21 -11 z "},"з":{"ha":649,"x_min":0,"x_max":0,"o":"m 276 -12 b 575 199 424 -12 557 65 b 432 365 585 267 547 342 b 590 529 510 386 581 450 b 403 681 604 636 506 681 b 253 664 322 681 289 664 b 196 681 222 664 218 681 b 142 622 175 681 160 669 b 113 515 128 582 119 551 b 129 464 107 483 108 464 b 190 511 150 464 163 478 b 331 596 228 558 269 596 b 407 506 385 596 414 557 b 235 388 400 453 347 400 b 224 317 188 382 176 321 b 386 194 342 311 396 264 b 240 86 374 101 289 86 b 76 150 176 86 115 111 b 28 113 50 175 13 153 b 276 -12 58 36 161 -12 z "},"и":{"ha":886,"x_min":0,"x_max":0,"o":"m 799 157 b 736 118 779 157 763 118 b 714 182 714 118 707 138 l 783 639 b 747 676 786 663 772 683 l 632 649 b 594 610 613 643 597 633 l 575 488 b 340 97 531 208 422 97 b 279 303 256 97 258 181 l 331 636 b 297 679 336 665 321 679 b 163 646 265 679 211 664 b 67 574 78 614 67 594 b 119 469 67 531 132 553 l 88 256 b 282 -14 64 89 122 -14 b 524 126 375 -14 454 35 b 639 -12 519 24 574 -12 b 821 131 751 -12 818 72 b 799 157 821 150 808 157 z "},"й":{"ha":886,"x_min":0,"x_max":0,"o":"m 483 738 b 739 890 601 738 725 793 b 689 947 744 922 721 947 b 493 806 607 947 583 806 b 336 947 401 806 417 947 b 269 890 304 947 274 925 b 483 738 256 796 351 738 z m 799 157 b 736 118 779 157 763 118 b 714 182 714 118 707 138 l 783 639 b 747 676 786 663 772 683 l 632 649 b 594 610 613 643 597 633 l 575 488 b 340 97 531 208 422 97 b 279 303 256 97 258 181 l 331 636 b 297 679 336 665 321 679 b 163 646 265 679 211 664 b 67 574 78 614 67 594 b 119 469 67 531 132 553 l 88 256 b 282 -14 64 89 122 -14 b 524 126 375 -14 454 35 b 639 -12 519 24 574 -12 b 821 131 751 -12 818 72 b 799 157 821 150 808 157 z "},"к":{"ha":788,"x_min":0,"x_max":0,"o":"m 597 -11 b 725 49 668 -11 721 14 b 701 75 726 64 718 75 b 613 186 663 76 644 85 b 439 350 585 275 558 335 b 608 532 533 403 564 532 b 688 481 643 532 636 481 b 774 571 725 481 765 508 b 679 681 783 642 739 681 b 338 392 506 681 488 392 l 325 392 b 301 419 300 392 299 394 l 308 479 b 319 526 311 496 315 510 b 399 632 342 596 392 585 b 340 667 403 658 381 667 l 142 667 b 75 632 104 667 79 660 b 124 526 68 583 119 596 b 121 479 125 510 124 496 l 82 188 b 71 142 79 171 75 157 b -8 36 49 71 -1 82 b 50 0 -12 8 10 0 l 249 0 b 314 35 286 0 311 7 b 267 142 322 83 271 71 b 269 188 265 157 267 171 l 281 279 b 310 311 285 307 290 311 b 433 171 397 311 415 249 b 597 -11 460 56 485 -11 z "},"л":{"ha":875,"x_min":0,"x_max":0,"o":"m 89 -14 b 260 97 153 -14 219 14 b 386 528 315 185 350 347 b 479 585 397 579 425 579 b 554 531 539 590 560 571 l 500 149 b 618 -12 485 43 536 -12 b 800 131 731 -12 797 72 b 779 157 800 150 788 157 b 715 118 758 157 742 118 b 690 181 694 118 683 136 l 739 515 b 808 635 751 601 803 592 b 756 671 811 657 793 671 b 443 667 649 675 533 674 b 236 601 282 656 236 639 b 269 564 236 585 250 574 b 292 490 290 554 299 539 b 150 103 274 372 214 103 b 64 168 110 103 128 168 b -15 86 29 168 -8 135 b 89 -14 -26 7 46 -14 z "},"м":{"ha":1117,"x_min":0,"x_max":0,"o":"m 89 -14 b 260 97 153 -14 219 14 b 371 467 315 185 351 351 b 444 76 390 325 414 196 b 522 50 453 42 488 40 b 589 96 549 56 576 72 l 789 475 l 761 156 b 879 -12 751 43 790 -12 b 1061 131 992 -12 1058 72 b 1040 157 1061 150 1051 157 b 976 118 1019 157 1003 118 b 953 182 956 118 949 138 l 990 633 b 958 675 993 664 981 676 b 821 647 914 674 871 668 b 771 600 794 636 779 617 l 592 272 b 518 639 563 399 539 511 b 483 676 515 658 506 676 b 333 646 444 676 382 664 b 233 574 253 617 235 594 b 265 536 232 554 247 546 b 288 475 282 529 294 517 b 150 103 272 374 214 103 b 64 168 110 103 128 168 b -15 86 29 168 -8 135 b 89 -14 -26 7 46 -14 z "},"н":{"ha":878,"x_min":0,"x_max":0,"o":"m 801 157 b 739 118 782 157 765 118 b 711 181 717 118 704 136 l 778 642 b 742 679 781 667 767 683 l 628 653 b 590 613 608 647 594 636 l 558 385 l 293 385 l 328 636 b 294 678 332 665 318 678 b 163 646 263 678 215 664 b 68 574 78 615 68 594 b 121 467 68 531 132 550 l 58 24 b 94 -14 56 -3 71 -19 l 211 13 b 247 51 231 17 244 29 l 282 303 l 546 303 l 525 153 b 640 -12 510 43 560 -12 b 824 131 754 -12 821 72 b 801 157 824 150 811 157 z "},"о":{"ha":817,"x_min":0,"x_max":0,"o":"m 360 -14 b 768 397 589 -14 768 160 b 465 681 768 556 656 681 b 50 276 242 681 50 497 b 360 -14 50 101 171 -14 z m 375 72 b 246 272 285 72 247 158 b 443 596 247 417 315 596 b 563 404 532 596 563 507 b 375 72 563 258 494 72 z "},"п":{"ha":890,"x_min":0,"x_max":0,"o":"m 814 157 b 750 118 793 157 776 118 b 728 181 729 118 725 136 l 744 418 b 563 679 756 576 706 679 b 293 500 453 679 360 613 l 314 636 b 281 678 318 665 304 678 b 163 646 249 678 211 664 b 67 574 79 614 67 594 b 119 467 67 531 132 550 l 56 25 b 90 -12 53 -1 67 -18 l 207 15 b 243 54 226 21 239 32 l 261 165 b 494 563 310 444 419 563 b 561 408 560 563 569 504 l 543 156 b 657 -12 532 43 576 -12 b 835 131 765 -12 832 72 b 814 157 835 150 822 157 z "},"р":{"ha":819,"x_min":0,"x_max":0,"o":"m 565 676 b 314 557 465 676 378 631 l 325 638 b 290 679 329 667 315 679 b 165 647 260 679 219 669 b 68 576 85 615 68 597 b 131 467 68 533 142 543 l 50 -112 b -36 -246 38 -200 -32 -203 b 25 -278 -40 -269 -21 -278 l 217 -278 b 285 -247 258 -278 281 -271 b 238 -112 290 -203 226 -201 l 254 17 b 385 -7 296 3 340 -7 b 774 399 569 -7 754 157 b 565 676 790 563 706 676 z m 385 75 b 278 253 313 75 265 136 b 476 558 299 435 389 558 b 581 418 554 558 581 485 b 385 75 582 228 497 74 z "},"с":{"ha":749,"x_min":0,"x_max":0,"o":"m 353 -14 b 675 160 519 -14 638 83 b 635 196 693 200 668 222 b 446 124 582 151 525 124 b 243 336 315 124 243 208 b 414 592 243 465 313 592 b 518 433 499 592 521 519 b 589 346 515 388 535 351 b 700 464 650 340 696 393 b 446 681 707 574 608 681 b 51 275 233 681 51 499 b 353 -14 51 114 160 -14 z "},"т":{"ha":1307,"x_min":0,"x_max":0,"o":"m 1231 157 b 1168 118 1211 157 1194 118 b 1146 181 1146 118 1143 136 l 1161 418 b 976 679 1174 576 1119 679 b 738 531 894 679 804 629 b 560 679 721 624 657 679 b 296 514 474 679 375 635 l 314 636 b 281 678 319 665 304 678 b 163 646 249 678 211 664 b 68 574 79 614 68 594 b 121 467 68 531 132 550 l 50 24 b 85 -14 47 -3 61 -19 l 201 14 b 239 53 222 19 235 31 l 258 165 b 489 564 311 444 408 564 b 540 358 550 564 563 507 l 492 25 b 526 -14 489 -1 503 -19 l 642 15 b 679 54 663 19 675 31 l 699 165 b 915 564 751 444 839 564 b 978 408 974 564 985 504 l 960 156 b 1069 -12 951 43 989 -12 b 1251 131 1182 -12 1249 72 b 1231 157 1253 150 1240 157 z "},"у":{"ha":735,"x_min":0,"x_max":0,"o":"m 613 683 b 501 581 560 683 501 636 b 558 406 501 519 558 496 b 440 82 558 303 504 186 b 271 632 393 279 340 451 b 213 681 261 658 243 681 b 22 560 158 681 22 608 b 60 532 22 547 35 533 b 136 475 99 531 115 522 b 269 53 193 338 242 181 b 281 -75 282 -6 286 -39 b 165 -187 271 -136 222 -187 b 74 -108 104 -187 92 -150 b -3 -50 56 -68 28 -50 b -92 -158 -50 -50 -92 -90 b 76 -292 -92 -233 -36 -292 b 494 7 251 -292 385 -165 b 701 576 561 110 701 382 b 613 683 701 628 681 683 z "},"ф":{"ha":1167,"x_min":0,"x_max":0,"o":"m 596 -276 b 664 -246 639 -276 661 -271 b 615 -111 671 -201 603 -200 l 638 46 b 786 -14 672 10 719 -14 b 1115 351 936 -14 1081 107 b 904 681 1144 563 1053 681 b 715 608 840 681 768 653 l 767 957 b 740 999 772 986 764 1000 b 553 939 718 999 614 965 b 503 894 518 924 506 914 b 524 857 501 878 511 868 b 551 767 547 838 557 811 l 531 615 b 383 681 494 657 439 681 b 54 325 213 681 82 521 b 282 -14 19 74 156 -14 b 451 47 350 -14 406 10 l 429 -111 b 342 -246 417 -200 349 -201 b 404 -276 339 -269 358 -276 z m 360 92 b 249 328 274 92 228 179 b 408 575 265 465 317 575 b 504 429 469 575 517 524 l 474 211 b 360 92 467 151 424 92 z m 767 86 b 658 206 694 86 651 154 l 692 429 b 818 572 704 522 760 572 b 921 315 914 572 939 463 b 767 86 901 174 856 86 z "},"х":{"ha":750,"x_min":0,"x_max":0,"o":"m 665 681 b 415 435 579 681 494 564 l 326 644 b 276 682 315 669 297 682 b 97 567 235 682 97 611 b 139 539 97 543 117 540 b 210 464 167 536 190 506 l 282 294 b 126 131 221 193 165 131 b 65 163 101 131 96 163 b -7 78 32 163 -7 131 b 85 -14 -7 29 24 -14 b 319 207 168 -14 240 78 l 347 140 b 507 -14 386 53 422 -14 b 683 101 583 -14 683 49 b 661 126 683 114 678 126 b 606 113 642 126 629 113 b 494 250 558 113 524 183 l 454 346 b 618 536 519 453 582 536 b 681 504 644 536 650 504 b 751 585 714 504 746 536 b 665 681 757 638 726 681 z "},"ч":{"ha":832,"x_min":0,"x_max":0,"o":"m 594 -12 b 776 131 707 -12 774 72 b 756 157 776 150 764 157 b 692 118 735 157 718 118 b 667 181 671 118 661 136 l 732 642 b 696 679 735 667 719 683 l 576 653 b 539 614 556 647 542 636 l 528 521 b 375 332 510 386 442 332 b 299 503 288 333 286 422 l 317 636 b 282 679 321 665 307 679 b 160 651 251 679 211 669 b 56 575 65 617 56 594 b 85 540 56 560 65 550 b 108 469 107 531 115 511 b 100 383 104 439 100 418 b 294 214 100 275 172 214 b 500 300 371 214 446 242 l 476 157 b 594 -12 457 44 513 -12 z "},"ц":{"ha":875,"x_min":0,"x_max":0,"o":"m 818 157 b 742 118 786 157 768 118 b 719 182 719 118 713 138 l 785 639 b 749 676 788 663 774 683 l 633 649 b 596 610 614 643 599 633 l 578 488 b 346 97 536 208 433 97 b 279 303 264 97 258 181 l 331 636 b 296 679 336 665 321 679 b 172 651 265 679 231 671 b 68 575 78 618 68 594 b 97 540 68 560 78 550 b 121 469 119 531 128 517 l 88 256 b 288 -14 63 89 136 -14 b 526 121 383 -14 460 33 b 643 -12 525 24 581 -12 b 754 29 686 -12 724 3 b 682 -69 747 -1 726 -28 b 579 -207 643 -107 579 -142 b 631 -282 579 -242 606 -268 b 682 -269 658 -297 683 -290 b 699 -215 682 -253 679 -231 b 825 -92 747 -171 785 -144 b 874 72 853 -54 874 6 b 818 157 874 122 849 157 z "},"ш":{"ha":1246,"x_min":0,"x_max":0,"o":"m 1169 157 b 1107 118 1149 157 1133 118 b 1085 182 1085 118 1078 138 l 1149 639 b 1114 676 1153 663 1139 683 l 999 649 b 961 610 979 643 964 633 l 942 476 b 739 97 901 208 807 97 b 686 264 669 97 672 172 l 738 639 b 701 676 742 663 726 683 l 588 649 b 549 610 567 643 553 633 l 529 476 b 324 104 497 257 415 104 b 272 263 261 104 258 176 l 331 636 b 296 679 336 665 321 679 b 172 651 265 679 231 671 b 68 575 78 618 68 594 b 97 540 68 560 78 550 b 121 469 119 531 128 517 l 88 256 b 271 -14 63 89 126 -14 b 501 135 368 -14 447 40 b 675 -14 519 39 585 -14 b 893 110 760 -14 832 28 b 1008 -12 896 19 947 -12 b 1190 131 1121 -12 1188 72 b 1169 157 1192 150 1179 157 z "},"щ":{"ha":1240,"x_min":0,"x_max":0,"o":"m 1183 157 b 1107 118 1151 157 1133 118 b 1085 182 1085 118 1078 138 l 1149 639 b 1114 676 1153 663 1139 683 l 999 649 b 961 610 979 643 964 633 l 942 476 b 739 97 901 208 808 97 b 686 264 669 97 672 172 l 738 639 b 701 676 742 663 726 683 l 588 649 b 549 610 567 643 553 633 l 529 476 b 328 104 494 239 415 104 b 272 263 261 104 258 176 l 331 636 b 296 679 336 665 321 679 b 172 651 265 679 231 671 b 68 575 78 618 68 594 b 97 540 68 560 78 550 b 121 469 119 531 128 517 l 88 256 b 271 -14 63 89 126 -14 b 501 133 368 -14 447 40 b 675 -14 519 39 585 -14 b 893 110 760 -14 832 28 b 1008 -12 896 19 947 -12 b 1119 29 1051 -12 1089 3 b 1047 -69 1113 -1 1092 -28 b 943 -207 1008 -107 943 -142 b 996 -282 943 -242 969 -268 b 1047 -269 1024 -297 1049 -290 b 1063 -215 1046 -253 1044 -231 b 1190 -92 1113 -171 1150 -144 b 1238 72 1218 -54 1238 6 b 1183 157 1238 122 1214 157 z "},"ь":{"ha":718,"x_min":0,"x_max":0,"o":"m 489 503 b 297 419 419 503 350 471 l 331 636 b 296 679 335 665 321 679 b 174 651 264 679 231 671 b 69 575 78 617 69 594 b 122 469 69 532 133 540 l 89 250 b 313 -14 61 74 153 -14 b 672 328 504 -14 672 142 b 489 503 672 429 600 503 z m 349 75 b 272 183 301 74 269 115 b 411 392 276 279 336 392 b 486 299 468 392 485 347 b 349 75 489 196 431 75 z "},"ы":{"ha":1069,"x_min":0,"x_max":0,"o":"m 993 157 b 931 118 972 157 957 118 b 903 181 908 118 896 136 l 968 642 b 933 679 972 667 957 683 l 819 653 b 782 613 799 647 785 636 l 717 153 b 832 -12 700 43 751 -12 b 1014 131 944 -12 1011 72 b 993 157 1014 150 1001 157 z m 489 503 b 296 419 418 503 347 471 l 329 636 b 294 679 333 665 319 679 b 172 651 263 679 229 671 b 68 575 78 617 68 594 b 121 469 68 532 132 540 l 88 250 b 313 -14 60 74 153 -14 b 671 328 504 -14 671 142 b 489 503 671 429 599 503 z m 347 75 b 271 183 301 74 268 115 b 411 392 275 279 335 392 b 485 299 468 392 485 347 b 347 75 488 196 429 75 z "},"ъ":{"ha":792,"x_min":0,"x_max":0,"o":"m 544 504 b 360 422 472 504 406 469 l 419 636 b 388 678 428 665 411 678 b 136 667 304 679 219 675 b 14 604 53 660 31 650 b -17 504 -1 568 -10 539 b 4 450 -22 474 -22 450 b 64 496 28 450 40 463 b 174 582 114 565 133 582 b 208 524 208 582 217 564 b 140 233 197 440 144 333 b 379 -14 131 56 247 -15 b 733 326 568 -12 733 139 b 544 504 733 429 663 504 z m 407 72 b 329 196 350 72 319 122 b 472 392 343 306 403 392 b 549 300 533 392 549 349 b 407 72 550 196 490 72 z "},"є":{"ha":740,"x_min":0,"x_max":0,"o":"m 343 -14 b 667 160 510 -14 628 83 b 626 196 685 200 660 221 b 443 124 572 151 515 124 b 242 317 319 124 251 200 b 299 331 263 325 283 331 b 443 278 360 331 383 278 b 596 375 496 278 589 325 b 574 401 599 390 590 401 b 485 375 553 401 525 375 b 356 424 438 375 415 424 b 243 383 328 424 293 410 l 246 396 b 431 600 263 522 338 600 b 635 499 532 600 558 499 b 703 557 669 499 699 524 b 478 681 714 638 589 681 b 51 307 254 681 81 514 b 343 -14 28 139 121 -14 z "},"э":{"ha":732,"x_min":0,"x_max":0,"o":"m 285 -14 b 678 333 528 -14 653 151 b 386 681 706 528 607 681 b 225 661 292 681 254 661 b 167 681 196 661 190 681 b 114 622 147 681 132 669 b 85 515 99 582 92 551 b 100 464 78 483 79 464 b 161 511 121 464 133 478 b 325 594 200 558 254 594 b 492 375 447 594 490 482 b 439 361 472 367 454 361 b 296 415 378 361 356 415 b 142 317 243 415 149 368 b 164 290 140 303 147 290 b 253 318 185 290 214 318 b 382 269 300 318 322 269 b 488 306 410 269 442 281 b 264 78 461 144 375 78 b 79 154 199 78 124 111 b 31 118 53 181 18 158 b 285 -14 57 42 172 -14 z "},"і":{"ha":438,"x_min":0,"x_max":0,"o":"m 221 757 b 371 886 293 756 368 818 b 283 974 371 933 333 972 b 138 842 213 976 139 906 b 221 757 136 796 168 758 z m 186 -12 b 368 131 299 -12 365 72 b 347 157 369 150 357 157 b 285 118 328 157 311 118 b 260 181 263 118 253 136 l 325 636 b 290 679 329 665 315 679 b 163 646 260 679 215 665 b 68 575 78 615 68 594 b 121 468 68 532 133 550 l 72 153 b 186 -12 56 43 106 -12 z "},"ї":{"ha":438,"x_min":0,"x_max":0,"o":"m 108 769 b 214 864 164 769 214 810 b 136 940 214 910 182 940 b 38 838 79 940 38 889 b 108 769 38 796 69 769 z m 338 769 b 442 864 392 769 442 810 b 363 940 442 910 410 940 b 264 838 308 940 264 889 b 338 769 264 796 296 769 z m 186 -12 b 368 131 299 -12 365 72 b 347 157 369 150 357 157 b 285 118 328 157 311 118 b 260 181 263 118 253 136 l 325 636 b 290 679 329 665 315 679 b 163 646 260 679 215 665 b 68 575 78 615 68 594 b 121 468 68 532 133 550 l 72 153 b 186 -12 56 43 106 -12 z "},"ю":{"ha":1149,"x_min":0,"x_max":0,"o":"m 796 681 b 397 385 610 681 447 554 l 293 385 l 328 636 b 294 678 332 665 318 678 b 164 646 263 678 215 664 b 68 574 79 615 68 594 b 121 467 68 531 132 550 l 60 24 b 94 -14 56 -3 71 -19 l 211 13 b 247 51 232 17 244 29 l 282 301 l 383 301 b 382 276 382 293 382 285 b 692 -14 382 101 501 -14 b 1099 397 919 -14 1099 160 b 796 681 1099 556 988 681 z m 706 72 b 576 272 615 72 578 158 b 774 596 578 417 646 596 b 893 404 863 596 893 507 b 706 72 893 258 826 72 z "},"я":{"ha":822,"x_min":0,"x_max":0,"o":"m 585 -14 b 767 131 699 -14 765 72 b 746 157 768 150 756 157 b 683 118 726 157 710 118 b 663 181 661 118 656 136 l 706 501 b 792 635 718 589 786 592 b 729 667 794 657 776 667 l 488 667 b 118 442 268 667 136 575 b 229 268 107 364 146 300 b 124 154 181 243 153 203 b 22 68 82 83 60 76 b -10 39 6 65 -7 54 b 103 -11 -17 6 35 -11 b 292 117 218 -11 264 60 b 408 250 331 199 346 244 l 464 254 b 482 233 475 254 485 250 l 471 156 b 585 -14 453 42 504 -14 z m 421 331 b 307 456 335 331 297 386 b 469 588 319 543 379 588 b 521 544 524 588 525 572 l 496 364 b 421 331 492 340 482 331 z "},"⁄":{"ha":513,"x_min":0,"x_max":0,"o":"m 43 -139 b 99 -101 72 -139 86 -129 l 588 976 b 563 1028 606 1015 599 1028 l 550 1028 b 494 990 519 1028 507 1018 l 6 -87 b 36 -139 -12 -126 -6 -139 z "},"¹":{"ha":372,"x_min":0,"x_max":0,"o":"m 306 957 b 289 983 307 975 303 983 b 147 936 275 983 199 957 b 106 907 115 924 107 919 b 129 882 104 896 110 889 b 163 817 165 869 168 856 l 114 471 b 56 388 106 417 56 419 b 96 367 56 372 68 367 l 239 367 b 279 386 265 367 279 372 b 236 471 279 414 229 415 z "},"²":{"ha":567,"x_min":0,"x_max":0,"o":"m 494 826 b 338 986 510 924 438 986 b 117 851 228 986 144 908 b 140 829 103 825 121 811 b 279 897 186 876 232 897 b 361 806 338 897 369 861 b 44 428 349 706 235 593 b 24 389 32 418 24 401 b 51 364 24 375 32 364 b 150 415 83 364 104 415 b 357 367 217 415 267 367 b 488 511 432 367 485 429 b 474 538 488 526 483 538 b 375 482 451 538 447 482 b 218 513 313 482 276 507 b 494 826 393 629 482 740 z "},"³":{"ha":521,"x_min":0,"x_max":0,"o":"m 525 933 b 511 972 539 950 536 972 b 451 940 490 972 472 940 b 233 982 379 940 307 982 b 125 874 168 982 143 940 b 132 808 117 842 114 808 b 174 842 146 808 153 822 b 242 865 193 858 217 865 b 371 844 296 865 331 849 b 218 715 326 799 276 758 b 221 671 200 703 194 675 b 364 547 325 657 374 618 b 232 440 354 476 293 440 b 82 508 164 440 117 467 b 46 486 67 525 40 511 b 254 356 58 428 131 356 b 497 543 401 356 483 447 b 321 733 515 665 422 721 b 525 933 392 792 464 863 z "}," ":{"ha":278,"x_min":0,"x_max":0,"o":""}," ":{"ha":278,"x_min":0,"x_max":0,"o":""},".":{"ha":354,"x_min":0,"x_max":0,"o":"m 136 -15 b 257 103 197 -15 257 29 b 163 200 257 167 213 200 b 40 79 104 200 40 154 b 136 -15 40 15 85 -15 z "},",":{"ha":372,"x_min":0,"x_max":0,"o":"m 61 -204 b 269 75 133 -204 269 -75 b 160 197 269 153 222 197 b 40 79 103 197 40 156 b 104 -68 40 1 104 -15 b 36 -183 104 -125 36 -154 b 61 -204 36 -196 47 -204 z "},":":{"ha":354,"x_min":0,"x_max":0,"o":"m 197 415 b 318 533 258 415 318 460 b 224 631 318 597 274 631 b 101 510 165 631 101 585 b 197 415 101 446 146 415 z m 136 -15 b 257 103 197 -15 257 29 b 163 200 257 167 213 200 b 40 79 104 200 40 154 b 136 -15 40 15 85 -15 z "},";":{"ha":374,"x_min":0,"x_max":0,"o":"m 196 415 b 317 533 258 415 317 460 b 224 631 317 597 274 631 b 101 510 164 631 101 585 b 196 415 101 446 144 415 z m 64 -204 b 271 75 136 -204 271 -75 b 161 197 271 153 224 197 b 43 79 106 197 43 156 b 106 -68 43 1 106 -15 b 39 -183 106 -125 39 -154 b 64 -204 39 -196 49 -204 z "},"…":{"ha":958,"x_min":0,"x_max":0,"o":"m 135 -18 b 256 100 197 -18 256 26 b 163 197 256 164 213 197 b 40 76 103 197 40 151 b 135 -18 40 13 83 -18 z m 432 -18 b 553 100 494 -18 553 26 b 460 197 553 164 510 197 b 338 76 400 197 338 151 b 432 -18 338 13 381 -18 z m 739 -18 b 860 100 801 -18 860 26 b 767 197 860 164 817 197 b 644 76 707 197 644 151 b 739 -18 644 13 688 -18 z "},"!":{"ha":354,"x_min":0,"x_max":0,"o":"m 176 335 b 210 374 197 335 204 344 b 361 865 254 589 349 774 b 268 986 372 940 329 986 b 142 865 206 986 153 940 b 154 374 129 774 171 589 b 176 335 151 344 157 335 z m 136 -18 b 257 100 197 -18 257 26 b 163 197 257 164 213 197 b 40 76 104 197 40 151 b 136 -18 40 13 85 -18 z "},"¡":{"ha":372,"x_min":0,"x_max":0,"o":"m 206 468 b 326 588 268 468 326 514 b 232 683 326 650 282 683 b 111 563 174 683 111 638 b 206 468 111 500 154 468 z m 93 -319 b 221 -199 154 -319 210 -274 b 206 293 233 -107 189 78 b 183 332 208 324 204 332 b 151 293 164 332 157 324 b 1 -199 107 78 14 -107 b 93 -319 -10 -274 31 -319 z "},"?":{"ha":642,"x_min":0,"x_max":0,"o":"m 343 374 b 397 482 349 406 382 463 b 668 790 475 575 647 653 b 410 986 685 903 590 986 b 92 785 218 986 106 886 b 168 696 85 742 103 696 b 264 769 222 696 243 733 b 396 899 303 843 336 899 b 465 801 453 899 472 851 b 263 389 444 657 289 575 b 343 374 253 318 331 313 z m 267 -18 b 388 100 329 -18 388 26 b 294 197 388 164 344 197 b 172 76 235 197 172 151 b 267 -18 172 13 215 -18 z "},"¿":{"ha":607,"x_min":0,"x_max":0,"o":"m 340 467 b 461 585 403 467 461 511 b 368 682 461 649 418 682 b 246 561 308 682 246 636 b 340 467 246 497 289 467 z m 218 -319 b 536 -118 408 -319 521 -219 b 460 -29 543 -75 525 -29 b 364 -103 406 -29 385 -67 b 232 -232 324 -176 292 -232 b 163 -135 175 -232 156 -185 b 365 278 183 11 339 92 b 283 293 375 349 296 354 b 229 185 279 261 244 204 b -40 -124 153 93 -19 14 b 218 -319 -57 -236 36 -319 z "},"·":{"ha":374,"x_min":0,"x_max":0,"o":"m 178 242 b 299 360 239 242 299 286 b 204 457 299 424 254 457 b 82 336 146 457 82 411 b 178 242 82 272 126 242 z "},"•":{"ha":489,"x_min":0,"x_max":0,"o":"m 226 207 b 383 361 307 207 383 265 b 261 488 383 444 326 488 b 103 329 185 488 103 428 b 226 207 103 247 160 207 z "},"*":{"ha":675,"x_min":0,"x_max":0,"o":"m 154 429 b 265 443 183 401 232 408 b 346 594 303 482 310 536 b 401 596 364 621 392 622 b 442 443 419 539 413 482 b 547 429 465 408 510 401 b 571 540 586 458 593 506 b 453 619 546 579 496 588 b 475 674 428 639 440 671 b 628 675 532 676 581 658 b 692 774 672 692 700 733 b 597 818 683 815 640 832 b 464 724 549 803 515 758 b 424 756 435 703 410 722 b 493 899 447 808 486 850 b 429 978 499 942 472 978 b 342 899 385 978 349 942 b 371 756 335 850 363 811 b 319 724 375 722 344 703 b 215 818 281 757 257 803 b 107 774 176 832 129 815 b 143 675 86 733 104 692 b 297 674 185 658 239 676 b 304 619 329 671 333 639 b 163 540 253 589 199 578 b 154 429 131 506 125 458 z "},"#":{"ha":989,"x_min":0,"x_max":0,"o":"m 185 0 b 219 24 201 0 214 8 l 324 296 l 524 296 l 422 31 b 443 0 415 13 424 0 l 476 0 b 511 24 493 0 506 8 l 615 296 l 839 296 b 874 324 857 296 869 306 l 885 360 b 864 388 889 378 882 388 l 651 388 l 724 574 l 946 574 b 981 601 964 574 976 583 l 992 638 b 969 665 994 656 988 665 l 758 665 l 867 942 b 846 972 874 960 865 972 l 811 972 b 778 949 794 972 783 964 l 667 665 l 467 665 l 575 942 b 554 972 582 960 574 972 l 519 972 b 486 949 503 972 492 964 l 375 665 l 158 665 b 125 638 140 665 128 656 l 114 601 b 135 574 110 583 117 574 l 340 574 l 268 388 l 53 388 b 18 360 35 388 22 378 l 7 324 b 28 296 3 306 10 296 l 232 296 l 131 31 b 151 0 124 13 132 0 z m 632 574 l 560 388 l 360 388 l 432 574 z "},"/":{"ha":563,"x_min":0,"x_max":0,"o":"m 43 -139 b 99 -101 72 -139 86 -129 l 588 976 b 563 1028 606 1015 599 1028 l 550 1028 b 494 990 519 1028 507 1018 l 6 -87 b 36 -139 -12 -126 -6 -139 z "},"\\":{"ha":536,"x_min":0,"x_max":0,"o":"m 385 -139 b 425 -87 422 -139 432 -126 l 240 990 b 194 1028 236 1018 225 1028 l 183 1028 b 143 976 147 1028 136 1015 l 328 -101 b 372 -139 332 -129 343 -139 z "},"-":{"ha":496,"x_min":0,"x_max":0,"o":"m 376 358 b 424 392 401 358 414 367 l 433 414 b 406 450 444 442 432 450 l 139 450 b 92 417 114 450 101 442 l 82 393 b 110 358 71 367 83 358 z "},"­":{"ha":496,"x_min":0,"x_max":0,"o":"m 376 358 b 424 392 401 358 414 367 l 433 414 b 406 450 444 442 432 450 l 139 450 b 92 417 114 450 101 442 l 82 393 b 110 358 71 367 83 358 z "},"–":{"ha":706,"x_min":0,"x_max":0,"o":"m 585 358 b 632 392 610 358 622 367 l 642 414 b 614 450 653 442 640 450 l 139 450 b 92 417 114 450 101 442 l 82 393 b 110 358 71 367 83 358 z "},"—":{"ha":983,"x_min":0,"x_max":0,"o":"m 861 358 b 910 392 886 358 899 367 l 919 414 b 890 450 929 442 917 450 l 139 450 b 92 417 114 450 101 442 l 82 393 b 110 358 71 367 83 358 z "},"_":{"ha":588,"x_min":0,"x_max":0,"o":"m 469 -115 b 511 -78 497 -115 507 -106 b 479 -40 515 -50 507 -40 l 1 -40 b -40 -78 -26 -40 -35 -50 b -8 -115 -43 -106 -36 -115 z "},"(":{"ha":538,"x_min":0,"x_max":0,"o":"m 372 -167 b 433 -157 392 -175 415 -179 b 414 -93 449 -136 436 -114 b 276 460 286 28 240 208 b 565 1000 310 699 404 882 b 604 1064 594 1022 614 1043 b 532 1067 593 1088 563 1081 b 78 464 333 968 121 763 b 372 -167 32 135 199 -76 z "},")":{"ha":540,"x_min":0,"x_max":0,"o":"m 26 -167 b 497 464 225 -76 451 135 b 213 1067 539 763 383 968 b 140 1064 186 1081 158 1088 b 161 1000 124 1043 138 1022 b 299 460 289 882 332 699 b 6 -93 263 208 165 28 b -33 -157 -24 -114 -43 -136 b 26 -167 -21 -179 6 -175 z "},"{":{"ha":479,"x_min":0,"x_max":0,"o":"m 318 -178 b 368 -142 351 -179 364 -171 b 333 -100 371 -119 361 -110 b 294 42 285 -83 283 -28 l 328 285 b 224 467 342 382 299 436 b 379 647 307 496 365 550 l 410 863 b 490 1006 419 931 439 988 b 536 1047 521 1017 533 1025 b 494 1082 540 1075 529 1083 b 214 838 314 1069 235 981 l 179 592 b 110 510 174 553 153 521 b 63 465 78 504 67 494 b 96 422 60 439 67 429 b 144 340 135 411 150 379 l 106 67 b 318 -178 85 -76 139 -168 z "}}}
